<?xml version="1.0" standalone="no"?>
<!DOCTYPE svg PUBLIC "-//W3C//DTD SVG 1.1//EN" "http://www.w3.org/Graphics/SVG/1.1/DTD/svg11.dtd" >
<svg xmlns="http://www.w3.org/2000/svg">
<metadata>
This is a custom SVG webfont generated by Font Squirrel.
Copyright   : Copyright c 2008 by neogrey creative All rights reserved
Designer    : Ivan Philipov
Foundry     : neogrey creative
Foundry URL : wwwneogreycom
</metadata>
<defs>
<font id="webfontTnvhYMxC" horiz-adv-x="468" >
<font-face units-per-em="2048" ascent="1638" descent="-410" />
<missing-glyph horiz-adv-x="698" />
<glyph unicode=" "  horiz-adv-x="698" />
<glyph unicode="&#x09;" horiz-adv-x="698" />
<glyph unicode="&#xa0;" horiz-adv-x="698" />
<glyph unicode="!" horiz-adv-x="206" d="M0 391v1188q0 27 17.5 44t43.5 17q25 0 43.5 -17t18.5 -44v-1188q0 -27 -18.5 -44t-43.5 -17q-27 0 -44 17t-17 44zM0 63v82q0 27 17.5 44.5t43.5 17.5q25 0 43.5 -17.5t18.5 -44.5v-82q0 -27 -18.5 -44t-43.5 -17q-27 0 -44 17t-17 44z" />
<glyph unicode="&#x22;" horiz-adv-x="190" d="M61 1632q25 0 43.5 -17.5t18.5 -41.5v-322q0 -27 -18.5 -44t-43.5 -17q-27 0 -44 17.5t-17 43.5v322q0 25 17 42t44 17zM307 1632q25 0 43.5 -17.5t18.5 -41.5v-322q0 -27 -18.5 -44t-43.5 -17q-27 0 -44 17.5t-17 43.5v322q0 25 17 42t44 17z" />
<glyph unicode="#" horiz-adv-x="884" d="M584 330h145q25 0 43.5 -18.5t18.5 -43.5q0 -27 -18.5 -44t-43.5 -17h-145v-146q0 -27 -18.5 -44t-43.5 -17q-27 0 -44 17.5t-17 43.5v146h-342v-146q0 -27 -18.5 -44t-43.5 -17q-27 0 -44 17.5t-17 43.5v146h-146q-27 0 -44 17.5t-17 43.5q0 25 17.5 43.5t43.5 18.5h146 v342h-146q-27 0 -44 17.5t-17 43.5q0 25 17.5 43.5t43.5 18.5h146v145q0 25 17.5 43t43.5 18q25 0 43.5 -18t18.5 -43v-145h342v145q0 25 17.5 43t43.5 18q25 0 43.5 -18t18.5 -43v-145h145q25 0 43.5 -18.5t18.5 -43.5q0 -27 -18.5 -44t-43.5 -17h-145v-342zM119 672v-342 h342v342h-342z" />
<glyph unicode="$" horiz-adv-x="1548" d="M328 1640h352v160q0 27 17.5 44.5t43.5 17.5q25 0 43.5 -17.5t18.5 -44.5v-160h563q27 0 44 -17t17 -44q0 -25 -17 -43t-44 -18h-1038q-84 0 -143.5 -58.5t-59.5 -142.5v-234q0 -84 59.5 -142t143.5 -58h778q133 0 227 -95.5t94 -228.5v-233q0 -133 -94 -228.5 t-227 -95.5h-303v-147q0 -27 -18.5 -44.5t-43.5 -17.5q-27 0 -44 17.5t-17 44.5v147h-614q-27 0 -44.5 17.5t-17.5 43.5q0 25 17.5 42.5t44.5 17.5h1040q84 0 142.5 59.5t58.5 143.5v233q0 84 -59.5 142.5t-141.5 58.5h-778q-133 0 -228.5 95t-95.5 228v234q0 133 95.5 228 t228.5 95z" />
<glyph unicode="%" horiz-adv-x="1097" d="M330 94l958 1516q12 20 38 26t46 -8q20 -12 26.5 -37.5t-7.5 -46.5l-959 -1515q-14 -23 -37.5 -28t-46.5 9q-20 12 -26 38t8 46zM1217 780h137q133 0 228 -95t95 -228v-131q0 -133 -95 -228.5t-228 -95.5h-137q-133 0 -228.5 95.5t-95.5 228.5v131q0 133 95.5 228 t228.5 95zM1016 457v-131q0 -84 59.5 -142.5t141.5 -58.5h137q84 0 142 58.5t58 142.5v131q0 84 -58 142t-142 58h-137q-82 0 -141.5 -58t-59.5 -142zM336 1640h137q133 0 228.5 -95t95.5 -228v-131q0 -133 -95.5 -228.5t-228.5 -95.5h-137q-133 0 -228.5 95.5t-95.5 228.5 v131q0 133 95.5 228t228.5 95zM135 1317v-131q0 -84 59.5 -142.5t141.5 -58.5h137q84 0 142.5 58.5t58.5 142.5v131q0 84 -58.5 142.5t-142.5 58.5h-137q-82 0 -141.5 -58.5t-59.5 -142.5z" />
<glyph unicode="&#x26;" horiz-adv-x="1413" d="M385 844l662 -672q63 57 63 139v131q0 27 17.5 45.5t44 18.5t45 -18.5t18.5 -45.5v-131q0 -135 -100 -229l110 -113q18 -18 18.5 -44.5t-18.5 -43.5q-18 -18 -43.5 -18t-44.5 18l-133 135q-49 -18 -104 -18h-607q-129 0 -221 92t-92 221v131q0 125 86 216.5t209 97.5 l-23 32l-11 26.5t-19.5 61t-16.5 87.5t6.5 100t36.5 104q47 80 133 118t168 38h422q27 0 45.5 -17.5t18.5 -44t-18.5 -45t-45.5 -18.5h-416q-133 -16 -180 -96q-31 -51 -30 -125q0 -57 20 -133zM313 123h607l-502 510h-105q-78 0 -133 -56.5t-55 -134.5v-131q0 -78 55 -133 t133 -55z" />
<glyph unicode="'" horiz-adv-x="190" d="M61 1632q25 0 43.5 -17.5t18.5 -41.5v-322q0 -27 -18.5 -44t-43.5 -17q-27 0 -44 17.5t-17 43.5v322q0 25 17 42t44 17z" />
<glyph unicode="(" horiz-adv-x="366" d="M236 1749q25 0 42 -17.5t17 -42t-17.5 -42t-41.5 -17.5h-115v-1777h115q25 0 42 -17.5t17 -42t-17.5 -42t-41.5 -17.5h-175q-25 0 -42 17.5t-17 41.5v1897q0 25 17.5 42t41.5 17h175z" />
<glyph unicode=")" horiz-adv-x="385" d="M72 1749h174q25 0 42 -17.5t17 -41.5v-1897q0 -25 -17.5 -42t-41.5 -17h-174q-25 0 -42.5 17.5t-17.5 42t17.5 42t42.5 17.5h114v1777h-114q-25 0 -42.5 17.5t-17.5 42t17.5 42t42.5 17.5z" />
<glyph unicode="*" horiz-adv-x="952" d="M526 1280h238q23 0 37 -15.5t14 -36t-15.5 -34.5t-35.5 -14h-238l168 -170q14 -14 14.5 -35t-14 -35t-35 -14t-34.5 14l-170 168v-238q0 -23 -14.5 -36t-35 -13t-35 14.5t-14.5 34.5v238l-170 -168q-14 -14 -34.5 -14t-35 14t-14.5 34.5t15 35.5l168 170h-238 q-20 0 -35.5 14t-15.5 34.5t14.5 36t36.5 15.5h238l-168 168q-14 14 -14.5 34.5t14 35t35 14.5t34.5 -14l170 -168v237q0 20 14.5 35.5t35 15.5t35 -14t14.5 -37v-237l170 168q14 14 34.5 14t35 -14.5t14.5 -35t-15 -34.5z" />
<glyph unicode="+" horiz-adv-x="1024" d="M500 592h321q25 0 42.5 -16.5t17.5 -41t-17.5 -42t-42.5 -17.5h-321v-321q0 -25 -17.5 -41.5t-42.5 -16.5q-23 0 -40 16.5t-17 41.5v321h-322q-25 0 -42 17.5t-17 42t17.5 41t41.5 16.5h322v323q0 23 17.5 40.5t39.5 17.5q25 0 42.5 -17.5t17.5 -40.5v-323z" />
<glyph unicode="," d="M-27 123h90q25 0 43.5 -17.5t18.5 -42.5v-178q0 -27 -18.5 -44t-43.5 -17q-27 0 -44 17.5t-17 43.5v115h-29q-25 0 -42 17.5t-17 43.5q0 25 17 43.5t42 18.5z" />
<glyph unicode="-" horiz-adv-x="702" d="M498 528h-430q-27 0 -44.5 17.5t-17.5 42.5q0 27 17.5 44t44.5 17h430q27 0 44 -17.5t17 -43.5q0 -25 -17 -42.5t-44 -17.5z" />
<glyph unicode="." horiz-adv-x="319" d="M2 61v72q0 27 17.5 44.5t43.5 17.5q25 0 43.5 -17.5t18.5 -44.5v-72q0 -25 -18.5 -43t-43.5 -18q-27 0 -44 18t-17 43z" />
<glyph unicode="/" horiz-adv-x="1097" d="M10 94l959 1516q12 20 37.5 26t46.5 -8q20 -12 26 -37.5t-8 -46.5l-958 -1515q-14 -23 -38 -28t-46 9q-20 12 -26.5 38t7.5 46z" />
<glyph unicode="0" horiz-adv-x="1497" d="M326 1640h663q133 0 228.5 -95t95.5 -230v-989q0 -135 -95.5 -230.5t-228.5 -95.5h-663q-135 0 -230.5 95t-95.5 231v989q0 135 95.5 230t230.5 95zM989 1518h-663q-57 0 -105 -29l934 -1278q35 51 35 115v989q0 84 -58.5 143.5t-142.5 59.5zM326 123h663q37 0 68 12 l-918 1260q-16 -39 -16 -80v-989q0 -84 59.5 -143.5t143.5 -59.5z" />
<glyph unicode="1" horiz-adv-x="831" d="M588 1317v-1254q0 -25 -18.5 -43t-43.5 -18q-27 0 -44 18.5t-17 42.5v1254q0 84 -58.5 143.5t-142.5 59.5h-203q-27 0 -44 17t-17 42q0 27 17.5 44t43.5 17h203q133 0 228.5 -94t95.5 -229z" />
<glyph unicode="2" horiz-adv-x="1503" d="M311 1642h662q131 0 224 -92t93 -223v-305q0 -131 -92 -223t-223 -92h-662q-80 0 -137 -57.5t-57 -139.5v-391h1155q25 0 42 -17.5t17 -42t-17.5 -42t-41.5 -17.5h-1215q-25 0 -43 17.5t-18 41.5v451q0 131 92 223t223 92h662q80 0 137 58.5t57 138.5v305q0 82 -57 138.5 t-139 56.5h-662q-82 0 -139 -57.5t-57 -139.5v-117q0 -27 -17.5 -44t-42 -17t-42 17.5t-17.5 43.5v117q0 131 92 224t223 93z" />
<glyph unicode="3" horiz-adv-x="1523" d="M1223 801q115 -111 114 -264v-211q0 -135 -96 -230.5t-231 -95.5h-684q-135 0 -230.5 96.5t-95.5 229.5v123q0 27 18.5 44t42.5 17q27 0 44.5 -17.5t17.5 -43.5v-123q0 -84 59.5 -143.5t143.5 -59.5h684q84 0 143 59.5t59 143.5v211q0 74 -43 135t-71 67h-776 q-23 0 -40.5 16.5t-21.5 39.5v6q0 27 18.5 44t43.5 17h776q29 6 71.5 67.5t42.5 135.5v252q0 84 -59 143.5t-143 59.5h-684q-84 0 -143.5 -59.5t-59.5 -143.5v-123q0 -27 -17.5 -44t-44 -17t-44 17t-17.5 44v123q0 133 95 229t231 96h684q135 0 231 -95t96 -230v-252 q1 -153 -114 -264z" />
<glyph unicode="4" horiz-adv-x="1587" d="M1210 1579q0 25 18.5 43t43.5 18q27 0 44 -18t17 -43v-1518q0 -27 -17.5 -44t-43.5 -17q-25 0 -43.5 17.5t-18.5 43.5v674q-88 -72 -200 -71h-684q-135 0 -230.5 95t-95.5 230v590q0 25 17.5 43t44 18t44 -18t17.5 -43v-590q0 -84 59.5 -143.5t143.5 -59.5h684 q82 0 141 59.5t59 143.5v590z" />
<glyph unicode="5" horiz-adv-x="1503" d="M133 1311v-346h871q133 0 228 -95.5t95 -228.5v-317q0 -133 -95 -228.5t-228 -95.5h-680q-133 0 -228.5 95t-95.5 229v186q0 27 17.5 44t43.5 17q25 0 43.5 -17t18.5 -44v-186q0 -82 59.5 -141.5t141.5 -59.5h680q82 0 141 59.5t59 141.5v317q0 84 -59.5 142.5 t-140.5 58.5h-932q-27 0 -44.5 18.5t-17.5 42.5v408q0 133 94.5 228t227.5 95h893q25 0 43 -17.5t18 -43.5q0 -25 -18.5 -43.5t-42.5 -18.5h-893q-82 0 -140.5 -58t-58.5 -142z" />
<glyph unicode="6" horiz-adv-x="1550" d="M1343 578v-254q0 -133 -95 -228.5t-228 -95.5h-696q-133 0 -228.5 94t-95.5 228v997q0 131 94 226t228 95h864q25 0 43 -17t18 -44q0 -25 -18.5 -42t-42.5 -17h-864q-82 0 -140.5 -58.5t-58.5 -142.5v-418h897q133 0 228 -95t95 -228zM1221 324v254q0 82 -59.5 141 t-141.5 59h-897v-456q0 -82 58.5 -140.5t142.5 -58.5h696q82 0 141.5 59.5t59.5 141.5z" />
<glyph unicode="7" horiz-adv-x="1153" d="M-102 1645h1075q35 0 55 -33q16 -31 -2 -64l-903 -1517q-14 -23 -40 -30t-48 7q-31 20 -31 55q0 16 10 33l846 1422h-962q-27 0 -45.5 18t-18.5 45t18.5 45.5t45.5 18.5z" />
<glyph unicode="8" horiz-adv-x="1552" d="M1270 819q135 -98 135 -262v-233q0 -133 -95.5 -228.5t-228.5 -95.5h-757q-133 0 -228.5 94t-95.5 228v235q0 164 133 262q-133 96 -133 260v236q0 133 94 228t228 95h759q133 0 227.5 -95t94.5 -228v-234q0 -166 -133 -262zM322 881h761q82 0 140.5 59t58.5 141v234 q0 82 -59.5 141.5t-141.5 59.5h-759q-84 0 -142.5 -59.5t-58.5 -141.5v-236q0 -82 59.5 -140t141.5 -58zM1083 758h-761q-82 0 -140.5 -58.5t-58.5 -142.5v-235q0 -82 58.5 -140.5t142.5 -58.5h757q82 0 141.5 59.5t59.5 141.5v233q0 82 -58.5 141.5t-140.5 59.5z" />
<glyph unicode="9" horiz-adv-x="1552" d="M0 1063v256q0 133 94 227t228 94h698q133 0 228 -94t95 -227v-995q0 -133 -95 -228.5t-228 -95.5h-862q-27 0 -44.5 17.5t-17.5 43.5q0 25 17.5 43.5t44.5 18.5h862q82 0 141.5 59.5t59.5 141.5v415h-899q-133 0 -227.5 95.5t-94.5 228.5zM123 1319v-256 q0 -84 58.5 -142.5t140.5 -58.5h899v457q0 82 -59.5 141.5t-141.5 59.5h-698q-82 0 -140.5 -58.5t-58.5 -142.5z" />
<glyph unicode=":" horiz-adv-x="276" d="M2 717v153q0 27 17.5 44.5t43.5 17.5q25 0 43.5 -17.5t18.5 -44.5v-153q0 -25 -18.5 -43.5t-43.5 -18.5q-27 0 -44 18.5t-17 43.5zM2 123v153q0 27 17.5 44.5t43.5 17.5q25 0 43.5 -17.5t18.5 -44.5v-153q0 -25 -18.5 -43.5t-43.5 -18.5q-27 0 -44 18.5t-17 43.5z" />
<glyph unicode=";" horiz-adv-x="319" d="M2 621v71q0 27 17.5 44.5t43.5 17.5q25 0 43.5 -17.5t18.5 -44.5v-71q0 -25 -18.5 -43.5t-43.5 -18.5q-27 0 -44 18.5t-17 43.5zM-27 123h90q25 0 43.5 -17.5t18.5 -42.5v-178q0 -27 -18.5 -44t-43.5 -17q-27 0 -44 17.5t-17 43.5v115h-29q-25 0 -42 17.5t-17 43.5 q0 25 17 43.5t42 18.5z" />
<glyph unicode="&#x37e;" horiz-adv-x="319" d="M2 621v71q0 27 17.5 44.5t43.5 17.5q25 0 43.5 -17.5t18.5 -44.5v-71q0 -25 -18.5 -43.5t-43.5 -18.5q-27 0 -44 18.5t-17 43.5zM-27 123h90q25 0 43.5 -17.5t18.5 -42.5v-178q0 -27 -18.5 -44t-43.5 -17q-27 0 -44 17.5t-17 43.5v115h-29q-25 0 -42 17.5t-17 43.5 q0 25 17 43.5t42 18.5z" />
<glyph unicode="&#x3c;" horiz-adv-x="1024" d="M135 725l889 -455v-131l-1024 514v144l1024 510v-131z" />
<glyph unicode="=" horiz-adv-x="1103" d="M922 616h-850q-27 0 -44.5 17.5t-17.5 44.5q0 25 17.5 43t44.5 18h850q25 0 43 -18.5t18 -42.5q0 -27 -18 -44.5t-43 -17.5zM922 248h-850q-27 0 -44.5 17.5t-17.5 43.5q0 25 17.5 43.5t44.5 18.5h850q25 0 43 -18.5t18 -43.5q0 -27 -18 -44t-43 -17z" />
<glyph unicode="&#x3e;" horiz-adv-x="1024" d="M1024 797v-144l-1024 -514v131l889 455l-889 451v131z" />
<glyph unicode="?" horiz-adv-x="1431" d="M309 1634h678q133 0 227.5 -94t94.5 -227v-84q0 -133 -94.5 -228.5t-227.5 -95.5h-192q-82 0 -140.5 -58.5t-58.5 -141.5v-275q0 -27 -18.5 -44t-43 -17t-43 17t-18.5 44v275q0 133 94.5 228t227.5 95h192q82 0 141.5 59.5t59.5 141.5v84q0 84 -59.5 142t-141.5 58h-678 q-82 0 -140 -58t-58 -142v-121q0 -27 -18.5 -44.5t-43.5 -17.5q-27 0 -44 17.5t-17 44.5v121q0 133 94 227t227 94zM473 61v154q0 27 17.5 44t44.5 17q25 0 43 -17t18 -44v-154q0 -25 -18.5 -43t-42.5 -18q-27 0 -44.5 18t-17.5 43z" />
<glyph unicode="@" horiz-adv-x="1628" d="M1399 -246h-1080q-129 0 -224 93.5t-95 222.5v684q0 133 94 227t225 94h816q133 0 226 -94t93 -227v-521q0 -88 -61.5 -148t-149.5 -62h-41q-88 2 -148.5 62t-60.5 148v392q0 37 -27.5 63.5t-64.5 26.5h-403q-37 0 -63.5 -26.5t-26.5 -63.5v-392q0 -39 25.5 -65.5 t64.5 -26.5h362q25 0 42.5 -17.5t17.5 -42t-17.5 -41.5t-42.5 -17h-362q-88 0 -148.5 61t-60.5 149v392q4 88 63.5 148.5t145.5 60.5h403q88 -4 149.5 -63.5t61.5 -145.5v-392q0 -39 25.5 -65.5t64.5 -26.5h41q39 0 65.5 26t26.5 66v521q0 84 -59 143t-141 59h-816 q-86 -4 -143 -62t-57 -140v-680q0 -82 59.5 -141.5t140.5 -59.5h1080q25 0 42 -17.5t17 -42t-17 -42t-42 -17.5z" />
<glyph unicode="A" horiz-adv-x="1642" d="M338 1640h811q133 0 228.5 -95t95.5 -228v-1254q0 -27 -18.5 -44t-43.5 -17t-43 17.5t-18 43.5v713h-1213v-713q0 -27 -18.5 -44t-43 -17t-43 17.5t-18.5 43.5v1254q0 133 95.5 228t228.5 95zM137 1317v-420h1213v420q0 84 -58.5 142.5t-142.5 58.5h-811 q-84 0 -142.5 -58.5t-58.5 -142.5z" />
<glyph unicode="B" horiz-adv-x="1613" d="M324 1640h716q57 0 110.5 -9t109 -31.5t95.5 -57.5t65.5 -93t25.5 -132v-250q0 -166 -135 -264q133 -96 133 -260v-217q0 -133 -95.5 -228.5t-228.5 -95.5h-1059q-29 0 -43 18q-18 16 -18 43v1237q0 143 93.5 241.5t230.5 98.5zM123 866h999q84 0 143.5 59.5t59.5 141.5 v250q0 82 -59.5 141.5t-143.5 59.5h-798q-86 0 -143.5 -61.5t-57.5 -156.5v-434zM123 125h997q84 0 142.5 58.5t58.5 142.5v217q0 84 -58.5 142t-142.5 58h-997v-618z" />
<glyph unicode="C" horiz-adv-x="1536" d="M371 1640h991q27 0 44 -17t17 -44q0 -25 -17 -43t-44 -18h-991q-84 0 -142.5 -58.5t-58.5 -142.5v-991q0 -84 58.5 -142.5t142.5 -58.5h991q27 0 44 -18.5t17 -43.5q0 -27 -17 -44t-44 -17h-991q-133 0 -228.5 95.5t-95.5 228.5v991q0 133 95.5 228t228.5 95z" />
<glyph unicode="D" horiz-adv-x="1662" d="M61 1640h1125q133 0 228 -95t95 -228v-991q0 -133 -95 -228.5t-228 -95.5h-1125q-27 0 -44 17.5t-17 43.5v1516q0 27 18 43q14 18 43 18zM1186 1518h-1063v-1393h1063q84 0 142 58.5t58 142.5v991q0 84 -58 142.5t-142 58.5z" />
<glyph unicode="E" horiz-adv-x="1556" d="M340 125h989q25 0 43.5 -18.5t18.5 -43.5q0 -27 -18.5 -44t-43.5 -17h-989q-133 0 -228.5 95.5t-95.5 228.5v991q0 133 95.5 228t228.5 95h989q25 0 42.5 -17t17.5 -44q0 -25 -17.5 -43t-42.5 -18h-989q-82 0 -141.5 -58.5t-59.5 -142.5v-418h1164q27 0 44 -18.5t17 -43 t-17.5 -43t-43.5 -18.5h-1164v-450q0 -84 59.5 -142.5t141.5 -58.5z" />
<glyph unicode="F" horiz-adv-x="1476" d="M324 1640h1001q25 0 43 -17t18 -44q0 -25 -18 -43t-43 -18h-1001q-82 0 -141.5 -58.5t-59.5 -142.5v-418h1091q27 0 44.5 -18.5t17.5 -42.5q0 -27 -17.5 -44.5t-44.5 -17.5h-1091v-713q0 -27 -18.5 -44t-43.5 -17q-27 0 -44 17.5t-17 43.5v1254q0 133 95.5 228t228.5 95z " />
<glyph unicode="G" horiz-adv-x="1716" d="M336 1640h1165q27 0 45.5 -18t18.5 -45t-18.5 -45.5t-45.5 -18.5h-1165q-86 0 -147.5 -61t-61.5 -147v-967q0 -86 61.5 -147.5t147.5 -61.5h874q88 0 148.5 61.5t60.5 147.5v436h-989q-27 0 -45 18.5t-18 45t18 43t45 16.5h1053q27 0 45 -16.5t18 -42.5v-500 q0 -139 -98 -237.5t-238 -98.5h-874q-139 0 -237.5 99.5t-98.5 236.5v967q0 137 98.5 236t237.5 99z" />
<glyph unicode="H" horiz-adv-x="1599" d="M1346 1640q25 0 42 -17t17 -44v-1516q0 -27 -17.5 -44t-41.5 -17q-27 0 -44.5 17.5t-17.5 43.5v713h-1161v-713q0 -27 -18.5 -44t-43.5 -17q-27 0 -44 17.5t-17 43.5v1516q0 27 17.5 44t43.5 17q25 0 43.5 -17t18.5 -44v-680h1161v680q0 27 17.5 44t44.5 17z" />
<glyph unicode="I" horiz-adv-x="366" d="M0 63v1516q0 27 17.5 44t43.5 17q25 0 43.5 -17t18.5 -44v-1516q0 -27 -18.5 -44t-43.5 -17q-27 0 -44 17t-17 44z" />
<glyph unicode="J" horiz-adv-x="1591" d="M1407 1579v-1253q0 -133 -95 -228.5t-229 -95.5h-1022q-27 0 -44 17.5t-17 43.5q0 25 17.5 43.5t43.5 18.5h1022q84 0 142.5 58.5t58.5 142.5v1253q0 27 17.5 44t44.5 17q25 0 43 -17t18 -44z" />
<glyph unicode="K" horiz-adv-x="1536" d="M1042 909q166 -2 245 -100t77 -215v-514q0 -29 -19.5 -46.5t-44 -17.5t-43 17.5t-18.5 46.5v514q0 84 -56.5 138t-140.5 54h-919v-706q0 -29 -17.5 -46.5t-42.5 -17.5q-63 0 -63 64v1513q0 25 17.5 43.5t45.5 18.5q23 0 41.5 -18.5t18.5 -43.5v-684h766l190 701 q8 25 30 37q14 8 30 8q8 0 16 -2q25 -6 37 -27.5t4 -48.5l-180 -668h26z" />
<glyph unicode="L" horiz-adv-x="1476" d="M0 326v1253q0 27 17.5 44t43.5 17q25 0 43.5 -17t18.5 -44v-1253q0 -84 59.5 -142.5t141.5 -58.5h1022q25 0 43 -18.5t18 -43.5q0 -27 -18.5 -44t-42.5 -17h-1022q-133 0 -228.5 95.5t-95.5 228.5z" />
<glyph unicode="M" horiz-adv-x="2902" d="M1612 1640h766q133 0 228 -95t95 -228v-1254q0 -27 -17.5 -44t-43.5 -17q-25 0 -42.5 17.5t-17.5 43.5v1254q0 84 -59 142.5t-143 58.5h-766q-84 0 -142.5 -58.5t-58.5 -142.5v-1254q0 -27 -17.5 -44t-43.5 -17q-25 0 -42.5 17.5t-17.5 43.5v1254q0 84 -59.5 142.5 t-143.5 58.5h-765q-84 0 -142.5 -58.5t-58.5 -142.5v-1254q0 -27 -17.5 -44t-44.5 -17q-25 0 -43 17.5t-18 43.5v1254q0 133 95 228t229 95h765q168 0 263 -135q98 135 262 135z" />
<glyph unicode="N" horiz-adv-x="1728" d="M1430 63v1254q0 84 -58.5 143.5t-142.5 59.5h-905q-84 0 -143.5 -59.5t-59.5 -143.5v-1254q0 -27 -17.5 -44t-42.5 -17q-27 0 -44 17.5t-17 43.5v1254q0 133 95 228t229 95h905q133 0 228 -95t95 -228v-1254q0 -27 -17 -44t-44 -17q-25 0 -43 17t-18 44z" />
<glyph unicode="O" horiz-adv-x="1814" d="M324 1640h979q133 0 227 -95t94 -228v-991q0 -133 -94 -228.5t-227 -95.5h-979q-133 0 -228.5 95.5t-95.5 228.5v991q0 133 95.5 228t228.5 95zM123 1317v-991q0 -84 59.5 -142.5t141.5 -58.5h979q82 0 141 58.5t59 142.5v991q0 84 -59.5 142.5t-140.5 58.5h-979 q-82 0 -141.5 -58.5t-59.5 -142.5z" />
<glyph unicode="P" horiz-adv-x="1705" d="M324 1640h860q133 0 228 -95t95 -228v-559q0 -133 -95 -228.5t-228 -95.5h-1061v-371q0 -27 -18.5 -44t-43.5 -17q-27 0 -44 17.5t-17 43.5v1254q0 133 95.5 228t228.5 95zM123 1317v-760h1061q84 0 143 58.5t59 142.5v559q0 84 -59 142.5t-143 58.5h-860 q-82 0 -141.5 -58.5t-59.5 -142.5z" />
<glyph unicode="Q" horiz-adv-x="1832" d="M319 1640h1033q133 0 227 -94t94 -227v-997q0 -133 -94 -227.5t-227 -94.5h-455v-47q0 -84 59.5 -142.5t141.5 -58.5q25 0 42 -17.5t17 -41.5q0 -27 -17.5 -44.5t-41.5 -17.5q-133 0 -227.5 94.5t-94.5 227.5v47h-457q-133 0 -227 94t-94 228v997q0 133 94 227t227 94z M1552 322v997q0 82 -59 141.5t-141 59.5h-1033q-82 0 -141 -59.5t-59 -141.5v-997q0 -84 59.5 -142.5t140.5 -58.5h457v328q0 27 17.5 44t44.5 17q25 0 42 -17.5t17 -43.5v-328h455q82 0 141 58.5t59 142.5z" />
<glyph unicode="R" horiz-adv-x="1679" d="M1184 1640q133 0 228 -95t95 -228v-354q0 -133 -95 -228.5t-228 -95.5h-72l223 -553q8 -23 -2 -46.5t-33 -33.5q-11 -5 -22.5 -5t-23.5 5q-24 10 -33 35l-240 598h-858v-576q0 -27 -18.5 -44t-43.5 -17q-27 0 -44 17.5t-17 43.5v1254q0 133 95 228t229 95h860zM1386 963 v354q0 84 -59 142.5t-143 58.5h-860q-82 0 -141.5 -58.5t-59.5 -142.5v-555h1061q84 0 143 58.5t59 142.5z" />
<glyph unicode="S" horiz-adv-x="1579" d="M324 1640h1038q27 0 44 -17t17 -44q0 -25 -17 -43t-44 -18h-1038q-84 0 -143.5 -58.5t-59.5 -142.5v-234q0 -84 59.5 -142t143.5 -58h778q133 0 227 -95.5t94 -228.5v-233q0 -133 -94 -228.5t-227 -95.5h-1041q-27 0 -44 17.5t-17 43.5q0 25 17.5 42.5t43.5 17.5h1041 q84 0 142.5 59.5t58.5 143.5v233q0 84 -59.5 142.5t-141.5 58.5h-778q-133 0 -228.5 95t-95.5 228v234q0 133 95.5 228t228.5 95z" />
<glyph unicode="T" horiz-adv-x="1679" d="M61 1640h1424q27 0 44 -17t17 -44q0 -25 -17.5 -43t-43.5 -18h-651v-1455q0 -27 -17.5 -44t-42.5 -17q-27 0 -44 17.5t-17 43.5v1455h-652q-27 0 -44 18t-17 43q0 27 17 44t44 17z" />
<glyph unicode="U" horiz-adv-x="1744" d="M1432 326v1253q0 27 18 44t43 17q27 0 44 -17t17 -44v-1253q0 -133 -95 -228.5t-228 -95.5h-907q-133 0 -228.5 95.5t-95.5 228.5v1253q0 27 17.5 44t43.5 17q25 0 42.5 -17t17.5 -44v-1253q0 -84 59.5 -143.5t143.5 -59.5h907q84 0 142.5 59.5t58.5 143.5z" />
<glyph unicode="V" horiz-adv-x="1449" d="M1210 1604q8 25 32 34q12 5 24 5.5t24 -5.5q23 -10 33 -32q6 -13 6 -26q0 -11 -4 -21l-596 -1520q-12 -39 -55 -39q-45 0 -58 39l-612 1520q-4 11 -4 21q0 13 6 26q10 23 33 32q11 5 23 5.5t24 -5.5q25 -10 33 -32l555 -1379z" />
<glyph unicode="W" horiz-adv-x="2553" d="M954 0h-561q-133 0 -228 94t-95 228v1257q0 25 17 43t44 18q25 0 43.5 -18t18.5 -43v-1257q0 -84 59 -142.5t141 -58.5h561q82 0 141.5 58.5t59.5 142.5v1257q0 25 17.5 43t44.5 18q25 0 43 -18t18 -43v-1257q0 -84 59.5 -142.5t141.5 -58.5h561q82 0 141.5 58.5 t59.5 142.5v1257q0 25 17 43t44 18q25 0 43 -18t18 -43v-1257q0 -133 -95 -227.5t-228 -94.5h-561q-166 0 -262 133q-99 -133 -263 -133z" />
<glyph unicode="X" horiz-adv-x="1669" d="M1397 838q133 -98 133 -263v-512q0 -27 -17.5 -44t-42.5 -17q-27 0 -44 17.5t-17 43.5v512q0 84 -59.5 142.5t-143.5 58.5h-882q-82 0 -141.5 -58.5t-59.5 -142.5v-512q0 -27 -18.5 -44t-43.5 -17q-27 0 -44 17.5t-17 43.5v512q0 164 135 263q-135 98 -135 262v479 q0 27 17.5 44t43.5 17q25 0 43.5 -17t18.5 -44v-479q0 -84 59.5 -142.5t141.5 -58.5h882q84 0 143.5 58.5t59.5 142.5v479q0 27 17.5 44t43.5 17q25 0 42.5 -17t17.5 -44v-479q0 -164 -133 -262z" />
<glyph unicode="Y" horiz-adv-x="1646" d="M1432 1640q27 0 44 -17t17 -44v-477q0 -133 -95 -228.5t-229 -95.5h-331v-715q0 -27 -17.5 -44t-42.5 -17q-27 0 -44 17.5t-17 43.5v715h-393q-133 0 -228.5 95.5t-95.5 228.5v477q0 27 17.5 44t43.5 17q25 0 43.5 -17t18.5 -44v-477q0 -82 59.5 -141.5t141.5 -59.5h845 q84 0 142.5 59.5t58.5 141.5v477q0 27 18.5 44t43.5 17z" />
<glyph unicode="Z" horiz-adv-x="1564" d="M61 1638h1299q41 0 55 -34q6 -12 6 -27q0 -25 -14 -39l-1212 -1415h1210q27 0 44 -18.5t17 -43.5q0 -27 -17 -44t-44 -17h-1344q-37 0 -55 35q-6 12 -6 26q0 25 14 39l1215 1416h-1168q-25 0 -43 17t-18 44q0 25 18 43t43 18z" />
<glyph unicode="[" horiz-adv-x="186" d="M113 1749q25 0 42 -17.5t17 -42t-17.5 -42t-41.5 -17.5h-115v-1777h115q25 0 42 -17.5t17 -42t-17.5 -42t-41.5 -17.5h-174q-25 0 -42.5 17.5t-17.5 41.5v1897q0 25 17.5 42t42.5 17h174z" />
<glyph unicode="\" horiz-adv-x="950" d="M106 1610l674 -1516q27 -57 -18 -84q-20 -14 -47 -9t-37 28l-674 1515q-27 55 19 84q20 14 47.5 9.5t35.5 -27.5z" />
<glyph unicode="]" horiz-adv-x="186" d="M-113 1749h174q25 0 42.5 -17.5t17.5 -41.5v-1897q0 -25 -17.5 -42t-42.5 -17h-174q-25 0 -42 17.5t-17 42t17.5 42t41.5 17.5h115v1777h-115q-25 0 -42 17.5t-17 42t17 42t42 17.5z" />
<glyph unicode="^" horiz-adv-x="817" d="M379 1649l274 -369q14 -18 11.5 -42t-21 -38t-41 -10t-37.5 20l-231 314l-223 -314q-39 -41 -80 -10q-18 14 -21.5 38t10.5 42l269 369q18 23 45 22q29 1 45 -22z" />
<glyph unicode="_" horiz-adv-x="925" d="M807 2h-739q-25 0 -43.5 17.5t-18.5 41.5q0 27 18.5 44.5t43.5 17.5h739q25 0 42 -17.5t17 -44.5q0 -25 -17 -42t-42 -17z" />
<glyph unicode="`" d="M319 1423q20 16 47 14.5t44 -22.5l120 -141q16 -20 15.5 -47t-21 -43.5t-47 -15.5t-43.5 22l-121 141q-39 49 6 92z" />
<glyph unicode="a" horiz-adv-x="1449" d="M72 1067h880q133 0 225.5 -93t92.5 -224v-431q0 -131 -92.5 -224t-223.5 -93h-637q-131 0 -224 93t-93 224.5t93 224.5t226 93h832v113q0 82 -58.5 140t-140.5 58h-880q-27 0 -44.5 17.5t-17.5 42t17.5 42t44.5 17.5zM121 319.5q0 -81.5 57.5 -139t138.5 -57.5h637 q82 0 139.5 57.5t57.5 138.5v199h-832q-82 0 -140 -58.5t-58 -140z" />
<glyph unicode="b" horiz-adv-x="1452" d="M125 1579v-514h2h2h2h2h2h2h2h2h2h2h2h3h2h2h2h2h2h2h2h2h2h2h2h2h2h2h2h2h2h2h2h2h3h2h2h2h2h2h2h2h2h2h2h2h2h2h2h2h2h2h2h2h2h3h2h2h2h2h2h2h2h2h2h2h2h2h2h2h2h2h2h2h2h2h3h2h2h2h2h2h2h2h2h2h2h2h2h2h2h2h2h2h2h2h2h3h2h2h2h2h2h2h2h2h2h2h2h2h2h2h2h2h2h2h2h2h3h2 h2h2h2h2h2h2h2h2h2h2h2h2h2h2h2h2h2h2h3h2h2h2h2h2h2h2h2h2h2h2h2h2h2h2h2h2h2h2h2h3h2h2h2h2h2h2h2h2h2h2h2h2h2h2h2h2h2h2h2h2h3h2h2h2h2h2h2h2h2h2h2h2h2h2h2h2h2h2h2h2h2h3h2h2h2h2h2h2h2h2h2h2h2h2h2h2h2h2h2h2h2h2h3h2h2h2h2h2h2h2h2h2h2h2h2h2h2h2h2h2h2h2h2h3h2h2h2 h2h2h2h2h2h2h2h2h2h2h2h2h2h2h2h2h3h2h2h2h2h2h2h2h2h2h2h2h2h2h2h2h2h2h2h2h2h3h2h2h2h2h2h2h2h2h2h2h2h2h2h2h2h2h2h2h2h2h3h2h2h2h2h2h2h2h2h2h2h2h2h2h2h2h2h2h2h2h2h3h2h2h2h2h2h2h2h2h2h2h2h2h2h2h2h2h2h2h2h2h3h2h2h2h2h2h2h2h2h2h2h2h2h2h2h2h2h2h2h2h2h3h2h2h2h2h2 h2h2h2h2h2h2h2h2h2h2h2h2h2h2h3h2h2h2h2h2h2h2h2h2h2h2h2h19q133 0 228 -95.5t95 -228.5v-415q0 -133 -95 -228.5t-228 -95.5h-635q-133 0 -228.5 95.5t-95.5 228.5v1253q0 27 17.5 44t43.5 17q25 0 43.5 -17t18.5 -44zM1163 326v415q0 84 -59.5 142.5t-142.5 58.5h-7h-6h-8 h-6h-6h-6h-7h-6h-8h-6h-6h-6h-6h-9h-6h-6h-6h-6h-6h-9h-6h-6h-6h-6h-8h-6h-7h-6h-6h-6h-8h-6h-7h-6h-6h-8h-6h-6h-6h-7h-8h-6h-6h-6h-6h-9h-6h-6h-6h-6h-8h-6h-7h-6h-8h-6h-6h-6h-7h-8h-6h-6h-6h-6h-8h-7h-6h-6h-8h-6h-6h-7h-8h-6h-6h-6h-6h-8h-7h-6h-6h-8h-6h-6h-7h-8h-6 h-6h-6h-8h-7h-6h-8h-6h-6h-6h-8h-7h-6h-6h-8h-6h-6h-9h-6h-6h-8h-6h-6h-9h-6h-6h-8h-6h-6h-8h-7h-6h-8h-6h-8h-6h-7h-20v-616q0 -84 58.5 -142.5t142.5 -58.5h635q84 0 143 58.5t59 142.5z" />
<glyph unicode="c" horiz-adv-x="1386" d="M326 1067h868q25 0 43 -17.5t18 -43.5q0 -25 -18 -43.5t-43 -18.5h-868q-84 0 -143.5 -59.5t-59.5 -143.5v-413q0 -84 59.5 -143.5t143.5 -59.5h864q27 0 44 -17.5t17 -44t-17 -44t-44 -17.5h-864q-135 0 -230.5 95.5t-95.5 230.5v413q0 135 95.5 230.5t230.5 95.5z" />
<glyph unicode="d" horiz-adv-x="1425" d="M1120 1579q0 27 17.5 44t42.5 17q27 0 44 -17t17 -44v-1253q0 -133 -95 -228.5t-228 -95.5h-594q-133 0 -228.5 95.5t-95.5 228.5v417q0 133 95 228.5t229 95.5h6h8h6h6h8h7h6h8h6h6h8h7h6h8h6h6h8h6h7h8h6h8h6h6h9h6h6h8h6h6h9h6h8h6h6h8h7h6h8h6h8h6h6h9h6h8h6h6h9h6h8 h6h6h8h6h9h6h8h6h6h8h7h8h6h8h6h8h7h6h8h6h8h6h9h6h8h6h8h6h9h6h8h6h8h9h6h8h6h8h6h9h8h6h8h8h6h9h8h6h8h8h8h9h6h8h8h8h9h10h18v512zM123 743v-417q0 -84 59.5 -142.5t141.5 -58.5h594q84 0 143 58.5t59 142.5v618h2h-2h-2h-2h-2h-2h-2h-2h-2h-2h-2h-2h-2h-2h-2h-2h-2h-3 h-2h-2h-2h-2h-2h-2h-2h-2h-2h-2h-2h-2h-2h-2h-2h-2h-2h-2h-2h-2h-3h-2h-2h-2h-2h-2h-2h-2h-2h-2h-2h-2h-2h-2h-2h-2h-2h-2h-2h-2h-2h-3h-2h-2h-2h-2h-2h-2h-2h-2h-2h-2h-2h-2h-2h-2h-2h-2h-2h-2h-2h-2h-3h-2h-2h-2h-2h-2h-2h-2h-2h-2h-2h-2h-2h-2h-2h-2h-2h-2h-2h-2h-2h-3 h-2h-2h-2h-2h-2h-2h-2h-2h-2h-2h-2h-2h-2h-2h-2h-2h-2h-2h-2h-3h-2h-2h-2h-2h-2h-2h-2h-2h-2h-2h-2h-2h-2h-2h-2h-2h-2h-2h-2h-2h-3h-2h-2h-2h-2h-2h-2h-2h-2h-2h-2h-2h-2h-2h-2h-2h-2h-2h-2h-2h-2h-3h-2h-2h-2h-2h-2h-2h-2h-2h-2h-2h-2h-2h-2h-2h-2h-2h-2h-2h-2h-2h-3h-2 h-2h-2h-2h-2h-2h-2h-2h-2h-2h-2h-2h-2h-2h-2h-2h-2h-2h-2h-2h-3h-2h-2h-2h-2h-2h-2h-2h-2h-2h-2h-2h-2h-2h-2h-2h-2h-2h-2h-2h-2h-3h-2h-2h-2h-2h-2h-2h-2h-2h-2h-2h-2h-2h-2h-2h-2h-2h-2h-2h-2h-3h-2h-2h-2h-2h-2h-2h-2h-2h-2h-2h-2h-2h-2h-2h-2h-2h-2h-2h-2h-2h-3h-2h-2 h-2h-2h-2h-2h-2h-2h-2h-2h-2h-2h-2h-2h-2h-2h-2h-2h-2h-2h-3h-2h-2h-2h-2h-2h-2h-2h-2h-2h-2h-2h-2h-2h-2h-2h-2h-2h-2h-2h-2h-3h-2h-2h-2h-2h-2h-2h-2h-2h-2h-2h-2h-2h-2h-2h-2h-2h-2h-2h-2h-2h-3h-2h-2h-2h-2h-2h-2h-2h-2h-2h-2h-2h-2h-2h-2h-2h-2h-2h-2h-2h-2h-3h-2h-2 h-2h-2h-2h-2h-2h-2h-2h-2h-2h-2h-2h-2h-2h-2h-2h-2h-2h-3h-2h-2h-2h-2h-2h-2h-2h-2h-2h-20q-82 0 -141.5 -58.5t-59.5 -142.5z" />
<glyph unicode="e" horiz-adv-x="1470" d="M322 1067h632q133 0 227.5 -94t94.5 -228v-235q0 -27 -17.5 -44t-44.5 -17h-1093v-125q0 -82 58.5 -141.5t142.5 -59.5h854q25 0 43 -17.5t18 -42.5q0 -27 -18.5 -44t-42.5 -17h-854q-133 0 -227.5 94t-94.5 228v421q0 133 94.5 227.5t227.5 94.5zM121 745v-176h1034v176 q0 82 -59.5 141.5t-141.5 59.5h-632q-84 0 -142.5 -59.5t-58.5 -141.5z" />
<glyph unicode="f" horiz-adv-x="671" d="M684 1518h-360q-82 0 -141.5 -58.5t-59.5 -142.5v-254h416q27 0 44 -17.5t17 -44.5q0 -25 -17.5 -43t-43.5 -18h-416v-877q0 -27 -18.5 -44t-43.5 -17q-27 0 -44 17.5t-17 43.5v1254q0 133 95 228t229 95h360q27 0 44 -17t17 -44q0 -25 -17 -43t-44 -18z" />
<glyph unicode="g" horiz-adv-x="1492" d="M322 129h839v612q2 84 -57.5 143.5t-142.5 59.5h-639q-84 0 -142.5 -59.5t-58.5 -143.5v-409q0 -84 58.5 -143.5t142.5 -59.5zM961 -573h-811q-27 0 -44.5 17t-17.5 42q0 27 17.5 44t44.5 17h811q84 0 143 60.5t57 142.5v258h-839q-133 0 -228.5 94.5t-95.5 229.5v409 q0 135 95 230.5t229 95.5h639q133 0 228 -95t95 -231v-991q0 -133 -95 -228t-228 -95z" />
<glyph unicode="h" horiz-adv-x="1406" d="M119 750v-689q0 -25 -17.5 -42t-42 -17t-42 17.5t-17.5 41.5v1520q0 25 17.5 42t42 17t42 -17t17.5 -42v-584q90 70 196 70h598q131 0 223.5 -93t92.5 -224v-689q0 -25 -17.5 -42t-42 -17t-42 17.5t-17.5 41.5v689q0 82 -57.5 139t-139.5 57h-598q-82 0 -139 -57 t-57 -139z" />
<glyph unicode="i" horiz-adv-x="321" d="M61 1067q25 0 43.5 -17.5t18.5 -41.5v-945q0 -27 -18.5 -44t-43.5 -17q-27 0 -44 17.5t-17 43.5v945q0 25 17 42t44 17zM0 1198v72q0 27 17.5 44t43.5 17q25 0 43.5 -17.5t18.5 -43.5v-72q0 -25 -18.5 -43t-43.5 -18q-27 0 -44 18t-17 43z" />
<glyph unicode="j" horiz-adv-x="444" d="M244 1006v-1254q0 -133 -95.5 -228t-228.5 -95h-203q-27 0 -44 17t-17 44q0 25 17.5 43t43.5 18h203q84 0 142.5 58.5t58.5 142.5v1254q0 27 17.5 44t43.5 17q25 0 43.5 -17t18.5 -44zM125 1198v72q0 27 18.5 44t42.5 17q27 0 44.5 -17.5t17.5 -43.5v-72q0 -25 -17.5 -43 t-44.5 -18q-25 0 -43 18t-18 43z" />
<glyph unicode="k" horiz-adv-x="1335" d="M1153 1006v-162q0 -166 -135 -264q135 -100 135 -265v-252q0 -25 -18.5 -43t-43 -18t-43 18.5t-18.5 42.5v252q0 84 -59.5 142.5t-143.5 58.5h-704v-453q0 -25 -17.5 -43t-44.5 -18q-25 0 -43 18.5t-18 42.5v1516q0 25 18.5 43t42.5 18q27 0 44.5 -18t17.5 -43v-938h704 q84 0 143.5 59.5t59.5 143.5v162q0 27 18.5 44t43 17t43 -17t18.5 -44z" />
<glyph unicode="l" horiz-adv-x="747" d="M0 326v1253q0 27 17.5 44t43.5 17q25 0 43.5 -17t18.5 -44v-1253q0 -84 59.5 -142.5t141.5 -58.5h202q25 0 43.5 -18.5t18.5 -43t-18.5 -43t-43.5 -18.5h-202q-133 0 -228.5 95.5t-95.5 228.5z" />
<glyph unicode="m" horiz-adv-x="2197" d="M1260 1067h426q137 0 233 -98.5t96 -233.5v-674q0 -25 -17.5 -42t-44 -17t-44 17.5t-17.5 41.5v674q0 86 -59 144.5t-147 58.5h-426q-82 0 -139.5 -59.5t-57.5 -143.5v-674q0 -20 -17.5 -36.5t-41.5 -20.5q-2 -2 -11 -2q-27 0 -44 17.5t-17 41.5v674q0 84 -58.5 143.5 t-142.5 59.5h-409q-82 0 -140.5 -59.5t-58.5 -143.5v-674q0 -25 -19.5 -42t-44 -17t-42 17.5t-17.5 41.5v674q0 135 95 233.5t227 98.5h409q160 0 262 -141q117 141 267 141z" />
<glyph unicode="n" horiz-adv-x="1392" d="M61 1067h795q135 0 229.5 -95t94.5 -229v-680q0 -27 -17.5 -44t-44.5 -17q-25 0 -42 17.5t-17 43.5v680q0 84 -59.5 142.5t-143.5 58.5h-6h-8h-6h-9h-6h-8h-6h-8h-6h-9h-6h-8h-6h-8h-6h-9h-6h-8h-6h-8h-6h-9h-6h-8h-8h-6h-8h-7h-8h-6h-8h-6h-9h-6h-8h-8h-6h-8h-7h-8h-6 h-8h-8h-6h-9h-6h-8h-8h-6h-8h-9h-6h-8h-6h-8h-8h-7h-8h-8h-8h-6h-9h-8h-6h-8h-8h-8h-7h-8h-8h-8h-6h-9h-8h-8h-8h-8h-8h-9h-6h-8h-8h-8h-11h-8h-8h-8h-8h-9h-10h-8h-10h-10h-11h-16v-881q0 -27 -18.5 -44t-43.5 -17q-27 0 -44 17.5t-17 43.5v943q0 25 17 42t44 19z" />
<glyph unicode="o" horiz-adv-x="1585" d="M324 1067h774q133 0 228 -95t95 -229v-417q0 -133 -95 -228.5t-228 -95.5h-774q-133 0 -228.5 95.5t-95.5 228.5v417q0 133 95.5 228.5t228.5 95.5zM123 743v-417q0 -84 59.5 -142.5t141.5 -58.5h774q82 0 141 58.5t59 142.5v417q0 84 -59 142.5t-141 58.5h-774 q-82 0 -141.5 -58.5t-59.5 -142.5z" />
<glyph unicode="p" horiz-adv-x="1449" d="M125 -510q0 -27 -18.5 -44t-43.5 -17q-27 0 -44 17t-17 44v1253q0 133 95.5 228.5t228.5 95.5h628q133 0 228.5 -95t95.5 -229v-415q0 -133 -95.5 -228.5t-228.5 -95.5h-6h-6h-8h-6h-6h-7h-6h-8h-6h-6h-6h-6h-9h-6h-6h-6h-6h-8h-7h-6h-6h-8h-6h-6h-6h-7h-8h-6h-6h-6h-6 h-9h-6h-6h-6h-8h-6h-6h-7h-6h-8h-6h-6h-6h-9h-6h-6h-6h-8h-6h-7h-6h-6h-8h-6h-6h-6h-9h-6h-6h-6h-8h-6h-7h-6h-8h-6h-6h-6h-8h-7h-6h-8h-6h-6h-6h-9h-6h-6h-6h-8h-6h-6h-9h-6h-6h-6h-8h-6h-7h-8h-6h-6h-8h-6h-7h-8h-6h-6h-8h-6h-7h-8h-6h-6h-8h-6h-9h-6h-6h-8h-6h-8h-6h-7 h-8h-6h-8h-6h-8h-7h-18v-514zM1157 328v415q0 84 -59.5 142.5t-143.5 58.5h-628q-84 0 -142.5 -58.5t-58.5 -142.5v-616h2h2h2h2h2h2h2h2h2h2h2h3h2h2h2h2h2h2h2h2h2h2h2h2h2h2h2h2h2h2h2h2h3h2h2h2h2h2h2h2h2h2h2h2h2h2h2h2h2h2h2h2h2h3h2h2h2h2h2h2h2h2h2h2h2h2h2h2h2h2h2 h2h2h2h3h2h2h2h2h2h2h2h2h2h2h2h2h2h2h2h2h2h2h2h2h3h2h2h2h2h2h2h2h2h2h2h2h2h2h2h2h2h2h2h2h2h3h2h2h2h2h2h2h2h2h2h2h2h2h2h2h2h2h2h2h2h3h2h2h2h2h2h2h2h2h2h2h2h2h2h2h2h2h2h2h2h2h3h2h2h2h2h2h2h2h2h2h2h2h2h2h2h2h2h2h2h2h2h3h2h2h2h2h2h2h2h2h2h2h2h2h2h2h2h2h2h2h2 h2h3h2h2h2h2h2h2h2h2h2h2h2h2h2h2h2h2h2h2h2h2h3h2h2h2h2h2h2h2h2h2h2h2h2h2h2h2h2h2h2h2h2h3h2h2h2h2h2h2h2h2h2h2h2h2h2h2h2h2h2h2h2h3h2h2h2h2h2h2h2h2h2h2h2h2h2h2h2h2h2h2h2h2h3h2h2h2h2h2h2h2h2h2h2h2h2h2h2h2h2h2h2h2h2h3h2h2h2h2h2h2h2h2h2h2h2h2h2h2h2h2h2h2h2h2h3 h2h2h2h2h2h2h2h2h2h2h2h2h2h2h2h2h2h2h2h2h3h2h2h2h2h2h2h2h2h2h2h2h2h2h2h2h2h2h2h2h2h3h2h2h2h2h2h2h2h2h2h2h2h2h2h2h2h2h2h2h2h3h2h2h2h2h2h2h2h2h20q84 0 143.5 58.5t59.5 142.5z" />
<glyph unicode="q" horiz-adv-x="1449" d="M1163 -510v514h-2h-2h-2h-2h-2h-2h-2h-2h-2h-2h-2h-2h-2h-2h-2h-3h-2h-2h-2h-2h-2h-2h-2h-2h-2h-2h-2h-2h-2h-2h-2h-2h-2h-2h-2h-2h-3h-2h-2h-2h-2h-2h-2h-2h-2h-2h-2h-2h-2h-2h-2h-2h-2h-2h-2h-2h-2h-3h-2h-2h-2h-2h-2h-2h-2h-2h-2h-2h-2h-2h-2h-2h-2h-2h-2h-2h-2h-2h-3 h-2h-2h-2h-2h-2h-2h-2h-2h-2h-2h-2h-2h-2h-2h-2h-2h-2h-2h-2h-2h-3h-2h-2h-2h-2h-2h-2h-2h-2h-2h-2h-2h-2h-2h-2h-2h-2h-2h-2h-2h-2h-3h-2h-2h-2h-2h-2h-2h-2h-2h-2h-2h-2h-2h-2h-2h-2h-2h-2h-2h-2h-3h-2h-2h-2h-2h-2h-2h-2h-2h-2h-2h-2h-2h-2h-2h-2h-2h-2h-2h-2h-2h-3h-2 h-2h-2h-2h-2h-2h-2h-2h-2h-2h-2h-2h-2h-2h-2h-2h-2h-2h-2h-2h-3h-2h-2h-2h-2h-2h-2h-2h-2h-2h-2h-2h-2h-2h-2h-2h-2h-2h-2h-2h-2h-3h-2h-2h-2h-2h-2h-2h-2h-2h-2h-2h-2h-2h-2h-2h-2h-2h-2h-2h-2h-2h-3h-2h-2h-2h-2h-2h-2h-2h-2h-2h-2h-2h-2h-2h-2h-2h-2h-2h-2h-2h-2h-3h-2 h-2h-2h-2h-2h-2h-2h-2h-2h-2h-2h-2h-2h-2h-2h-2h-2h-2h-2h-3h-2h-2h-2h-2h-2h-2h-2h-2h-2h-2h-2h-2h-2h-2h-2h-2h-2h-2h-2h-2h-3h-2h-2h-2h-2h-2h-2h-2h-2h-2h-2h-2h-2h-2h-2h-2h-2h-2h-2h-2h-2h-3h-2h-2h-2h-2h-2h-2h-2h-2h-2h-2h-2h-2h-2h-2h-2h-2h-2h-2h-2h-2h-3h-2h-2 h-2h-2h-2h-2h-2h-2h-2h-2h-2h-2h-2h-2h-2h-2h-2h-2h-2h-2h-3h-2h-2h-2h-2h-2h-2h-2h-2h-2h-2h-2h-2h-2h-2h-2h-2h-2h-2h-2h-2h-3h-2h-2h-2h-2h-2h-2h-2h-2h-2h-2h-2h-2h-2h-2h-2h-2h-2h-2h-2h-3h-2h-2h-2h-2h-2h-2h-2h-2h-2h-18q-133 0 -228.5 95.5t-95.5 228.5v415 q0 133 95.5 228.5t228.5 95.5h635q133 0 228 -95t95 -229v-1253q0 -27 -17.5 -44t-43.5 -17q-25 0 -42.5 17t-17.5 44zM125 743v-415q0 -82 58.5 -141.5t142.5 -59.5h6h6h8h6h6h7h6h6h8h6h6h6h7h6h8h6h6h6h7h6h8h6h6h6h6h9h6h6h6h6h6h9h6h6h6h6h8h6h7h6h6h6h8h6h6h7h6h8h6h6 h6h7h8h6h6h6h6h9h6h6h6h6h8h6h7h6h8h6h6h6h6h9h6h6h6h8h6h7h6h6h8h6h6h6h9h6h6h6h8h6h7h6h8h6h6h6h9h6h6h6h8h6h6h9h6h6h6h8h6h7h8h6h6h8h6h7h8h6h6h8h6h9h6h6h18v616q0 84 -59.5 142.5t-142.5 58.5h-635q-84 0 -142.5 -58.5t-58.5 -142.5z" />
<glyph unicode="r" horiz-adv-x="1304" d="M313 1067h551q131 0 222.5 -92t91.5 -221q0 -25 -17.5 -42.5t-42.5 -17.5q-23 0 -40 17.5t-17 42.5q0 82 -57.5 138t-139.5 56h-551q-80 0 -137 -56t-57 -138v-693q0 -25 -17.5 -42t-42 -17t-42 17.5t-17.5 41.5v693q0 129 92 221t221 92z" />
<glyph unicode="s" horiz-adv-x="1472" d="M338 1067h866q25 0 43.5 -18.5t18.5 -43t-18.5 -43t-43.5 -18.5h-866q-88 0 -152.5 -52t-64.5 -122t64.5 -122t152.5 -52h610q139 0 238.5 -86t99.5 -209t-99.5 -211t-238.5 -88h-885q-25 0 -42 17.5t-17 43.5q0 25 17.5 42.5t41.5 17.5h885q86 0 150.5 53t64.5 125 t-63.5 123t-151.5 51h-610q-139 0 -238.5 87t-99.5 208q0 123 99.5 210t238.5 87z" />
<glyph unicode="t" horiz-adv-x="747" d="M324 125h217q27 0 44 -18.5t17 -43.5q0 -27 -17.5 -44t-43.5 -17h-217q-133 0 -228.5 95.5t-95.5 228.5v1253q0 27 17.5 44t43.5 17q25 0 43.5 -17t18.5 -44v-510h416q27 0 44 -17.5t17 -43.5q0 -25 -17.5 -42.5t-43.5 -17.5h-416v-622q0 -84 59.5 -142.5t141.5 -58.5z " />
<glyph unicode="u" horiz-adv-x="1398" d="M1159 2h-835q-133 0 -228.5 95.5t-95.5 228.5v680q0 25 17.5 43t43.5 18q25 0 43.5 -18.5t18.5 -42.5v-680q0 -84 59.5 -142.5t141.5 -58.5h6h8h6h6h6h9h6h6h8h6h6h6h9h6h6h8h6h6h9h6h6h6h8h6h7h8h6h6h8h6h6h9h6h6h8h6h6h9h6h6h8h6h6h9h6h6h8h6h6h9h6h6h8h6h6h9h6h6h8h6 h8h6h7h8h6h6h8h6h9h6h6h8h6h8h7h8h6h6h8h6h9h6h8h6h8h6h9h6h8h6h8h6h9h6h8h6h8h6h9h8h6h8h8h6h9h8h8h8h8h15q-1 237 -1 456.5t1 422.5q0 25 17.5 43t41.5 18q27 0 44.5 -18.5t17.5 -42.5v-941q0 -25 -17.5 -43t-44.5 -18z" />
<glyph unicode="v" horiz-adv-x="1427" d="M1178 1042q12 23 36 30q9 3 18 3q15 0 30 -8q23 -12 28 -37q2 -8 2 -16q0 -16 -8 -31l-526 -952q-16 -31 -53 -31h-111q-37 0 -53 31l-533 952q-8 15 -8 31q0 8 2 16q6 25 29 37q14 8 29 8q9 0 18 -3q25 -7 37 -30l514 -919h39z" />
<glyph unicode="w" horiz-adv-x="2048" d="M682 2h-356q-133 0 -228.5 95.5t-95.5 228.5v680q0 27 17.5 44t43.5 17q25 0 43.5 -17.5t18.5 -43.5v-680q0 -84 58.5 -142.5t142.5 -58.5h356q84 0 142.5 58.5t58.5 142.5v680q0 27 17.5 44t43.5 17q25 0 43.5 -17.5t18.5 -43.5v-680q0 -84 58 -142.5t142 -58.5h336 q84 0 142.5 58.5t58.5 142.5v680q0 27 17.5 44t43.5 17q25 0 43.5 -17.5t18.5 -43.5v-680q0 -133 -95.5 -228.5t-228.5 -95.5h-336q-168 0 -262 135q-98 -135 -262 -135z" />
<glyph unicode="x" horiz-adv-x="1449" d="M1110 514q133 -98 133 -262v-189q0 -27 -17.5 -44t-41.5 -17q-27 0 -44.5 17.5t-17.5 43.5v189q0 84 -59 142.5t-143 58.5h-596q-82 0 -141.5 -58.5t-59.5 -142.5v-189q0 -27 -18.5 -44t-43.5 -17q-27 0 -44 17.5t-17 43.5v189q0 164 135 262q-135 98 -135 262v230 q0 27 17.5 44t43.5 17q25 0 43.5 -17.5t18.5 -43.5v-230q0 -84 59.5 -142.5t141.5 -58.5h596q84 0 143 58.5t59 142.5v230q0 27 17.5 44t44.5 17q25 0 42 -17.5t17 -43.5v-230q0 -164 -133 -262z" />
<glyph unicode="y" horiz-adv-x="1429" d="M1257 1006v-1252q0 -135 -95 -229t-228 -94h-774q-27 0 -44.5 17t-17.5 42q0 27 17.5 44t44.5 17h774q84 0 142.5 59.5t58.5 143.5v318q-88 -72 -201 -72h-610q-133 0 -228.5 95t-95.5 229v682q0 27 17.5 44t43.5 17q25 0 43.5 -17.5t18.5 -43.5v-682q0 -82 59.5 -141.5 t141.5 -59.5h610q82 0 141.5 59.5t59.5 141.5v682q0 27 17 44t44 17q25 0 43 -17t18 -44z" />
<glyph unicode="z" horiz-adv-x="1406" d="M1200 1067h3q36 0 48 -46q4 -15 4 -28q0 -27 -18 -43l-1004 -835h969q23 0 39 -17.5t16 -40.5q0 -25 -16 -41t-39 -16h-1139h-4q-20 0 -39 15q-20 17 -20 40q0 33 25 51l1011 842h-970q-27 0 -45.5 16.5t-18.5 43.5q0 25 17.5 42t43.5 17h1137z" />
<glyph unicode="{" horiz-adv-x="724" d="M492 -59q23 0 41 -18.5t18 -43t-18.5 -42t-40.5 -17.5h-168q-133 0 -228.5 94t-95.5 227v633v8h-74q-27 0 -46 18.5t-19 43.5q0 27 18.5 43t46.5 16h74v533q0 133 95 227t229 94h168q25 0 42 -16.5t17 -44.5q0 -25 -18.5 -42.5t-40.5 -17.5h-168q-84 0 -142.5 -58 t-58.5 -142v-1295q0 -84 58.5 -142t142.5 -58h168z" />
<glyph unicode="|" horiz-adv-x="241" d="M0 -326v1905q0 27 17.5 44t43.5 17q25 0 43.5 -17t18.5 -44v-1905q0 -27 -18.5 -44t-43.5 -17q-27 0 -44 17t-17 44z" />
<glyph unicode="}" horiz-adv-x="724" d="M63 -59h168q84 0 142.5 58t58.5 142v1295q0 84 -58.5 142t-142.5 58h-168q-23 0 -41 17.5t-18 42.5q0 29 17.5 45t41.5 16h168q133 0 228.5 -94t95.5 -227v-533h74q29 0 47 -16.5t18 -42.5q0 -25 -19.5 -43.5t-45.5 -18.5h-74v-8v-633q0 -133 -95 -227t-229 -94h-168 q-23 0 -41 17.5t-18 42t18 43t41 18.5z" />
<glyph unicode="~" horiz-adv-x="1492" d="M238 371q223 123 430 32q84 -37 179 -32.5t173 47.5q25 14 51.5 6t40.5 -32.5t6 -51.5t-33 -41q-106 -57 -233 -63.5t-240 40.5q-143 63 -309 -24q-25 -14 -52.5 -6t-39.5 33q-14 25 -6 51.5t33 40.5z" />
<glyph unicode="&#xa1;" horiz-adv-x="206" d="M0 59v1188q0 27 17.5 44.5t43.5 17.5q25 0 43.5 -17.5t18.5 -44.5v-1188q0 -27 -18.5 -44t-43.5 -17q-27 0 -44 17t-17 44zM0 1493v82q0 27 17.5 44t43.5 17q25 0 43.5 -17t18.5 -44v-82q0 -27 -18.5 -44t-43.5 -17q-27 0 -44 17t-17 44z" />
<glyph unicode="&#xa2;" horiz-adv-x="1193" d="M328 131h702q27 0 44.5 -17.5t17.5 -44t-17.5 -44t-44.5 -17.5h-342v-174q0 -27 -17.5 -44t-43.5 -17q-25 0 -43.5 17t-18.5 44v174h-237q-135 0 -231.5 95.5t-96.5 230.5v405q0 135 96.5 230.5t231.5 95.5h237v184q0 27 18.5 44.5t43.5 17.5q27 0 44 -17.5t17 -44.5 v-184h342q25 0 43.5 -17.5t18.5 -44t-18.5 -44t-43.5 -17.5h-702q-84 0 -144.5 -59.5t-60.5 -143.5v-405q0 -84 60.5 -143.5t144.5 -59.5z" />
<glyph unicode="&#xa3;" horiz-adv-x="1110" />
<glyph unicode="&#xa4;" horiz-adv-x="1366" d="M1155 1260l94 -95l-151 -149q6 -6 17 -22.5t18 -24.5q20 -31 34 -68q18 -49 29 -90q12 -53 12 -119t-12 -117q-12 -47 -31 -90q-20 -43 -39 -67l-30 -45l151 -154l-94 -92l-149 154l-62 -41q-31 -23 -68 -37t-83 -25q-41 -8 -109 -8q-55 0 -107 10q-45 8 -81 25 q-43 18 -70 35q-20 12 -62 41l-151 -150l-92 92l151 150l-43 65q-23 37 -34 70q-18 45 -27 84q-8 41 -8 104q0 61 12 115q12 47 31 90q16 41 37 68q27 39 32 47l-149 149l92 92l149 -149q4 2 56 39q37 23 69 35q49 18 88 28q55 10 111 11q59 0 113 -13q43 -8 88 -28 q39 -16 67 -37q8 -6 25.5 -16.5t26.5 -16.5zM686 291q82 0 156 31q72 29 125 84q51 51 86 126q31 74 30 164q0 94 -32 168q-35 78 -88 127q-55 51 -127 80q-74 29 -148 29q-78 0 -153 -29q-68 -25 -132 -82q-55 -51 -88 -127q-33 -74 -32 -168q0 -84 30 -157q31 -72 84 -129 q53 -51 129 -86q74 -31 160 -31z" />
<glyph unicode="&#xa5;" horiz-adv-x="1646" d="M717 311h-283q-27 0 -44 17.5t-17 42.5q0 27 17.5 44t43.5 17h283v74h-289q-27 0 -44 17.5t-17 41.5q0 27 17 44.5t44 17.5h289v112h-393q-133 0 -228.5 95.5t-95.5 228.5v516q0 27 17.5 44t43.5 17q25 0 43.5 -17t18.5 -44v-516q0 -84 59.5 -142.5t141.5 -58.5h845 q84 0 142.5 58.5t58.5 142.5v516q0 27 18.5 44t43.5 17q27 0 44 -17t17 -44v-516q0 -133 -95 -228.5t-229 -95.5h-331v-112h266q27 0 44 -17.5t17 -44.5q0 -25 -17.5 -42t-43.5 -17h-266v-74h272q27 0 44 -17.5t17 -43.5q0 -25 -17 -42.5t-44 -17.5h-272v-248 q0 -27 -17.5 -44t-42.5 -17q-27 0 -44 17.5t-17 43.5v248z" />
<glyph unicode="&#xa6;" d="M0 -330v600q0 27 17.5 44.5t43.5 17.5q25 0 43.5 -17.5t18.5 -44.5v-600q0 -27 -18.5 -44t-43.5 -17q-27 0 -44 17t-17 44zM0 686v600q0 27 17.5 44.5t43.5 17.5q25 0 43.5 -17.5t18.5 -44.5v-600q0 -27 -18.5 -44t-43.5 -17q-27 0 -44 17t-17 44z" />
<glyph unicode="&#xa7;" horiz-adv-x="1024" />
<glyph unicode="&#xa8;" d="M82 1219v71q0 27 17.5 44.5t43.5 17.5q25 0 43.5 -17.5t18.5 -44.5v-71q0 -25 -18.5 -43.5t-43.5 -18.5q-27 0 -44 18.5t-17 43.5zM573 1219v71q0 27 17.5 44.5t44.5 17.5q25 0 43 -17.5t18 -44.5v-71q0 -25 -18.5 -43.5t-42.5 -18.5q-27 0 -44.5 18.5t-17.5 43.5z" />
<glyph unicode="&#xa9;" horiz-adv-x="1705" d="M1458 930q0 -213 -117 -400q-92 -143 -254.5 -234t-359.5 -91q-293 0 -510 206.5t-217 520.5q0 307 212 519t519 212q305 0 516 -211t211 -522zM1393 930q2 274 -187.5 470.5t-474.5 196.5q-276 0 -470.5 -193.5t-194.5 -473.5q0 -272 192.5 -466t472.5 -194 q268 0 464 186.5t198 473.5zM1038 729l86 -74q-68 -84 -139 -125q-115 -68 -246 -67q-190 0 -329.5 131t-139.5 342q0 199 135.5 337t339.5 138q221 0 379 -190l-86 -78q-37 43 -64.5 67.5t-91 55t-134.5 30.5q-150 0 -254.5 -102t-104.5 -254q0 -160 106.5 -261t252.5 -101 q159 -1 290 151z" />
<glyph unicode="&#xaa;" horiz-adv-x="724" />
<glyph unicode="&#xab;" horiz-adv-x="980" />
<glyph unicode="&#xac;" horiz-adv-x="1366" />
<glyph unicode="&#xad;" horiz-adv-x="702" d="M498 528h-430q-27 0 -44.5 17.5t-17.5 42.5q0 27 17.5 44t44.5 17h430q27 0 44 -17.5t17 -43.5q0 -25 -17 -42.5t-44 -17.5z" />
<glyph unicode="&#xae;" horiz-adv-x="1705" d="M541 1268h280q158 0 213 -21q68 -27 104 -83t36 -124q0 -90 -57.5 -147t-147.5 -72q72 -27 102.5 -70.5t44.5 -129.5q12 -86 17.5 -115t17.5 -70t33 -80h-154q-20 43 -37 125q-2 10 -11 72.5t-11 73.5q-18 94 -69.5 122.5t-162.5 30.5h-65v-424h-133v912zM676 1165v-278 h153q209 0 209 143q0 63 -43 100q-27 25 -63.5 30t-130.5 5h-125zM1565 805q-2 -303 -213 -514t-521 -211q-293 0 -510 207t-217 522q0 311 215.5 520t514.5 209q313 0 523 -215t208 -518zM1499 807q2 276 -188.5 471t-472.5 195q-281 0 -474.5 -195t-193.5 -469 q0 -279 194.5 -471.5t469.5 -192.5q281 0 472 191.5t193 470.5z" />
<glyph unicode="&#xaf;" d="M641 1196h-573q-27 0 -44.5 17.5t-17.5 41.5q0 27 17.5 44.5t44.5 17.5h573q27 0 44 -17.5t17 -44.5q0 -25 -17 -42t-44 -17z" />
<glyph unicode="&#x2c9;" d="M641 1196h-573q-27 0 -44.5 17.5t-17.5 41.5q0 27 17.5 44.5t44.5 17.5h573q27 0 44 -17.5t17 -44.5q0 -25 -17 -42t-44 -17z" />
<glyph unicode="&#xb0;" horiz-adv-x="724" d="M362 1532q63 0 119 -25q51 -20 94 -63q41 -41 66 -96q23 -57 23 -117q0 -61 -25 -117q-20 -53 -64 -96q-41 -41 -96 -66q-55 -23 -116.5 -22.5t-116.5 24.5q-53 20 -96 64q-41 41 -66 96q-23 57 -23 117q0 63 25 119q20 51 64 94q41 41 96 65q57 23 116 23zM362.5 1409 q-73.5 0 -126.5 -53q-51 -51 -52 -125q0 -76 51.5 -127t126.5 -51q74 0 127 53q51 51 51.5 125t-53.5 127q-51 51 -124.5 51z" />
<glyph unicode="&#xb1;" horiz-adv-x="1024" d="M961 700h-386v-389h-120v389h-392v121h392v389h120v-389h386v-121zM63 121h898v-121h-898v121z" />
<glyph unicode="&#xb2;" horiz-adv-x="681" d="M668 598v-90h-578v86q141 88 281 203q106 88 163.5 164.5t57.5 179.5q0 96 -58.5 148t-148.5 52q-98 0 -150.5 -58t-52.5 -130q0 -78 76 -164l-135 17q-35 84 -35 155q0 123 84 196t215 73q150 0 229.5 -83t79.5 -210q0 -147 -116.5 -272.5t-323.5 -266.5h412z" />
<glyph unicode="&#xb3;" horiz-adv-x="681" d="M498 1020l14 -4q143 -47 143 -211q0 -121 -83 -198t-222 -77q-201 0 -280 152q-25 47 -37 135l106 37v-44q0 -19 11.5 -57t31 -63.5t63.5 -46t105 -20.5q92 0 146.5 44t54.5 130q0 84 -49 129q-47 45 -172 45h-133v90h116q41 0 68 3t69 15.5t64.5 47t22.5 87.5 q0 72 -49.5 119t-135.5 47q-82 0 -138 -51t-54 -147l-113 28q10 43 23.5 75t45 80t92 75.5t144.5 27.5q121 0 203 -65.5t82 -190.5q0 -153 -139 -192z" />
<glyph unicode="&#xb4;" d="M500 1423q45 -43 6 -92l-121 -141q-16 -20 -43 -21.5t-47.5 15t-21.5 43t16 47.5l121 141q16 20 43 22t47 -14z" />
<glyph unicode="&#xb5;" horiz-adv-x="1024" />
<glyph unicode="&#x3bc;" horiz-adv-x="1024" />
<glyph unicode="&#xb6;" horiz-adv-x="1366" d="M635 1446h452v-90h-67v-1698h-94v1698h-322v-1698h-94v1018q-45 8 -111 29q-55 14 -118 81q-55 61 -74 125q-23 74 -23 138q0 47 17 118q14 66 63 127q41 53 90 84q45 29 99 45q49 14 96 19q61 4 86 4z" />
<glyph unicode="&#xb7;" d="M235.5 350q-75.5 0 -129 53.5t-53.5 129t53.5 129t129 53.5t129 -53.5t53.5 -129t-53.5 -129t-129 -53.5z" />
<glyph unicode="&#x2219;" d="M235.5 350q-75.5 0 -129 53.5t-53.5 129t53.5 129t129 53.5t129 -53.5t53.5 -129t-53.5 -129t-129 -53.5z" />
<glyph unicode="&#xb8;" d="M63 39q23 0 42.5 -18.5t19.5 -43.5v-147q0 -18 -21 -43q-25 -20 -41 -20q-25 0 -40 -15.5t-15 -36.5q0 -27 22.5 -49t59.5 -16q25 4 43.5 -15.5t18.5 -44.5q0 -27 -18.5 -44t-43.5 -17q-80 0 -141.5 49t-63.5 137q-2 55 31 100.5t84 65.5v96q0 25 17 43.5t46 18.5z" />
<glyph unicode="&#xb9;" horiz-adv-x="681" d="M467 1448v-905h-98v706l-9 -4q-61 -25 -151 -20v88q57 0 93 11t49.5 34.5t16.5 41t1 48.5h98z" />
<glyph unicode="&#xba;" horiz-adv-x="681" d="M33 1106q0 59 20 121q20 66 58 114q37 51 96 86t135 35q74 0 131 -32q59 -33 96 -82q37 -45 60 -115q20 -61 20 -129q0 -70 -22 -137q-20 -59 -64 -113q-39 -49 -98 -80q-61 -29 -127 -29q-74 0 -133 35q-51 31 -96 88q-37 51 -58 115q-18 66 -18 123zM408 870v453 q0 45 -9 72q-10 29 -59 28q-47 0 -57 -28q-8 -25 -9 -72v-453v-28q0 -14 7 -29q8 -14 20 -22q14 -8 39 -8.5t39 8t20 22.5q6 12 7 29q2 10 2 28z" />
<glyph unicode="&#xbb;" horiz-adv-x="980" d="M463 559l-369 -274q-18 -14 -41.5 -11.5t-38 21t-10.5 41t21 37.5l313 231l-313 223q-41 39 -11 80q14 18 38 21.5t42 -10.5l369 -269q23 -18 22 -45q1 -29 -22 -45zM791 559l-369 -274q-18 -14 -42 -11.5t-38 21t-10 41t20 37.5l314 231l-314 223q-41 39 -10 80 q14 18 37.5 21.5t42.5 -10.5l369 -269q23 -18 22 -45q1 -29 -22 -45z" />
<glyph unicode="&#xbc;" horiz-adv-x="1792" d="M467 1448v-905h-98v706l-9 -4q-61 -25 -151 -20v88q57 0 93 11t49.5 34.5t16.5 41t1 48.5h98zM1305 1495l-723 -1577l-82 39l721 1577zM1593 221v-221h-98v221h-393v78l391 606h100v-594h138v-90h-138zM1219 311h276v422z" />
<glyph unicode="&#xbd;" horiz-adv-x="1792" d="M469 1448v-905h-98v706l-9 -4q-61 -25 -151 -20v88q57 0 93 11t49.5 34.5t16.5 41t1 48.5h98zM1260 1495l-723 -1575l-82 37l721 1577zM1688 90v-90h-578v86q141 88 281 203q106 88 163.5 164.5t57.5 179.5q0 96 -58.5 148.5t-148.5 52.5q-98 0 -150.5 -58.5 t-52.5 -130.5q0 -78 76 -164l-135 17q-35 84 -35 155q0 123 84 196t215 73q150 0 229.5 -83t79.5 -210q0 -147 -116.5 -272.5t-323.5 -266.5h412z" />
<glyph unicode="&#xbe;" horiz-adv-x="1792" d="M526 1016l15 -4q143 -47 143 -211q0 -121 -83 -198t-222 -77q-201 0 -281 152q-25 47 -37 135l107 37v-44q0 -19 11 -57t30.5 -64t63.5 -46.5t106 -20.5q92 0 146.5 44.5t54.5 130.5q0 84 -50 129q-47 45 -172 45h-133v90h117q41 0 67.5 3t68.5 15t64.5 47t22.5 88 q0 72 -49 119t-135 47q-82 0 -138.5 -51t-54.5 -147l-112 28q10 43 23.5 75t45 80t92 75.5t144.5 27.5q121 0 203 -65.5t82 -190.5q-1 -153 -140 -192zM1376 1495l-721 -1577l-84 39l721 1579zM1593 221v-221h-98v221h-393v78l391 606h100v-594h138v-90h-138zM1219 311h276 v422z" />
<glyph unicode="&#xbf;" horiz-adv-x="811" d="M997 0h-678q-133 0 -227 94t-94 228v84q0 133 94 228t227 95h193q82 0 140.5 58.5t58.5 142.5v274q0 27 18.5 44.5t43 17.5t43 -17.5t18.5 -44.5v-274q0 -133 -94.5 -228.5t-227.5 -95.5h-193q-82 0 -141 -59.5t-59 -140.5v-84q0 -84 59.5 -142.5t140.5 -58.5h678 q82 0 140.5 58.5t58.5 142.5v120q0 27 18.5 44.5t42.5 17.5q27 0 44.5 -17.5t17.5 -44.5v-120q0 -133 -94.5 -227.5t-227.5 -94.5zM834 1573v-154q0 -27 -17.5 -44t-44.5 -17q-25 0 -43 17.5t-18 43.5v154q0 25 18.5 43t42.5 18q27 0 44.5 -18t17.5 -43z" />
<glyph unicode="&#xc0;" horiz-adv-x="1503" d="M1135 1640h-811q-133 0 -228.5 -95t-95.5 -228v-1254q0 -27 18.5 -44t43 -17t43 17.5t18.5 43.5v713h1212v-713q0 -27 18.5 -44t43 -17t43 17.5t18.5 43.5v1254q0 133 -95 228t-228 95zM123 897v420q0 84 58.5 142.5t142.5 58.5h811q84 0 142 -58.5t58 -142.5v-420h-1212 zM588 1954q20 16 47 14t43 -22l121 -142q16 -20 15 -46.5t-21.5 -43t-47 -15.5t-43.5 21l-120 142q-39 49 6 92z" />
<glyph unicode="&#xc1;" horiz-adv-x="1525" d="M1135 1640h-811q-133 0 -228.5 -95t-95.5 -228v-1254q0 -27 18.5 -44t43 -17t43 17.5t18.5 43.5v713h1212v-713q0 -27 18.5 -44t43 -17t43 17.5t18.5 43.5v1254q0 133 -95 228t-228 95zM123 897v420q0 84 58.5 142.5t142.5 58.5h811q84 0 142 -58.5t58 -142.5v-420h-1212 zM860 1958q45 -43 6 -92l-121 -142q-16 -20 -42.5 -21t-47 15.5t-21.5 43t15 46.5l121 142q16 20 43 22t47 -14z" />
<glyph unicode="&#xc2;" horiz-adv-x="1525" d="M324 1640h811q133 0 228 -95t95 -228v-1254q0 -27 -18.5 -44t-43 -17t-43 17.5t-18.5 43.5v713h-1212v-713q0 -27 -18.5 -44t-43 -17t-43 17.5t-18.5 43.5v1254q0 133 95.5 228t228.5 95zM123 1317v-420h1212v420q0 84 -58 142.5t-142 58.5h-811q-84 0 -142.5 -58.5 t-58.5 -142.5zM766 1968l133 -174q14 -18 11 -41.5t-21.5 -38t-41 -10.5t-36.5 20l-90 119l-88 -119q-39 -41 -80 -10q-18 14 -21.5 38t11.5 42l133 174q18 23 45 23q29 0 45 -23z" />
<glyph unicode="&#xc3;" horiz-adv-x="1525" d="M324 1640h811q133 0 228 -95t95 -228v-1254q0 -27 -18.5 -44t-43 -17t-43 17.5t-18.5 43.5v713h-1212v-713q0 -27 -18.5 -44t-43 -17t-43 17.5t-18.5 43.5v1254q0 133 95.5 228t228.5 95zM123 1317v-420h1212v420q0 84 -58 142.5t-142 58.5h-811q-84 0 -142.5 -58.5 t-58.5 -142.5zM305 1837q203 113 395 29q78 -33 165 -29t159 43q23 12 48.5 5t37.5 -29.5t5 -48t-30 -38.5q-96 -53 -213.5 -58t-220.5 40q-137 59 -286 -25q-23 -12 -48.5 -4.5t-38 30t-4.5 48t31 37.5z" />
<glyph unicode="&#xc4;" horiz-adv-x="1525" d="M1135 1640h-811q-133 0 -228.5 -95t-95.5 -228v-1254q0 -27 18.5 -44t43 -17t43 17.5t18.5 43.5v713h1212v-713q0 -27 18.5 -44t43 -17t43 17.5t18.5 43.5v1254q0 133 -95 228t-228 95zM123 897v420q0 84 58.5 142.5t142.5 58.5h811q84 0 142 -58.5t58 -142.5v-420h-1212 zM406 1759v72q0 27 17 44t44 17q25 0 43 -17t18 -44v-72q0 -25 -18 -43t-43 -18q-27 0 -44 18t-17 43zM897 1759v72q0 27 17.5 44t43.5 17q25 0 43.5 -17t18.5 -44v-72q0 -25 -18.5 -43t-43.5 -18q-27 0 -44 18t-17 43z" />
<glyph unicode="&#xc5;" horiz-adv-x="1525" d="M698 1688q-39 0 -75 16q-33 12 -62 41q-27 27 -41 61q-14 39 -14 76t16 76q12 33 41 61q18 18 60 41q39 14 75 15q39 0 78 -17q33 -12 62 -41q27 -27 41 -61q14 -39 14 -74q0 -82 -57 -139q-56 -55 -138 -55zM598 1882q0 -43 31 -74q29 -29 69 -28q43 0 74 30 q29 29 29 72q0 41 -31 72q-29 29 -72 28q-41 0 -71 -30q-29 -29 -29 -70zM1135 1640h-811q-133 0 -228.5 -95t-95.5 -228v-1254q0 -27 18.5 -44t43 -17t43 17.5t18.5 43.5v713h1212v-713q0 -27 18.5 -44t43 -17t43 17.5t18.5 43.5v1254q0 133 -95 228t-228 95zM123 897v420 q0 84 58.5 142.5t142.5 58.5h811q84 0 142 -58.5t58 -142.5v-420h-1212z" />
<glyph unicode="&#xc6;" horiz-adv-x="2400" d="M1409 123h764q25 0 43 -18.5t18 -43.5q0 -27 -18 -44t-43 -17h-764q-115 0 -203 72v-13q0 -27 -18.5 -44t-43 -17t-43 17.5t-18.5 43.5v680h-960v-680q0 -27 -18.5 -44t-43 -17t-43 17.5t-18.5 43.5v1254q0 133 95 228t229 95h559q162 0 262 -135q96 137 264 137h764 q25 0 42 -17t17 -44q0 -25 -17 -43t-42 -18h-764q-82 0 -141.5 -59.5t-59.5 -141.5v-434h938q27 0 44.5 -18.5t17.5 -43t-17.5 -43t-44.5 -18.5h-938v-434q0 -82 59.5 -141.5t141.5 -59.5zM123 1313v-453h960v453q0 84 -58 142t-142 58h-559q-84 0 -142.5 -58t-58.5 -142z " />
<glyph unicode="&#xc7;" horiz-adv-x="1497" d="M1315 123q27 0 44 -18.5t17 -43.5q0 -27 -17.5 -44t-43.5 -17h-500v-137q0 -18 -20 -43q-25 -20 -41 -21q-25 0 -40.5 -15t-15.5 -36q0 -27 22.5 -49.5t59.5 -15.5q25 4 43.5 -15.5t18.5 -44.5q0 -27 -18.5 -44t-43.5 -17q-80 0 -141 49t-64 137q-2 55 31 100.5t84 65.5 v86h-366q-133 0 -228.5 95t-95.5 229v991q0 133 95 228t229 95h991q27 0 44 -17t17 -44q0 -25 -17.5 -43t-43.5 -18h-991q-82 0 -141.5 -59.5t-59.5 -141.5v-991q0 -82 59.5 -141.5t141.5 -59.5h991z" />
<glyph unicode="&#xc8;" horiz-adv-x="1462" d="M1329 125h-989q-82 0 -141.5 58.5t-59.5 142.5v450h1164q27 0 44 18.5t17 43t-17.5 43t-43.5 18.5h-1164v418q0 84 59.5 142.5t141.5 58.5h989q25 0 42.5 18t17.5 43q0 27 -17.5 44t-42.5 17h-989q-133 0 -228.5 -95t-95.5 -228v-991q0 -133 95.5 -228.5t228.5 -95.5h989 q25 0 43.5 17.5t18.5 43.5q0 25 -18.5 43.5t-43.5 18.5zM594 1958q20 16 47 14t43 -22l121 -142q16 -20 15 -46.5t-21.5 -43t-47 -15.5t-42.5 21l-121 142q-39 49 6 92z" />
<glyph unicode="&#xc9;" horiz-adv-x="1462" d="M1329 125h-989q-82 0 -141.5 58.5t-59.5 142.5v450h1164q27 0 44 18.5t17 43t-17.5 43t-43.5 18.5h-1164v418q0 84 59.5 142.5t141.5 58.5h989q25 0 42.5 18t17.5 43q0 27 -17.5 44t-42.5 17h-989q-133 0 -228.5 -95t-95.5 -228v-991q0 -133 95.5 -228.5t228.5 -95.5h989 q25 0 43.5 17.5t18.5 43.5q0 25 -18.5 43.5t-43.5 18.5zM817 1958q45 -43 6 -92l-121 -142q-16 -20 -42.5 -21t-47 15.5t-21.5 43t15 46.5l121 142q16 20 43 22t47 -14z" />
<glyph unicode="&#xca;" horiz-adv-x="1462" d="M340 125h989q25 0 43.5 -18.5t18.5 -43.5q0 -27 -18.5 -44t-43.5 -17h-989q-133 0 -228.5 95.5t-95.5 228.5v991q0 133 95.5 228t228.5 95h989q25 0 42.5 -17t17.5 -44q0 -25 -17.5 -43t-42.5 -18h-989q-82 0 -141.5 -58.5t-59.5 -142.5v-418h1164q27 0 44 -18.5t17 -43 t-17.5 -43t-43.5 -18.5h-1164v-450q0 -84 59.5 -142.5t141.5 -58.5zM774 1964l133 -174q14 -18 11 -42t-21 -38t-40.5 -10t-37.5 20l-90 119l-88 -119q-39 -41 -80 -10q-18 14 -21 38t11 42l133 174q18 23 45 23q29 0 45 -23z" />
<glyph unicode="&#xcb;" horiz-adv-x="1462" d="M1329 125h-989q-82 0 -141.5 58.5t-59.5 142.5v450h1164q27 0 44 18.5t17 43t-17.5 43t-43.5 18.5h-1164v418q0 84 59.5 142.5t141.5 58.5h989q25 0 42.5 18t17.5 43q0 27 -17.5 44t-42.5 17h-989q-133 0 -228.5 -95t-95.5 -228v-991q0 -133 95.5 -228.5t228.5 -95.5h989 q25 0 43.5 17.5t18.5 43.5q0 25 -18.5 43.5t-43.5 18.5zM406 1759v72q0 27 17 44t44 17q25 0 43 -17t18 -44v-72q0 -25 -18 -43t-43 -18q-27 0 -44 18t-17 43zM897 1759v72q0 27 17.5 44t43.5 17q25 0 43.5 -17t18.5 -44v-72q0 -25 -18.5 -43t-43.5 -18q-27 0 -44 18t-17 43 z" />
<glyph unicode="&#xcc;" horiz-adv-x="311" d="M0 1579v-1516q0 -27 17.5 -44t43.5 -17q25 0 43.5 17.5t18.5 43.5v1516q0 27 -18.5 44t-43.5 17q-27 0 -44 -17t-17 -44zM-37 1960q20 16 47 14t43 -22l121 -142q16 -20 15 -46.5t-21.5 -43t-47 -15.5t-42.5 21l-121 142q-39 49 6 92z" />
<glyph unicode="&#xcd;" horiz-adv-x="296" d="M0 1579v-1516q0 -27 17.5 -44t43.5 -17q25 0 43.5 17.5t18.5 43.5v1516q0 27 -18.5 44t-43.5 17q-27 0 -44 -17t-17 -44zM225 1964q45 -43 6 -92l-120 -141q-16 -20 -43 -21.5t-47.5 15t-21.5 43t15 47.5l121 141q16 20 43 22t47 -14z" />
<glyph unicode="&#xce;" horiz-adv-x="294" d="M109 2025l133 -174q14 -18 11 -41.5t-21.5 -38t-42 -10.5t-37.5 21l-89 119l-90 -119q-14 -16 -36.5 -20.5t-41 10t-21.5 38t11 41.5l133 174q16 23 45 23q28 0 46 -23zM0 1579v-1516q0 -27 17.5 -44t43.5 -17q25 0 43.5 17.5t18.5 43.5v1516q0 27 -18.5 44t-43.5 17 q-27 0 -44 -17t-17 -44z" />
<glyph unicode="&#xcf;" horiz-adv-x="294" d="M-115 1755v70q0 27 18.5 44t43.5 17q27 0 44 -17.5t17 -43.5v-70q0 -27 -17.5 -44t-43.5 -17q-25 0 -43.5 17t-18.5 44zM111 1755v70q0 27 18 44t43 17q27 0 44 -17.5t17 -43.5v-70q0 -27 -17 -44t-44 -17q-25 0 -43 17t-18 44zM0 1579v-1516q0 -27 17.5 -44t43.5 -17 q25 0 43.5 17.5t18.5 43.5v1516q0 27 -18.5 44t-43.5 17q-27 0 -44 -17t-17 -44z" />
<glyph unicode="&#xd0;" horiz-adv-x="1689" d="M0 733h-150q-27 0 -44 17.5t-17 42.5q0 27 17.5 44t43.5 17h150v725q0 27 18 43q14 18 43 18h1125q133 0 228 -95t95 -228v-991q0 -133 -95 -228.5t-228 -95.5h-1125q-27 0 -44 17.5t-17 43.5v670zM1186 1518h-1063v-664h500q27 0 44 -17.5t17 -43.5q0 -25 -17.5 -42.5 t-43.5 -17.5h-500v-608h1063q84 0 142 58.5t58 142.5v991q0 84 -58 142.5t-142 58.5z" />
<glyph unicode="&#xd1;" horiz-adv-x="1685" d="M1430 63v1254q0 84 -58.5 143.5t-142.5 59.5h-905q-84 0 -143.5 -59.5t-59.5 -143.5v-1254q0 -27 -17.5 -44t-42.5 -17q-27 0 -44 17.5t-17 43.5v1254q0 133 95 228t229 95h905q133 0 228 -95t95 -228v-1254q0 -27 -17 -44t-44 -17q-25 0 -43 17t-18 44zM383 1825 q203 113 395 28q78 -33 165 -28.5t159 43.5q23 12 48.5 5t37.5 -29.5t5 -48.5t-30 -38q-96 -53 -214 -58t-220 40q-137 59 -287 -25q-23 -12 -48 -5t-37.5 29.5t-4.5 48.5t31 38z" />
<glyph unicode="&#xd2;" horiz-adv-x="1814" d="M324 1640h979q133 0 227 -95t94 -228v-991q0 -133 -94 -228.5t-227 -95.5h-979q-133 0 -228.5 95.5t-95.5 228.5v991q0 133 95.5 228t228.5 95zM123 1317v-991q0 -84 59.5 -142.5t141.5 -58.5h979q82 0 141 58.5t59 142.5v991q0 84 -59.5 142.5t-140.5 58.5h-979 q-82 0 -141.5 -58.5t-59.5 -142.5zM688 1989q20 16 47 14t43 -23l121 -141q16 -20 15 -47t-21.5 -43t-47 -15t-42.5 21l-121 141q-39 50 6 93z" />
<glyph unicode="&#xd3;" horiz-adv-x="1814" d="M324 1640h979q133 0 227 -95t94 -228v-991q0 -133 -94 -228.5t-227 -95.5h-979q-133 0 -228.5 95.5t-95.5 228.5v991q0 133 95.5 228t228.5 95zM123 1317v-991q0 -84 59.5 -142.5t141.5 -58.5h979q82 0 141 58.5t59 142.5v991q0 84 -59.5 142.5t-140.5 58.5h-979 q-82 0 -141.5 -58.5t-59.5 -142.5zM1010 1989q45 -43 6 -93l-121 -141q-16 -20 -43 -21t-47.5 15t-21.5 43t16 47l121 141q16 20 43 22.5t47 -13.5z" />
<glyph unicode="&#xd4;" horiz-adv-x="1814" d="M324 1640h979q133 0 227 -95t94 -228v-991q0 -133 -94 -228.5t-227 -95.5h-979q-133 0 -228.5 95.5t-95.5 228.5v991q0 133 95.5 228t228.5 95zM123 1317v-991q0 -84 59.5 -142.5t141.5 -58.5h979q82 0 141 58.5t59 142.5v991q0 84 -59.5 142.5t-140.5 58.5h-979 q-82 0 -141.5 -58.5t-59.5 -142.5zM838 1946l133 -174q14 -18 11 -42t-21.5 -38.5t-41 -10t-36.5 20.5l-90 119l-88 -119q-39 -41 -80 -10q-18 14 -21.5 37.5t10.5 42.5l134 174q18 23 45 22q29 1 45 -22z" />
<glyph unicode="&#xd5;" horiz-adv-x="1759" d="M324 1640h979q133 0 227 -95t94 -228v-991q0 -133 -94 -228.5t-227 -95.5h-979q-133 0 -228.5 95.5t-95.5 228.5v991q0 133 95.5 228t228.5 95zM123 1317v-991q0 -84 59.5 -142.5t141.5 -58.5h979q82 0 141 58.5t59 142.5v991q0 84 -59.5 142.5t-140.5 58.5h-979 q-82 0 -141.5 -58.5t-59.5 -142.5zM406 1837q203 113 395 29q78 -33 165 -29t158 43q23 12 48.5 5t38 -29.5t5 -48t-29.5 -38.5q-96 -53 -214 -58t-220 40q-137 59 -287 -25q-23 -12 -48.5 -4.5t-37.5 30t-4 48t31 37.5z" />
<glyph unicode="&#xd6;" horiz-adv-x="1771" d="M514 1755v72q0 27 17.5 44t43.5 17q25 0 43.5 -17.5t18.5 -43.5v-72q0 -25 -18.5 -43t-43.5 -18q-27 0 -44 18t-17 43zM1006 1755v72q0 27 17 44t44 17q25 0 43 -17.5t18 -43.5v-72q0 -25 -18 -43t-43 -18q-27 0 -44 18t-17 43zM324 1640h979q133 0 227 -95t94 -228v-991 q0 -133 -94 -228.5t-227 -95.5h-979q-133 0 -228.5 95.5t-95.5 228.5v991q0 133 95.5 228t228.5 95zM123 1317v-991q0 -84 59.5 -142.5t141.5 -58.5h979q82 0 141 58.5t59 142.5v991q0 84 -59.5 142.5t-140.5 58.5h-979q-82 0 -141.5 -58.5t-59.5 -142.5z" />
<glyph unicode="&#xd7;" horiz-adv-x="1024" d="M901 899l-303 -303l303 -303l-86 -86l-303 303l-303 -303l-86 86l303 303l-303 303l86 86l303 -303l303 303z" />
<glyph unicode="&#xd8;" horiz-adv-x="1775" d="M326 1612h925l56 86q12 20 37.5 26.5t46.5 -8.5q20 -12 26 -37.5t-8 -46.5l-20 -33q104 -29 170.5 -114.5t66.5 -196.5v-991q0 -133 -94 -228.5t-227 -95.5h-945l-81 -129q-14 -23 -38 -27.5t-46 9.5q-20 12 -26.5 37.5t7.5 46.5l49 80q-98 31 -160.5 115.5t-62.5 191.5 v991q0 133 95.5 228.5t228.5 95.5zM438 96h867q84 0 142 58.5t58 142.5v991q0 80 -54 137.5t-134 63.5zM125 1288v-991q0 -76 49 -132t121 -67l879 1391h-848q-84 0 -142.5 -58.5t-58.5 -142.5z" />
<glyph unicode="&#xd9;" horiz-adv-x="1675" d="M1432 326v1253q0 27 18 44t43 17q27 0 44 -17t17 -44v-1253q0 -133 -95 -228.5t-228 -95.5h-907q-133 0 -228.5 95.5t-95.5 228.5v1253q0 27 17.5 44t43.5 17q25 0 42.5 -17t17.5 -44v-1253q0 -84 59.5 -143.5t143.5 -59.5h907q84 0 142.5 59.5t58.5 143.5zM649 1882 q20 16 47 14t43 -22l121 -141q16 -20 15 -47t-21 -43.5t-47 -15.5t-43 22l-121 141q-39 49 6 92z" />
<glyph unicode="&#xda;" horiz-adv-x="1683" d="M1432 326v1253q0 27 18 44t43 17q27 0 44 -17t17 -44v-1253q0 -133 -95 -228.5t-228 -95.5h-907q-133 0 -228.5 95.5t-95.5 228.5v1253q0 27 17.5 44t43.5 17q25 0 42.5 -17t17.5 -44v-1253q0 -84 59.5 -143.5t143.5 -59.5h907q84 0 142.5 59.5t58.5 143.5zM907 1882 q45 -43 6 -92l-120 -141q-16 -20 -43 -21.5t-47.5 15t-21.5 43t15 47.5l121 141q16 20 43 22t47 -14z" />
<glyph unicode="&#xdb;" horiz-adv-x="1024" d="M1470 326v1253q0 27 18.5 44t43.5 17q27 0 44 -17t17 -44v-1253q0 -133 -95 -228.5t-228 -95.5h-946q-133 0 -228.5 95.5t-95.5 228.5v1253q0 27 17.5 44t43.5 17q25 0 42.5 -17t17.5 -44v-1253q0 -84 59.5 -143.5t143.5 -59.5h946q84 0 142 59.5t58 143.5zM838 1870 l133 -174q14 -18 11 -42t-21.5 -38t-41 -10t-36.5 20l-90 119l-88 -119q-39 -41 -80 -10q-18 14 -21.5 37.5t10.5 42.5l134 174q18 23 45 22q29 1 45 -22z" />
<glyph unicode="&#xdc;" horiz-adv-x="1724" d="M1432 326v1253q0 27 18 44t43 17q27 0 44 -17t17 -44v-1253q0 -133 -95 -228.5t-228 -95.5h-907q-133 0 -228.5 95.5t-95.5 228.5v1253q0 27 17.5 44t43.5 17q25 0 42.5 -17t17.5 -44v-1253q0 -84 59.5 -143.5t143.5 -59.5h907q84 0 142.5 59.5t58.5 143.5zM500 1753v72 q0 27 17.5 44t43.5 17q25 0 43.5 -17.5t18.5 -43.5v-72q0 -25 -18.5 -43t-43.5 -18q-27 0 -44 18t-17 43zM991 1753v72q0 27 17.5 44t44.5 17q25 0 43 -17.5t18 -43.5v-72q0 -25 -18.5 -43t-42.5 -18q-27 0 -44.5 18t-17.5 43z" />
<glyph unicode="&#xdd;" horiz-adv-x="1110" d="M852 1769q45 -43 6 -92l-121 -141q-16 -20 -42.5 -21.5t-47 15t-21.5 43t15 47.5l121 141q16 20 43 22t47 -14zM1432 1640q27 0 44 -17t17 -44v-477q0 -133 -95 -228.5t-229 -95.5h-331v-715q0 -27 -17.5 -44t-42.5 -17q-27 0 -44 17.5t-17 43.5v715h-393 q-133 0 -228.5 95.5t-95.5 228.5v477q0 27 17.5 44t43.5 17q25 0 43.5 -17t18.5 -44v-477q0 -82 59.5 -141.5t141.5 -59.5h845q84 0 142.5 59.5t58.5 141.5v477q0 27 18.5 44t43.5 17z" />
<glyph unicode="&#xde;" horiz-adv-x="1110" />
<glyph unicode="&#xdf;" horiz-adv-x="980" />
<glyph unicode="&#xe0;" horiz-adv-x="1449" d="M72 1067h880q133 0 225.5 -93t92.5 -224v-431q0 -131 -92.5 -224t-223.5 -93h-637q-131 0 -224 93t-93 224.5t93 224.5t226 93h832v113q0 82 -58.5 140t-140.5 58h-880q-27 0 -44.5 17.5t-17.5 42t17.5 42t44.5 17.5zM121 319.5q0 -81.5 57.5 -139t138.5 -57.5h637 q82 0 139.5 57.5t57.5 138.5v199h-832q-82 0 -140 -58.5t-58 -140zM463 1423q20 16 47 14.5t43 -22.5l121 -141q16 -20 15 -47t-21.5 -43.5t-47 -15.5t-42.5 22l-121 141q-39 49 6 92z" />
<glyph unicode="&#xe1;" horiz-adv-x="1449" d="M72 1067h880q133 0 225.5 -93t92.5 -224v-431q0 -131 -92.5 -224t-223.5 -93h-637q-131 0 -224 93t-93 224.5t93 224.5t226 93h832v113q0 82 -58.5 140t-140.5 58h-880q-27 0 -44.5 17.5t-17.5 42t17.5 42t44.5 17.5zM121 319.5q0 -81.5 57.5 -139t138.5 -57.5h637 q82 0 139.5 57.5t57.5 138.5v199h-832q-82 0 -140 -58.5t-58 -140zM725 1423q45 -43 6 -92l-121 -141q-16 -20 -42.5 -21.5t-47 15t-21.5 43t15 47.5l121 141q16 20 43 22t47 -14z" />
<glyph unicode="&#xe2;" horiz-adv-x="1449" d="M72 1067h880q133 0 225.5 -93t92.5 -224v-431q0 -131 -92.5 -224t-223.5 -93h-637q-131 0 -224 93t-93 224.5t93 224.5t226 93h832v113q0 82 -58.5 140t-140.5 58h-880q-27 0 -44.5 17.5t-17.5 42t17.5 42t44.5 17.5zM121 319.5q0 -81.5 57.5 -139t138.5 -57.5h637 q82 0 139.5 57.5t57.5 138.5v199h-832q-82 0 -140 -58.5t-58 -140zM659 1403l134 -174q14 -18 11 -42t-21.5 -38t-41 -10t-36.5 20l-91 119l-88 -119q-39 -41 -80 -10q-18 14 -21 37.5t11 42.5l133 174q18 23 45 22q29 1 45 -22z" />
<glyph unicode="&#xe3;" horiz-adv-x="1449" d="M72 1067h880q133 0 225.5 -93t92.5 -224v-431q0 -131 -92.5 -224t-223.5 -93h-637q-131 0 -224 93t-93 224.5t93 224.5t226 93h832v113q0 82 -58.5 140t-140.5 58h-880q-27 0 -44.5 17.5t-17.5 42t17.5 42t44.5 17.5zM121 319.5q0 -81.5 57.5 -139t138.5 -57.5h637 q82 0 139.5 57.5t57.5 138.5v199h-832q-82 0 -140 -58.5t-58 -140zM244 1292q203 113 395 29q78 -33 165 -29t159 43q23 12 48 5t37.5 -29.5t5.5 -48t-30 -37.5q-96 -53 -214 -58.5t-220 39.5q-137 59 -287 -24q-23 -12 -48.5 -5t-37.5 29.5t-4 48t31 37.5z" />
<glyph unicode="&#xe4;" horiz-adv-x="1449" d="M72 1067h880q133 0 225.5 -93t92.5 -224v-431q0 -131 -92.5 -224t-223.5 -93h-637q-131 0 -224 93t-93 224.5t93 224.5t226 93h832v113q0 82 -58.5 140t-140.5 58h-880q-27 0 -44.5 17.5t-17.5 42t17.5 42t44.5 17.5zM121 319.5q0 -81.5 57.5 -139t138.5 -57.5h637 q82 0 139.5 57.5t57.5 138.5v199h-832q-82 0 -140 -58.5t-58 -140zM324 1219v71q0 27 17 44.5t44 17.5q25 0 43 -17.5t18 -44.5v-71q0 -25 -18 -43.5t-43 -18.5q-27 0 -44 18.5t-17 43.5zM815 1219v71q0 27 17.5 44.5t44.5 17.5q25 0 43 -17.5t18 -44.5v-71 q0 -25 -18.5 -43.5t-42.5 -18.5q-27 0 -44.5 18.5t-17.5 43.5z" />
<glyph unicode="&#xe5;" horiz-adv-x="1449" d="M72 1067h880q133 0 225.5 -93t92.5 -224v-431q0 -131 -92.5 -224t-223.5 -93h-637q-131 0 -224 93t-93 224.5t93 224.5t226 93h832v113q0 82 -58.5 140t-140.5 58h-880q-27 0 -44.5 17.5t-17.5 42t17.5 42t44.5 17.5zM121 319.5q0 -81.5 57.5 -139t138.5 -57.5h637 q82 0 139.5 57.5t57.5 138.5v199h-832q-82 0 -140 -58.5t-58 -140zM629 1139q-78 0 -131 51q-51 53 -52 131q0 41 15 72q12 33 39 59q31 27 57 37q31 14 72 14q39 0 69 -14q33 -12 59.5 -39t39.5 -59q14 -31 14 -70q0 -41 -14 -72q-10 -27 -37 -57q-27 -27 -60 -39 q-30 -14 -71 -14zM535 1321q0 -39 28 -66q27 -29 66 -28q41 0 67 28q27 27 27 66t-29 65q-27 29 -65.5 29t-65.5 -26q-28 -27 -28 -68z" />
<glyph unicode="&#xe6;" horiz-adv-x="2291" d="M1106 315v4v130v-125v-9zM985 518h-668q-82 0 -140 -58.5t-58 -140t57 -139t139 -57.5h476q76 0 132 51t62 127v23v194zM1307 1063h469q133 0 227 -94.5t94 -227.5v-231q0 -27 -17.5 -44t-43.5 -17h-930v-130v-4q0 -80 59.5 -136t141.5 -56h690q25 0 43 -17.5t18 -42.5 q0 -27 -18.5 -44t-42.5 -17h-690q-162 0 -260 131q-94 -131 -256 -131h-476q-131 0 -224 93t-93 224.5t93 224.5t226 93h668v104v25q-6 78 -62.5 130t-134.5 52h-718q-27 0 -44.5 17.5t-17.5 42t17.5 42t44.5 17.5h718q164 0 261 -133q98 129 258 129zM1106 741v-172h870 v172q0 82 -58 141.5t-142 59.5h-469q-80 0 -139.5 -56.5t-61.5 -135.5v-9z" />
<glyph unicode="&#xe7;" horiz-adv-x="1386" d="M1190 121q25 0 42 -17.5t17 -44t-17.5 -44t-41.5 -17.5h-457v-125q0 -18 -20 -43q-25 -20 -41 -20q-25 0 -40.5 -15.5t-15.5 -36.5q0 -27 23 -49t59 -16q25 4 43.5 -15.5t18.5 -44.5q0 -27 -18.5 -44t-43.5 -17q-80 0 -141 49t-63 137q-2 55 30.5 100.5t83.5 65.5v74 h-282q-135 0 -230.5 95t-95.5 231v411q0 135 95 230.5t231 95.5h866q27 0 45 -17.5t18 -44.5q0 -25 -18 -43t-45 -18h-866q-84 0 -143.5 -59.5t-59.5 -143.5v-411q0 -84 58.5 -143.5t144.5 -59.5h864z" />
<glyph unicode="&#xe8;" horiz-adv-x="1470" d="M322 1067h632q133 0 227.5 -94t94.5 -228v-235q0 -27 -17.5 -44t-44.5 -17h-1093v-125q0 -82 58.5 -141.5t142.5 -59.5h854q25 0 43 -17.5t18 -42.5q0 -27 -18.5 -44t-42.5 -17h-854q-133 0 -227.5 94t-94.5 228v421q0 133 94.5 227.5t227.5 94.5zM121 745v-176h1034v176 q0 82 -59.5 141.5t-141.5 59.5h-632q-84 0 -142.5 -59.5t-58.5 -141.5zM524 1423q20 16 47 14.5t43 -22.5l121 -141q16 -20 15.5 -47t-21 -43.5t-47.5 -15.5t-43 22l-121 141q-39 49 6 92z" />
<glyph unicode="&#xe9;" horiz-adv-x="1470" d="M322 1067h632q133 0 227.5 -94t94.5 -228v-235q0 -27 -17.5 -44t-44.5 -17h-1093v-125q0 -82 58.5 -141.5t142.5 -59.5h854q25 0 43 -17.5t18 -42.5q0 -27 -18.5 -44t-42.5 -17h-854q-133 0 -227.5 94t-94.5 228v421q0 133 94.5 227.5t227.5 94.5zM121 745v-176h1034v176 q0 82 -59.5 141.5t-141.5 59.5h-632q-84 0 -142.5 -59.5t-58.5 -141.5zM766 1423q45 -43 6 -92l-121 -141q-16 -20 -42.5 -21.5t-47 15t-21.5 43t15 47.5l121 141q16 20 43 22t47 -14z" />
<glyph unicode="&#xea;" horiz-adv-x="1470" d="M322 1067h632q133 0 227.5 -94t94.5 -228v-235q0 -27 -17.5 -44t-44.5 -17h-1093v-125q0 -82 58.5 -141.5t142.5 -59.5h854q25 0 43 -17.5t18 -42.5q0 -27 -18.5 -44t-42.5 -17h-854q-133 0 -227.5 94t-94.5 228v421q0 133 94.5 227.5t227.5 94.5zM121 745v-176h1034v176 q0 82 -59.5 141.5t-141.5 59.5h-632q-84 0 -142.5 -59.5t-58.5 -141.5zM705 1403l133 -174q14 -18 11 -42t-21.5 -38t-41 -10t-36.5 20l-91 119l-88 -119q-39 -41 -79 -10q-18 14 -21.5 37.5t10.5 42.5l133 174q18 23 45 22q30 1 46 -22z" />
<glyph unicode="&#xeb;" horiz-adv-x="1470" d="M322 1067h632q133 0 227.5 -94t94.5 -228v-235q0 -27 -17.5 -44t-44.5 -17h-1093v-125q0 -82 58.5 -141.5t142.5 -59.5h854q25 0 43 -17.5t18 -42.5q0 -27 -18.5 -44t-42.5 -17h-854q-133 0 -227.5 94t-94.5 228v421q0 133 94.5 227.5t227.5 94.5zM121 745v-176h1034v176 q0 82 -59.5 141.5t-141.5 59.5h-632q-84 0 -142.5 -59.5t-58.5 -141.5zM328 1219v71q0 27 17 44.5t44 17.5q25 0 43.5 -17.5t18.5 -44.5v-71q0 -25 -18.5 -43.5t-43.5 -18.5q-27 0 -44 18.5t-17 43.5zM819 1219v71q0 27 17.5 44.5t44.5 17.5q25 0 43 -17.5t18 -44.5v-71 q0 -25 -18.5 -43.5t-42.5 -18.5q-27 0 -44.5 18.5t-17.5 43.5z" />
<glyph unicode="&#xec;" horiz-adv-x="290" d="M61 1059q25 0 43.5 -17.5t18.5 -42.5v-936q0 -27 -18.5 -44t-43.5 -17q-27 0 -44 17.5t-17 43.5v936q0 25 17 42.5t44 17.5zM-35 1376q20 16 47 14.5t43 -22.5l121 -141q16 -20 15 -47t-21 -43.5t-47 -15.5t-43 22l-121 141q-39 49 6 92z" />
<glyph unicode="&#xed;" horiz-adv-x="299" d="M61 1059q25 0 43.5 -17.5t18.5 -42.5v-936q0 -27 -18.5 -44t-43.5 -17q-27 0 -44 17.5t-17 43.5v936q0 25 17 42.5t44 17.5zM164 1382q45 -43 6 -92l-121 -141q-16 -20 -42.5 -21.5t-47 15t-21.5 43t15 47.5l121 141q16 20 43 22t47 -14z" />
<glyph unicode="&#xee;" horiz-adv-x="428" d="M125 1059q25 0 43 -17.5t18 -42.5v-936q0 -27 -18 -44t-43 -17q-27 0 -44.5 17.5t-17.5 43.5v936q0 25 17.5 42.5t44.5 17.5zM172 1382l133 -174q14 -18 11 -41.5t-21.5 -38t-41 -10.5t-36.5 21l-90 118l-88 -118q-39 -41 -80 -11q-18 14 -21.5 38t11.5 42l133 174 q18 23 45 23q29 0 45 -23z" />
<glyph unicode="&#xef;" horiz-adv-x="290" d="M61 1059q25 0 43.5 -17.5t18.5 -42.5v-936q0 -27 -18.5 -44t-43.5 -17q-27 0 -44 17.5t-17 43.5v936q0 25 17 42.5t44 17.5zM-102 1219v71q0 27 17 44.5t44 17.5q25 0 43 -17.5t18 -44.5v-71q0 -25 -18 -43.5t-43 -18.5q-27 0 -44 18.5t-17 43.5zM102 1219v71 q0 27 17.5 44.5t44.5 17.5q25 0 43 -17.5t18 -44.5v-71q0 -25 -18.5 -43.5t-42.5 -18.5q-27 0 -44.5 18.5t-17.5 43.5z" />
<glyph unicode="&#xf0;" horiz-adv-x="937" />
<glyph unicode="&#xf1;" horiz-adv-x="1366" d="M61 1067h795q135 0 229.5 -95t94.5 -229v-680q0 -27 -17.5 -44t-44.5 -17q-25 0 -42 17.5t-17 43.5v680q0 84 -59.5 142.5t-143.5 58.5h-6h-8h-6h-9h-6h-8h-6h-8h-6h-9h-6h-8h-6h-8h-6h-9h-6h-8h-6h-8h-6h-9h-6h-8h-8h-6h-8h-7h-8h-6h-8h-6h-9h-6h-8h-8h-6h-8h-7h-8h-6 h-8h-8h-6h-9h-6h-8h-8h-6h-8h-9h-6h-8h-6h-8h-8h-7h-8h-8h-8h-6h-9h-8h-6h-8h-8h-8h-7h-8h-8h-8h-6h-9h-8h-8h-8h-8h-8h-9h-6h-8h-8h-8h-11h-8h-8h-8h-8h-9h-10h-8h-10h-10h-11h-16v-881q0 -27 -18.5 -44t-43.5 -17q-27 0 -44 17.5t-17 43.5v943q0 25 17 42t44 19zM141 1292 q203 113 396 29q78 -33 164.5 -29t158.5 43q23 12 48.5 5t37.5 -29.5t5 -48t-29 -37.5q-96 -53 -214 -58.5t-221 39.5q-137 59 -286 -24q-23 -12 -48.5 -5t-38 29.5t-4.5 48t31 37.5z" />
<glyph unicode="&#xf2;" horiz-adv-x="1585" d="M324 1067h774q133 0 228 -95t95 -229v-417q0 -133 -95 -228.5t-228 -95.5h-774q-133 0 -228.5 95.5t-95.5 228.5v417q0 133 95.5 228.5t228.5 95.5zM123 743v-417q0 -84 59.5 -142.5t141.5 -58.5h774q82 0 141 58.5t59 142.5v417q0 84 -59 142.5t-141 58.5h-774 q-82 0 -141.5 -58.5t-59.5 -142.5zM586 1423q20 16 46.5 14.5t43.5 -22.5l121 -141q16 -20 15 -47t-21.5 -43.5t-47 -15.5t-43.5 22l-120 141q-39 49 6 92z" />
<glyph unicode="&#xf3;" horiz-adv-x="1585" d="M324 1067h774q133 0 228 -95t95 -229v-417q0 -133 -95 -228.5t-228 -95.5h-774q-133 0 -228.5 95.5t-95.5 228.5v417q0 133 95.5 228.5t228.5 95.5zM123 743v-417q0 -84 59.5 -142.5t141.5 -58.5h774q82 0 141 58.5t59 142.5v417q0 84 -59 142.5t-141 58.5h-774 q-82 0 -141.5 -58.5t-59.5 -142.5zM827 1423q45 -43 7 -92l-121 -141q-16 -20 -43 -21.5t-47.5 15t-21.5 43t15 47.5l121 141q16 20 43 22t47 -14z" />
<glyph unicode="&#xf4;" horiz-adv-x="1585" d="M324 1067h774q133 0 228 -95t95 -229v-417q0 -133 -95 -228.5t-228 -95.5h-774q-133 0 -228.5 95.5t-95.5 228.5v417q0 133 95.5 228.5t228.5 95.5zM123 743v-417q0 -84 59.5 -142.5t141.5 -58.5h774q82 0 141 58.5t59 142.5v417q0 84 -59 142.5t-141 58.5h-774 q-82 0 -141.5 -58.5t-59.5 -142.5zM760 1403l133 -174q14 -18 11 -42t-21.5 -38t-41 -10t-36.5 20l-90 119l-88 -119q-39 -41 -80 -10q-18 14 -21.5 37.5t11.5 42.5l133 174q18 23 45 22q29 1 45 -22z" />
<glyph unicode="&#xf5;" horiz-adv-x="1585" d="M324 1067h774q133 0 228 -95t95 -229v-417q0 -133 -95 -228.5t-228 -95.5h-774q-133 0 -228.5 95.5t-95.5 228.5v417q0 133 95.5 228.5t228.5 95.5zM123 743v-417q0 -84 59.5 -142.5t141.5 -58.5h774q82 0 141 58.5t59 142.5v417q0 84 -59 142.5t-141 58.5h-774 q-82 0 -141.5 -58.5t-59.5 -142.5zM305 1292q203 113 395 29q78 -33 165 -29t159 43q23 12 48.5 5t37.5 -29.5t5 -48t-30 -37.5q-96 -53 -213.5 -58.5t-220.5 39.5q-137 59 -286 -24q-23 -12 -48.5 -5t-38 29.5t-4.5 48t31 37.5z" />
<glyph unicode="&#xf6;" horiz-adv-x="1585" d="M324 1067h774q133 0 228 -95t95 -229v-417q0 -133 -95 -228.5t-228 -95.5h-774q-133 0 -228.5 95.5t-95.5 228.5v417q0 133 95.5 228.5t228.5 95.5zM123 743v-417q0 -84 59.5 -142.5t141.5 -58.5h774q82 0 141 58.5t59 142.5v417q0 84 -59 142.5t-141 58.5h-774 q-82 0 -141.5 -58.5t-59.5 -142.5zM406 1219v71q0 27 17 44.5t44 17.5q25 0 43 -17.5t18 -44.5v-71q0 -25 -18 -43.5t-43 -18.5q-27 0 -44 18.5t-17 43.5zM897 1219v71q0 27 17.5 44.5t43.5 17.5q25 0 43.5 -17.5t18.5 -44.5v-71q0 -25 -18.5 -43.5t-43.5 -18.5 q-27 0 -44 18.5t-17 43.5z" />
<glyph unicode="&#xf7;" horiz-adv-x="1024" d="M799 532h-740q-25 0 -43 17.5t-18 42.5q0 27 18.5 44t42.5 17h740q25 0 42 -17.5t17 -43.5q0 -25 -17 -42.5t-42 -17.5zM371 797v153q0 27 17.5 44.5t43.5 17.5q25 0 43.5 -17.5t18.5 -44.5v-153q0 -25 -18.5 -43.5t-43.5 -18.5q-27 0 -44 18.5t-17 43.5zM371 203v153 q0 27 17.5 44.5t43.5 17.5q25 0 43.5 -17.5t18.5 -44.5v-153q0 -25 -18.5 -43.5t-43.5 -18.5q-27 0 -44 18.5t-17 43.5z" />
<glyph unicode="&#xf8;" horiz-adv-x="1599" d="M1313 981l57 43q12 20 38 26.5t46 -8.5q20 -12 26.5 -37.5t-7.5 -46.5l-91 -67q37 -74 37 -150v-417q0 -133 -95 -228.5t-228 -95.5h-774q-63 0 -113 20l-55 -40q-14 -23 -38 -28t-46 9q-20 12 -26.5 38t7.5 46l51 39q-104 94 -104 240v417q0 133 95 228.5t229 95.5h774 q123 0 217 -84zM121 741v-417q0 -102 84 -164l1005 745q-53 37 -114 37h-774q-84 0 -142.5 -59.5t-58.5 -141.5zM346 123h750q84 0 142 59.5t58 141.5v417q0 33 -14 76z" />
<glyph unicode="&#xf9;" horiz-adv-x="1398" d="M1159 2h-835q-133 0 -228.5 95.5t-95.5 228.5v680q0 25 17.5 43t43.5 18q25 0 43.5 -18.5t18.5 -42.5v-680q0 -84 59.5 -142.5t141.5 -58.5h6h8h6h6h6h9h6h6h8h6h6h6h9h6h6h8h6h6h9h6h6h6h8h6h7h8h6h6h8h6h6h9h6h6h8h6h6h9h6h6h8h6h6h9h6h6h8h6h6h9h6h6h8h6h6h9h6h6h8h6 h8h6h7h8h6h6h8h6h9h6h6h8h6h8h7h8h6h6h8h6h9h6h8h6h8h6h9h6h8h6h8h6h9h6h8h6h8h6h9h8h6h8h8h6h9h8h8h8h8h15q-2 473 0 879q0 25 17.5 43t41.5 18q27 0 44.5 -18.5t17.5 -42.5v-941q0 -25 -17.5 -43t-44.5 -18zM463 1423q20 16 47 14.5t43 -22.5l121 -141q16 -20 15 -47 t-21.5 -43.5t-47 -15.5t-42.5 22l-121 141q-39 49 6 92z" />
<glyph unicode="&#xfa;" horiz-adv-x="1398" d="M1159 2h-835q-133 0 -228.5 95.5t-95.5 228.5v680q0 25 17.5 43t43.5 18q25 0 43.5 -18.5t18.5 -42.5v-680q0 -84 59.5 -142.5t141.5 -58.5h6h8h6h6h6h9h6h6h8h6h6h6h9h6h6h8h6h6h9h6h6h6h8h6h7h8h6h6h8h6h6h9h6h6h8h6h6h9h6h6h8h6h6h9h6h6h8h6h6h9h6h6h8h6h6h9h6h6h8h6 h8h6h7h8h6h6h8h6h9h6h6h8h6h8h7h8h6h6h8h6h9h6h8h6h8h6h9h6h8h6h8h6h9h6h8h6h8h6h9h8h6h8h8h6h9h8h8h8h8h15q-2 473 0 879q0 25 17.5 43t41.5 18q27 0 44.5 -18.5t17.5 -42.5v-941q0 -25 -17.5 -43t-44.5 -18zM705 1423q45 -43 6 -92l-121 -141q-16 -20 -43 -21.5t-47.5 15 t-21.5 43t16 47.5l120 141q16 20 43.5 22t47.5 -14z" />
<glyph unicode="&#xfb;" horiz-adv-x="1398" d="M1159 2h-835q-133 0 -228.5 95.5t-95.5 228.5v680q0 25 17.5 43t43.5 18q25 0 43.5 -18.5t18.5 -42.5v-680q0 -84 59.5 -142.5t141.5 -58.5h6h8h6h6h6h9h6h6h8h6h6h6h9h6h6h8h6h6h9h6h6h6h8h6h7h8h6h6h8h6h6h9h6h6h8h6h6h9h6h6h8h6h6h9h6h6h8h6h6h9h6h6h8h6h6h9h6h6h8h6 h8h6h7h8h6h6h8h6h9h6h6h8h6h8h7h8h6h6h8h6h9h6h8h6h8h6h9h6h8h6h8h6h9h6h8h6h8h6h9h8h6h8h8h6h9h8h8h8h8h15q-2 473 0 879q0 25 17.5 43t41.5 18q27 0 44.5 -18.5t17.5 -42.5v-941q0 -25 -17.5 -43t-44.5 -18zM670 1403l133 -174q14 -18 11 -42t-21.5 -38t-41 -10t-36.5 20 l-90 119l-88 -119q-39 -41 -80 -10q-18 14 -21.5 37.5t10.5 42.5l134 174q18 23 45 22q29 1 45 -22z" />
<glyph unicode="&#xfc;" horiz-adv-x="1398" d="M1159 2h-835q-133 0 -228.5 95.5t-95.5 228.5v680q0 25 17.5 43t43.5 18q25 0 43.5 -18.5t18.5 -42.5v-680q0 -84 59.5 -142.5t141.5 -58.5h6h8h6h6h6h9h6h6h8h6h6h6h9h6h6h8h6h6h9h6h6h6h8h6h7h8h6h6h8h6h6h9h6h6h8h6h6h9h6h6h8h6h6h9h6h6h8h6h6h9h6h6h8h6h6h9h6h6h8h6 h8h6h7h8h6h6h8h6h9h6h6h8h6h8h7h8h6h6h8h6h9h6h8h6h8h6h9h6h8h6h8h6h9h6h8h6h8h6h9h8h6h8h8h6h9h8h8h8h8h15q-2 473 0 879q0 25 17.5 43t41.5 18q27 0 44.5 -18.5t17.5 -42.5v-941q0 -25 -17.5 -43t-44.5 -18zM305 1219v71q0 27 17.5 44.5t44.5 17.5q25 0 43 -17.5t18 -44.5 v-71q0 -25 -18.5 -43.5t-42.5 -18.5q-27 0 -44.5 18.5t-17.5 43.5zM797 1219v71q0 27 17 44.5t44 17.5q25 0 43.5 -17.5t18.5 -44.5v-71q0 -25 -18.5 -43.5t-43.5 -18.5q-27 0 -44 18.5t-17 43.5z" />
<glyph unicode="&#xfd;" horiz-adv-x="1429" d="M1257 1006v-1252q0 -135 -95 -229t-228 -94h-774q-27 0 -44.5 17t-17.5 42q0 27 17.5 44t44.5 17h774q84 0 142.5 59.5t58.5 143.5v318q-88 -72 -201 -72h-610q-133 0 -228.5 95t-95.5 229v682q0 27 17.5 44t43.5 17q25 0 43.5 -17.5t18.5 -43.5v-682q0 -82 59.5 -141.5 t141.5 -59.5h610q82 0 141.5 59.5t59.5 141.5v682q0 27 17 44t44 17q25 0 43 -17t18 -44zM741 1423q45 -43 7 -92l-121 -141q-16 -20 -43 -21.5t-47.5 15t-21.5 43t15 47.5l121 141q16 20 43 22t47 -14z" />
<glyph unicode="&#xfe;" horiz-adv-x="1222" d="M324 1065h403q133 0 228.5 -95.5t95.5 -228.5v-417q0 -133 -95.5 -228.5t-228.5 -95.5h-403q-111 0 -201 70v-531q0 -27 -18.5 -44t-43.5 -17q-27 0 -44 17.5t-17 43.5v1946q0 27 17.5 44t43.5 17q25 0 43.5 -17.5t18.5 -43.5v-492q88 72 201 72zM123 750v-435 q4 -80 61.5 -136t139.5 -56h403q84 0 142.5 59.5t58.5 141.5v417q0 82 -58.5 141.5t-142.5 59.5h-403q-82 0 -139.5 -56t-61.5 -136z" />
<glyph unicode="&#xff;" horiz-adv-x="1429" d="M1257 1006v-1252q0 -135 -95 -229t-228 -94h-774q-27 0 -44.5 17t-17.5 42q0 27 17.5 44t44.5 17h774q84 0 142.5 59.5t58.5 143.5v318q-88 -72 -201 -72h-610q-133 0 -228.5 95t-95.5 229v682q0 27 17.5 44t43.5 17q25 0 43.5 -17.5t18.5 -43.5v-682q0 -82 59.5 -141.5 t141.5 -59.5h610q82 0 141.5 59.5t59.5 141.5v682q0 27 17 44t44 17q25 0 43 -17t18 -44zM307 1219v71q0 27 17.5 44.5t44.5 17.5q25 0 43 -17.5t18 -44.5v-71q0 -25 -18.5 -43.5t-42.5 -18.5q-27 0 -44.5 18.5t-17.5 43.5zM799 1219v71q0 27 17.5 44.5t43.5 17.5 q25 0 43.5 -17.5t18.5 -44.5v-71q0 -25 -18.5 -43.5t-43.5 -18.5q-27 0 -44 18.5t-17 43.5z" />
<glyph unicode="&#x152;" horiz-adv-x="2625" d="M1565 109h747q25 0 43.5 -17.5t18.5 -44.5q0 -25 -18.5 -43t-43.5 -18h-747q-170 0 -269 143q-98 -129 -258 -129h-714q-133 0 -228.5 95t-95.5 229v997q0 133 95 228.5t229 95.5h714q170 0 269 -142q98 129 258 129h747q25 0 43.5 -17.5t18.5 -43.5q0 -25 -18.5 -43.5 t-43.5 -18.5h-747q-84 0 -143.5 -59t-59.5 -141v-439h924q27 0 44 -17t17 -44q0 -25 -17.5 -43t-43.5 -18h-924v-424v-13q0 -84 59.5 -143t143.5 -59zM324 123h714q84 0 143.5 59.5t59.5 141.5v985v12q0 82 -59.5 141.5t-143.5 59.5h-714q-82 0 -141.5 -58.5t-59.5 -142.5 v-997q0 -82 59.5 -141.5t141.5 -59.5z" />
<glyph unicode="&#x153;" horiz-adv-x="2256" d="M1331 1067h408q133 0 227 -94t94 -228v-231q0 -27 -17.5 -44t-43.5 -17h-866v-127q0 -16 -3 -25q10 -74 67.5 -124t133.5 -50h629q25 0 43 -17.5t18 -41.5q0 -27 -18 -44.5t-43 -17.5h-629q-166 0 -260 131q-98 -135 -262 -135h-485q-133 0 -228.5 95.5t-95.5 228.5v417 q0 133 95 228.5t229 95.5h485q162 0 260 -133q98 133 262 133zM123 743v-417q0 -84 59.5 -142.5t141.5 -58.5h485q84 0 142.5 58.5t58.5 142.5v426q-2 80 -61.5 136t-139.5 56h-485q-82 0 -141.5 -58.5t-59.5 -142.5zM1133 573h806v172q0 82 -58 141.5t-142 59.5h-408 q-76 0 -133 -51t-68 -125q3 -11 3 -197z" />
<glyph unicode="&#x178;" horiz-adv-x="1646" d="M1432 1640q27 0 44 -17t17 -44v-477q0 -133 -95 -228.5t-229 -95.5h-331v-715q0 -27 -17.5 -44t-42.5 -17q-27 0 -44 17.5t-17 43.5v715h-393q-133 0 -228.5 95.5t-95.5 228.5v477q0 27 17.5 44t43.5 17q25 0 43.5 -17t18.5 -44v-477q0 -82 59.5 -141.5t141.5 -59.5h845 q84 0 142.5 59.5t58.5 141.5v477q0 27 18.5 44t43.5 17zM469 1612v71q0 27 17.5 44.5t43.5 17.5q25 0 43.5 -17.5t18.5 -44.5v-71q0 -25 -18.5 -43.5t-43.5 -18.5q-27 0 -44 18.5t-17 43.5zM961 1612v71q0 27 17 44.5t44 17.5q25 0 43 -17.5t18 -44.5v-71q0 -25 -18 -43.5 t-43 -18.5q-27 0 -44 18.5t-17 43.5z" />
<glyph unicode="&#x2c6;" d="M483 1403l133 -174q14 -18 11.5 -42t-21 -38t-41 -10t-37.5 20l-90 119l-88 -119q-39 -41 -80 -10q-18 14 -21 37.5t11 42.5l133 174q18 23 45 22q29 1 45 -22z" />
<glyph unicode="&#x2dc;" horiz-adv-x="1492" d="M-104 1292q203 113 395 29q78 -33 165 -29t158 43q23 12 48.5 5t38 -29.5t5 -48t-29.5 -37.5q-96 -53 -214 -58.5t-220 39.5q-137 59 -287 -24q-23 -12 -48.5 -5t-37.5 29.5t-4 48t31 37.5z" />
<glyph unicode="&#x2000;" horiz-adv-x="1036" />
<glyph unicode="&#x2001;" horiz-adv-x="2074" />
<glyph unicode="&#x2002;" horiz-adv-x="1036" />
<glyph unicode="&#x2003;" horiz-adv-x="2074" />
<glyph unicode="&#x2004;" horiz-adv-x="690" />
<glyph unicode="&#x2005;" horiz-adv-x="518" />
<glyph unicode="&#x2006;" horiz-adv-x="344" />
<glyph unicode="&#x2007;" horiz-adv-x="344" />
<glyph unicode="&#x2008;" horiz-adv-x="258" />
<glyph unicode="&#x2009;" horiz-adv-x="413" />
<glyph unicode="&#x200a;" horiz-adv-x="114" />
<glyph unicode="&#x2010;" horiz-adv-x="702" d="M498 528h-430q-27 0 -44.5 17.5t-17.5 42.5q0 27 17.5 44t44.5 17h430q27 0 44 -17.5t17 -43.5q0 -25 -17 -42.5t-44 -17.5z" />
<glyph unicode="&#x2011;" horiz-adv-x="702" d="M498 528h-430q-27 0 -44.5 17.5t-17.5 42.5q0 27 17.5 44t44.5 17h430q27 0 44 -17.5t17 -43.5q0 -25 -17 -42.5t-44 -17.5z" />
<glyph unicode="&#x2012;" horiz-adv-x="702" d="M498 528h-430q-27 0 -44.5 17.5t-17.5 42.5q0 27 17.5 44t44.5 17h430q27 0 44 -17.5t17 -43.5q0 -25 -17 -42.5t-44 -17.5z" />
<glyph unicode="&#x2013;" horiz-adv-x="980" d="M702 621h-430q-27 0 -44 17t-17 42q0 27 17.5 44t43.5 17h430q27 0 44.5 -17t17.5 -44q0 -25 -17.5 -42t-44.5 -17z" />
<glyph unicode="&#x2014;" horiz-adv-x="1236" d="M948 825h-635q-27 0 -44 17.5t-17 42.5q0 27 17.5 44t43.5 17h635q27 0 44.5 -17.5t17.5 -43.5q0 -25 -17.5 -42.5t-44.5 -17.5z" />
<glyph unicode="&#x2018;" d="M449 1833q20 -18 22 -44t-14 -48l-121 -142q-16 -20 -43 -21t-47.5 15.5t-22.5 43t17 46.5l118 142q16 20 43.5 22t47.5 -14z" />
<glyph unicode="&#x2019;" horiz-adv-x="342" d="M244 1628q20 -18 22 -43.5t-14 -48.5l-121 -141q-16 -20 -43 -21.5t-47.5 15t-22.5 43t17 47.5l119 141q16 20 43 22t47 -14z" />
<glyph unicode="&#x201a;" d="M-27 123h90q25 0 43.5 -17.5t18.5 -42.5v-178q0 -27 -18.5 -44t-43.5 -17q-27 0 -44 17.5t-17 43.5v115h-29q-25 0 -42 17.5t-17 43.5q0 25 17 43.5t42 18.5z" />
<glyph unicode="&#x201c;" d="M455 1343h-90q-25 0 -43.5 17.5t-18.5 42.5v178q0 27 18.5 44t43.5 17q27 0 44 -17t17 -44v-115h29q25 0 42 -17t17 -44q0 -25 -17 -43.5t-42 -18.5zM156 1341h-90q-25 0 -43.5 17.5t-18.5 42.5v178q0 27 18.5 44t43.5 17q27 0 44 -17t17 -44v-115h29q25 0 42 -17t17 -44 q0 -25 -17 -43.5t-42 -18.5z" />
<glyph unicode="&#x201d;" horiz-adv-x="526" d="M-27 1642h90q25 0 43.5 -17t18.5 -42v-178q0 -27 -18.5 -44.5t-43.5 -17.5q-27 0 -44 17.5t-17 44.5v115h-29q-25 0 -42 17t-17 44q0 25 17 43t42 18zM272 1645h90q25 0 43.5 -17.5t18.5 -42.5v-178q0 -27 -18.5 -44t-43.5 -17q-27 0 -44 17t-17 44v115h-29q-25 0 -42 17 t-17 44q0 25 17 43.5t42 18.5z" />
<glyph unicode="&#x201e;" d="M-27 123h90q25 0 43.5 -17.5t18.5 -42.5v-178q0 -27 -18.5 -44t-43.5 -17q-27 0 -44 17.5t-17 43.5v115h-29q-25 0 -42 17.5t-17 43.5q0 25 17 43.5t42 18.5zM272 125h90q25 0 43.5 -17.5t18.5 -41.5v-179q0 -27 -18.5 -44t-43.5 -17q-27 0 -44 17.5t-17 43.5v115h-29 q-25 0 -42 17.5t-17 43.5q0 25 17 43.5t42 18.5z" />
<glyph unicode="&#x2022;" horiz-adv-x="681" d="M586 725q0 -49 -19 -94q-14 -45 -47 -80q-29 -31 -76 -53q-43 -18 -96 -19q-61 0 -104 21q-41 16 -78 53q-33 33 -51 78q-18 43 -19 92q0 39 17 88q16 45 49 78q39 39 78 57q51 20 104 21q55 0 98 -21q41 -16 78 -53q31 -35 49 -76q17 -45 17 -92z" />
<glyph unicode="&#x2026;" horiz-adv-x="747" d="M12 61v72q0 27 17.5 44.5t44.5 17.5q25 0 43 -17.5t18 -44.5v-72q0 -25 -18.5 -43t-42.5 -18q-27 0 -44.5 18t-17.5 43zM258 61v72q0 27 17.5 44.5t43.5 17.5q25 0 43.5 -17.5t18.5 -44.5v-72q0 -25 -18.5 -43t-43.5 -18q-27 0 -44 18t-17 43zM504 61v72q0 27 17.5 44.5 t43.5 17.5q25 0 43.5 -17.5t18.5 -44.5v-72q0 -25 -18.5 -43t-43.5 -18q-27 0 -44 18t-17 43z" />
<glyph unicode="&#x202f;" horiz-adv-x="413" />
<glyph unicode="&#x2039;" horiz-adv-x="598" d="M272 606l275 -330h-234l-274 330l274 328h234z" />
<glyph unicode="&#x203a;" horiz-adv-x="598" d="M463 559l-369 -274q-18 -14 -41.5 -11.5t-38 21t-10.5 41t21 37.5l313 231l-313 223q-41 39 -11 80q14 18 38 21.5t42 -10.5l369 -269q23 -18 22 -45q1 -29 -22 -45z" />
<glyph unicode="&#x205f;" horiz-adv-x="518" />
<glyph unicode="&#x20ac;" horiz-adv-x="1488" d="M1249 162q23 10 44.5 -1t27.5 -34q10 -20 1 -42t-30 -32q-154 -53 -284 -53q-283 0 -504 174t-289 438h-195q-29 0 -47 19.5t-18 46.5q0 18 19.5 34.5t45.5 16.5h175q-4 31 -5 90q0 51 5 76h-175q-27 0 -46 17.5t-19 41.5q0 31 18.5 48.5t46.5 17.5h195q68 266 289 441 t504 175q131 0 284 -53q51 -35 29 -82q-6 -23 -26.5 -32t-45.5 -3q-139 43 -241 43q-229 0 -414.5 -138t-255.5 -351h754q23 0 40 -18.5t17 -47.5q0 -25 -17.5 -42t-39.5 -17h-779q-6 -25 -6 -76q0 -59 6 -90h779q20 0 38.5 -16.5t18.5 -34.5q0 -27 -17.5 -46.5t-39.5 -19.5 h-754q70 -219 254 -357t416 -138q124 0 241 45z" />
<glyph unicode="&#x2122;" horiz-adv-x="1579" d="M186 1311h-63v325h-125v58h313v-58h-125v-325zM412 1311h-60v383h97l96 -305l92 305h92v-383h-57v321l-101 -321h-57l-102 325v-325z" />
<glyph unicode="&#xe000;" horiz-adv-x="1065" d="M0 1065h1065v-1065h-1065v1065z" />
<glyph unicode="&#xfb01;" horiz-adv-x="854" d="M623 1067q27 0 44 -17.5t17 -43.5v-945q0 -27 -17.5 -44t-43.5 -17q-25 0 -43.5 17.5t-18.5 43.5v883h-438v-883q0 -27 -18.5 -44t-43.5 -17q-27 0 -44 17.5t-17 43.5v1254q0 133 95 228t229 95h217q27 0 44 -18t17 -43q0 -27 -17.5 -44t-43.5 -17h-217 q-82 0 -141.5 -59.5t-59.5 -141.5v-248h498h2z" />
<glyph unicode="&#xfb02;" horiz-adv-x="1157" d="M938 121h115q27 0 45 -18.5t18 -45t-18.5 -44t-44.5 -17.5h-115q-137 0 -235.5 97t-98.5 235v1183h-274q-84 0 -145.5 -60t-61.5 -146v-254h344q27 0 45 -18.5t18 -43.5q0 -27 -18 -45t-45 -18h-344v-869q0 -27 -17.5 -44t-44 -17t-45 17.5t-18.5 43.5v1248 q0 137 97.5 235t234.5 98h334h4q27 0 45 -18t18 -45v-1247q0 -86 60.5 -146.5t146.5 -60.5z" />
<glyph unicode="&#xfb03;" horiz-adv-x="1665" d="M1404 1067q25 0 43.5 -17.5t18.5 -41.5v-945q0 -27 -18.5 -44t-43.5 -17q-27 0 -44 17.5t-17 43.5v945q0 25 17 42t44 17zM1343 1198v72q0 27 17.5 44t43.5 17q25 0 43.5 -17.5t18.5 -43.5v-72q0 -25 -18.5 -43t-43.5 -18q-27 0 -44 18t-17 43zM1356 1518h-360 q-82 0 -141.5 -58.5t-59.5 -142.5v-254h416q27 0 44 -17.5t17 -44.5q0 -25 -17.5 -43t-43.5 -18h-416v-877q0 -27 -18.5 -44t-43.5 -17q-27 0 -44 17.5t-17 43.5v1254q0 133 95 228t229 95h360q27 0 44 -17t17 -44q0 -25 -17 -43t-44 -18zM684 1518h-360q-82 0 -141.5 -58.5 t-59.5 -142.5v-254h416q27 0 44 -17.5t17 -44.5q0 -25 -17.5 -43t-43.5 -18h-416v-877q0 -27 -18.5 -44t-43.5 -17q-27 0 -44 17.5t-17 43.5v1254q0 133 95 228t229 95h360q27 0 44 -17t17 -44q0 -25 -17 -43t-44 -18z" />
<glyph unicode="&#xfb04;" horiz-adv-x="2091" d="M1343 326v1253q0 27 17.5 44t43.5 17q25 0 43.5 -17t18.5 -44v-1253q0 -84 59.5 -142.5t141.5 -58.5h202q25 0 43.5 -18.5t18.5 -43t-18.5 -43t-43.5 -18.5h-202q-133 0 -228.5 95.5t-95.5 228.5zM1356 1518h-360q-82 0 -141.5 -58.5t-59.5 -142.5v-254h416 q27 0 44 -17.5t17 -44.5q0 -25 -17.5 -43t-43.5 -18h-416v-877q0 -27 -18.5 -44t-43.5 -17q-27 0 -44 17.5t-17 43.5v1254q0 133 95 228t229 95h360q27 0 44 -17t17 -44q0 -25 -17 -43t-44 -18zM684 1518h-360q-82 0 -141.5 -58.5t-59.5 -142.5v-254h416q27 0 44 -17.5 t17 -44.5q0 -25 -17.5 -43t-43.5 -18h-416v-877q0 -27 -18.5 -44t-43.5 -17q-27 0 -44 17.5t-17 43.5v1254q0 133 95 228t229 95h360q27 0 44 -17t17 -44q0 -25 -17 -43t-44 -18z" />
<glyph horiz-adv-x="698" />
</font>
</defs>
</svg>
