<?xml version="1.0" standalone="no"?>
<!DOCTYPE svg PUBLIC "-//W3C//DTD SVG 1.1//EN" "http://www.w3.org/Graphics/SVG/1.1/DTD/svg11.dtd" >
<svg xmlns="http://www.w3.org/2000/svg">
<metadata>
This is a custom SVG webfont generated by Font Squirrel.
Copyright   : Copyright C 2007 Yusuke Kamiyamane All rights reserved
Foundry     : Yusuke Kamiyamane
</metadata>
<defs>
<font id="webfontvyGkTGgk" horiz-adv-x="1792" >
<font-face units-per-em="2048" ascent="1638" descent="-410" />
<missing-glyph horiz-adv-x="1280" />
<glyph unicode=" "  horiz-adv-x="1280" />
<glyph unicode="&#x09;" horiz-adv-x="1280" />
<glyph unicode="&#xa0;" horiz-adv-x="1280" />
<glyph unicode="!" horiz-adv-x="512" d="M0 1792h256v-1280h-256v1280zM0 256h256v-256h-256v256z" />
<glyph unicode="&#x22;" horiz-adv-x="1024" d="M0 1792h256v-512h-256v512zM512 1792h256v-512h-256v512z" />
<glyph unicode="#" d="M0 1280h256v512h256v-512h512v512h256v-512h256v-258h-256v-254h256v-258h-256v-510h-256v510h-512v-510h-256v510h-256v258h256v254h-256v258zM1024 768v254h-512v-254h512zM1024 512h256v254h-51v-203h-205v-51zM512 512v254h-51v-203h-205v-51h256zM1024 1024h256v254 h-51v-203h-205v-51zM512 1024v254h-51v-203h-205v-51h256z" />
<glyph unicode="$" horiz-adv-x="2048" d="M0 256h768v510h-512v156h-102v102h-154v512h154v102h102v154h512v256h256v-256h768v-258h-768v-510h512v-154h102v-102h154v-512h-154v-102h-102v-156h-512v-254h-256v254h-768v258zM768 1534h-512v-510h512v510zM1536 256v510h-512v-510h512zM1024 768v254h-51v-203 h-205v-51h256zM1024 1536v254h-51v-203h-205v-51h256zM1024 0v254h-51v-203h-205v-51h256z" />
<glyph unicode="%" horiz-adv-x="2048" d="M0 1280v256h154v102h102v154h256v-154h102v-102h154v-256h-154v-102h-102v-154h-256v154h-102v102h-154zM1024 256v256h154v102h102v154h256v-154h102v-102h154v-256h-154v-102h-102v-154h-256v154h-102v102h-154zM256 1536v-256h256v256h-256zM1280 512v-256h256v256 h-256zM1280 1485v307h256v-256h-154v-102h-102v-412h-256v-256h-256v-254h-51v-205h-205v-307h-256v256h154v102h102v410h256v256h256v256h51v205h205z" />
<glyph unicode="&#x26;" d="M1024 256h512v-256h-512v254h-154v-100h-102v-154h-512v154h-102v102h-154v512h256v154h-102v102h-154v512h154v102h102v154h1024v-256h-1024v-512h512v-154h102v-102h154v256h512v-258h-512v-510zM768 766h-512v-510h512v510z" />
<glyph unicode="'" horiz-adv-x="512" d="M0 1792h256v-512h-256v512z" />
<glyph unicode="(" horiz-adv-x="768" d="M256 0h256v-256h-256v154h-102v102h-154v1792h154v102h102v154h256v-256h-256v-1792z" />
<glyph unicode=")" horiz-adv-x="768" d="M256 1792h-256v256h256v-154h102v-102h154v-1792h-154v-102h-102v-154h-256v256h256v1792z" />
<glyph unicode="*" horiz-adv-x="1536" d="M512 1024v512h256v-512h256v256h256v-258h-256v-254h256v-256h-256v254h-256v-510h-256v510h-256v-254h-256v256h256v254h-256v258h256v-256h256zM768 768v254h-51v-203h-205v-51h256z" />
<glyph unicode="+" horiz-adv-x="1536" d="M0 1024h512v512h256v-512h512v-258h-512v-510h-256v510h-512v258zM768 768v254h-51v-203h-205v-51h256z" />
<glyph unicode="," horiz-adv-x="768" d="M256 0v-205h-205v205h103v102h102v154h256v-256h-256z" />
<glyph unicode="-" horiz-adv-x="1024" d="M0 768h768v-256h-768v256z" />
<glyph unicode="." horiz-adv-x="768" d="M256 256h256v-256h-256v256z" />
<glyph unicode="/" horiz-adv-x="1536" d="M1024 1485v307h256v-256h-154v-102h-102v-412h-256v-256h-256v-254h-51v-205h-205v-307h-256v256h154v102h102v410h256v256h256v256h51v205h205z" />
<glyph unicode="0" d="M256 0v154h-102v102h-154v1280h154v102h102v154h1024v-154h102v-102h154v-1280h-154v-102h-102v-154h-1024zM256 1536v-1280h1024v1280h-1024z" />
<glyph unicode="1" horiz-adv-x="768" d="M256 0v1536h-256v256h512v-1792h-256z" />
<glyph unicode="2" d="M0 1792h1280v-154h102v-102h154v-512h-154v-102h-102v-154h-1024v-512h1280v-256h-1536v768h154v102h102v154h1024v512h-1280v256z" />
<glyph unicode="3" d="M0 256h1280v510h-1024v156h-102v102h1126v512h-1280v256h1280v-154h102v-102h154v-512h-154v-102h-102v-154h256v-512h-154v-102h-102v-154h-1280v256z" />
<glyph unicode="4" d="M512 1536h256v256h512v-1024h256v-256h-256v-512h-256v512h-1024v512h256v256h256v256zM512 1022h-256v-254h768v766h-256v-256h-256v-256z" />
<glyph unicode="5" d="M0 256h1280v512h-1280v1024h1536v-256h-1280v-512h1024v-154h102v-102h154v-512h-154v-102h-102v-154h-1280v256z" />
<glyph unicode="6" d="M256 1024h1024v-154h102v-102h154v-512h-154v-102h-102v-154h-1024v154h-102v102h-154v1280h154v102h102v154h1126v-102h-102v-154h-1024v-512zM256 768v-512h1024v512h-1024z" />
<glyph unicode="7" d="M1178 1382h102v154h-1280v256h1536v-256h-51v-205h-205v-307h-51v-205h-205v-307h-51v-205h-205v-307h-256v256h154v102h102v410h154v102h102v410h154v102z" />
<glyph unicode="8" d="M256 0v154h-102v102h-154v512h256v154h-102v102h-154v512h154v102h102v154h1024v-154h102v-102h154v-512h-154v-102h-102v-154h256v-512h-154v-102h-102v-154h-1024zM256 1536v-512h1024v512h-1024zM256 766v-510h1024v510h-1024z" />
<glyph unicode="9" d="M1280 768h-1024v154h-102v102h-154v512h154v102h102v154h1024v-154h102v-102h154v-1280h-154v-102h-102v-154h-1024v154h-102v102h1126v512zM1280 1024v512h-1024v-512h1024z" />
<glyph unicode=":" horiz-adv-x="768" d="M256 256h256v-256h-256v256zM256 1280h256v-256h-256v256z" />
<glyph unicode=";" horiz-adv-x="768" d="M256 1280h256v-256h-256v256zM256 0v-205h-205v205h103v102h102v154h256v-256h-256z" />
<glyph unicode="&#x3c;" horiz-adv-x="1024" d="M256 766h-256v258h256v256h256v256h256v-258h-256v-256h-256v-254h256v-256h256v-256h-256v254h-256v256z" />
<glyph unicode="=" horiz-adv-x="1024" d="M0 768h768v-256h-768v256zM0 1280h768v-256h-768v256z" />
<glyph unicode="&#x3e;" horiz-adv-x="1024" d="M512 510h-256v-254h-256v256h256v256h256v254h-256v256h-256v258h256v-256h256v-256h256v-258h-256v-256z" />
<glyph unicode="?" d="M512 768h154v102h102v154h512v512h-1280v256h1280v-154h102v-102h154v-512h-154v-102h-102v-154h-512v-256h-256v256zM512 256h256v-256h-256v256z" />
<glyph unicode="@" horiz-adv-x="2304" d="M768 410h-102v102h-154v256h154v102h102v154h512v256h-512v154h-102v102h614v-154h102v-102h154v-1024h256v1280h-256v256h-1024v-256h-256v-1280h256v-256h768v-256h-768v154h-102v102h-154v154h-102v102h-154v1280h154v102h102v154h154v102h102v154h1024v-154h102v-102 h154v-154h102v-102h154v-1280h-154v-102h-102v-154h-256v154h-102v102h-666v154zM1280 768h-512v-256h512v256z" />
<glyph unicode="A" d="M1536 1536v-1536h-256v768h-1024v-768h-256v1536h154v102h102v154h1024v-154h102v-102h154zM256 1024h1024v512h-1024v-512z" />
<glyph unicode="B" d="M1280 922v-154h256v-512h-154v-102h-102v-154h-1280v1792h1280v-154h102v-102h154v-512h-154v-102h-102zM1280 1024v512h-1024v-512h1024zM256 256h1024v510h-1024v-510z" />
<glyph unicode="C" d="M256 154h-102v102h-154v1280h154v102h102v154h1280v-256h-1280v-1280h1280v-256h-1280v154z" />
<glyph unicode="D" d="M1280 0h-1280v1792h1280v-154h102v-102h154v-1280h-154v-102h-102v-154zM256 256h1024v1280h-1024v-1280z" />
<glyph unicode="E" d="M1280 922v-154h-1024v-512h1280v-256h-1536v1792h1536v-256h-1280v-512h1126v-102h-102z" />
<glyph unicode="F" d="M1280 922v-154h-1024v-768h-256v1792h1536v-256h-1280v-512h1126v-102h-102z" />
<glyph unicode="G" d="M768 1024h768v-1024h-1280v154h-102v102h-154v1280h154v102h102v154h1280v-256h-1280v-1280h1024v512h-512v256z" />
<glyph unicode="H" d="M1280 768h-1024v-768h-256v1792h256v-768h1024v768h256v-1792h-256v768z" />
<glyph unicode="I" horiz-adv-x="512" d="M0 1792h256v-1792h-256v1792z" />
<glyph unicode="J" horiz-adv-x="1536" d="M0 256h1024v1536h256v-1536h-154v-102h-102v-154h-1024v256z" />
<glyph unicode="K" d="M1024 307h-205v205h-307v254h-256v-766h-256v1792h256v-768h256v-256h256v-154h102v-102h410v-256h256v-256h-256v254h-256v53zM870 1280v-102h-102v-154h-256v256h307v205h205v51h256v256h256v-258h-256v-254h-410z" />
<glyph unicode="L" horiz-adv-x="1536" d="M0 1792h256v-1536h1024v-256h-1280v1792z" />
<glyph unicode="M" horiz-adv-x="2560" d="M1792 1022h-256v-256h-256v-254h-256v254h-256v256h-256v256h-256v-1278h-256v1792h256v-256h256v-256h256v-256h256v-256h256v256h256v256h256v256h256v256h256v-1792h-256v1278h-256v-256z" />
<glyph unicode="N" horiz-adv-x="2048" d="M1280 510h-256v256h-256v256h-256v256h-256v-1278h-256v1792h256v-256h256v-256h256v-256h256v-256h256v-256h256v1280h256v-1792h-256v254h-256v256z" />
<glyph unicode="O" d="M154 256h-154v1280h154v102h102v154h1024v-154h102v-102h154v-1280h-154v-102h-102v-154h-1024v154h-102v102zM256 1536v-1280h1024v1280h-1024z" />
<glyph unicode="P" d="M1536 1536v-512h-154v-102h-102v-154h-1024v-768h-256v1792h1280v-154h102v-102h154zM1280 1536h-1024v-512h1024v512z" />
<glyph unicode="Q" d="M1280 -102h-102v102h-922v154h-102v102h-154v1280h154v102h102v154h1024v-154h102v-102h154v-1280h-154v-102h-102v-154h256v-256h-256v154zM256 1536v-1280h1024v1280h-1024z" />
<glyph unicode="R" d="M1536 1536v-512h-154v-102h-102v-205h205v-205h51v-512h-256v666h-102v102h-922v-768h-256v1792h1280v-154h102v-102h154zM1280 1536h-1024v-512h1024v512z" />
<glyph unicode="S" d="M0 256h1280v512h-1024v154h-102v102h-154v512h154v102h102v154h1280v-256h-1280v-512h1024v-154h102v-102h154v-512h-154v-102h-102v-154h-1280v256z" />
<glyph unicode="T" horiz-adv-x="2048" d="M0 1792h1792v-256h-768v-1536h-256v1536h-768v256z" />
<glyph unicode="U" d="M1536 1792v-1536h-154v-102h-102v-154h-1024v154h-102v102h-154v1536h256v-1536h1024v1536h256z" />
<glyph unicode="V" horiz-adv-x="2048" d="M768 307h-205v205h-51v307h-205v205h-51v307h-205v205h-51v256h256v-410h102v-102h154v-410h102v-102h154v-410h102v-102h154v512h154v102h102v410h154v102h102v410h256v-256h-51v-205h-205v-307h-51v-205h-205v-307h-51v-205h-203v-307h-258v307z" />
<glyph unicode="W" horiz-adv-x="2560" d="M1024 154v-154h-768v154h-102v102h-154v1536h256v-1536h768v1536h256v-1536h768v1536h256v-1536h-154v-102h-102v-154h-768v254h-154v-100h-102z" />
<glyph unicode="X" horiz-adv-x="2048" d="M1024 768h256v-256h256v-256h256v-256h-256v254h-256v256h-256v256h-256v-256h-256v-256h-256v-254h-256v256h256v256h256v256h256v254h-256v256h-256v256h-256v258h256v-256h256v-256h256v-256h256v256h256v256h256v256h256v-258h-256v-256h-256v-256h-256v-254z" />
<glyph unicode="Y" horiz-adv-x="2048" d="M1280 1022h-256v-1022h-256v1022h-256v256h-256v256h-256v258h256v-256h256v-256h256v-256h256v256h256v256h256v256h256v-258h-256v-256h-256v-256z" />
<glyph unicode="Z" horiz-adv-x="2048" d="M0 256h256v256h256v256h256v256h256v256h256v256h-1280v256h1792v-256h-256v-258h-256v-256h-256v-256h-256v-256h-256v-254h1280v-256h-1792v256z" />
<glyph unicode="[" horiz-adv-x="768" d="M0 2048h512v-256h-256v-1792h256v-256h-512v2304z" />
<glyph unicode="\" horiz-adv-x="1536" d="M461 1485v-205h51v-256h256v-256h256v-410h102v-102h154v-256h-256v307h-205v205h-51v254h-256v256h-256v412h-102v102h-154v256h256v-307h205z" />
<glyph unicode="]" horiz-adv-x="768" d="M0 0h256v1792h-256v256h512v-2304h-512v256z" />
<glyph unicode="^" horiz-adv-x="1024" d="M512 1638h102v-102h103v-205h-205v205h-256v-205h-205v205h103v102h102v154h256v-154z" />
<glyph unicode="_" horiz-adv-x="1024" d="M0 256h768v-256h-768v256z" />
<glyph unicode="`" horiz-adv-x="768" d="M0 2304v256h256v-154h102v-102h103v-205h-205v205h-256z" />
<glyph unicode="a" d="M256 154h-102v102h-154v256h154v102h102v154h1024v256h-1024v154h-102v102h1126v-154h102v-102h154v-1024h-1280v154zM1280 256v256h-1024v-256h1024z" />
<glyph unicode="b" d="M205 1741v-205h51v-512h51v205h205v51h768v-154h102v-102h154v-768h-154v-102h-102v-154h-768v51h-205v205h-51v-256h-256v1741h205zM1280 1024h-922v-102h-102v-564h102v-102h922v768z" />
<glyph unicode="c" d="M256 154h-102v102h-154v768h154v102h102v154h1280v-256h-1280v-768h1280v-256h-1280v154z" />
<glyph unicode="d" d="M1485 1741v-205h51v-1536h-256v256h-51v-205h-205v-51h-768v154h-102v102h-154v768h154v102h102v154h768v-51h205v-205h51v717h205zM256 256h922v102h102v564h-102v102h-922v-768z" />
<glyph unicode="e" d="M1382 154h-102v-154h-1024v154h-102v102h-154v768h154v102h102v154h1024v-154h102v-102h154v-512h-1280v-256h1126v-102zM256 768h1024v256h-1024v-256z" />
<glyph unicode="f" horiz-adv-x="1536" d="M0 1280h256v256h154v102h102v154h768v-256h-768v-256h768v-258h-768v-1022h-256v1022h-256v258zM512 1024v254h-51v-203h-205v-51h256z" />
<glyph unicode="g" d="M1280 -256v512h-51v-205h-205v-51h-768v154h-102v102h-154v768h154v102h102v154h768v-51h205v-205h51v256h256v-1536h-154v-102h-102v-154h-1024v154h-102v102h1126zM256 256h922v102h102v564h-102v102h-922v-768z" />
<glyph unicode="h" d="M205 1741v-205h51v-512h51v205h205v51h768v-154h102v-102h154v-1024h-256v1024h-922v-102h-102v-922h-256v1741h205z" />
<glyph unicode="i" horiz-adv-x="512" d="M0 1280h256v-1280h-256v1280zM0 1792h256v-256h-256v256z" />
<glyph unicode="j" horiz-adv-x="512" d="M0 -358v-154h-256v256h256v1536h256v-1536h-154v-102h-102zM0 1792h256v-256h-256v256z" />
<glyph unicode="k" d="M1280 51h-205v205h-307v51h-205v203h-307v-510h-256v1741h205v-205h51v-768h307v205h205v51h307v205h205v51h256v-256h-410v-102h-102v-154h-410v-102h-102v-154h512v-154h102v-102h410v-256h-256v51z" />
<glyph unicode="l" horiz-adv-x="512" d="M205 1741v-205h51v-1536h-256v1741h205z" />
<glyph unicode="m" horiz-adv-x="2560" d="M358 1024v-102h-102v-922h-256v1280h256v-256h51v205h205v51h512v-154h102v-102h205v205h205v51h512v-154h102v-102h154v-1024h-256v1024h-666v-102h-102v-922h-256v1024h-666z" />
<glyph unicode="n" d="M358 1024v-102h-102v-922h-256v1280h256v-256h51v205h205v51h768v-154h102v-102h154v-1024h-256v1024h-922z" />
<glyph unicode="o" d="M256 0v154h-102v102h-154v768h154v102h102v154h1024v-154h102v-102h154v-768h-154v-102h-102v-154h-1024zM256 1024v-768h1024v768h-1024z" />
<glyph unicode="p" d="M256 1280v-256h51v205h205v51h768v-154h102v-102h154v-768h-154v-102h-102v-154h-768v51h-205v205h-51v-512h-51v-205h-205v1741h256zM1280 1024h-922v-102h-102v-564h102v-102h922v768z" />
<glyph unicode="q" d="M1229 256v-205h-205v-51h-768v154h-102v102h-154v768h154v102h102v154h768v-51h205v-205h51v256h256v-1536h-51v-205h-205v717h-51zM256 256h922v102h102v564h-102v102h-922v-768z" />
<glyph unicode="r" horiz-adv-x="1536" d="M358 1024v-102h-102v-922h-256v1280h256v-256h51v205h205v51h768v-256h-922z" />
<glyph unicode="s" d="M0 256h1280v256h-1024v154h-102v102h-154v256h154v102h102v154h1280v-256h-1280v-256h1024v-154h102v-102h154v-256h-154v-102h-102v-154h-1280v256z" />
<glyph unicode="t" horiz-adv-x="1536" d="M0 1280h256v358h102v-102h154v-256h768v-258h-768v-766h768v-256h-768v51h-205v205h-51v766h-256v258zM512 1024v254h-51v-203h-205v-51h256z" />
<glyph unicode="u" d="M1024 51v-51h-768v154h-102v102h-154v1024h256v-1024h922v102h102v922h256v-1280h-256v256h-51v-205h-205z" />
<glyph unicode="v" horiz-adv-x="2048" d="M512 563h-205v205h-51v256h-256v256h256v-256h256v-410h102v-102h154v-256h256v-256h-256v256h-256v307zM1536 1024v-256h-51v-205h-205v-307h-256v256h154v102h102v410h256zM1792 1024h-256v256h256v-256z" />
<glyph unicode="w" horiz-adv-x="2560" d="M1024 154v-154h-768v154h-102v102h-154v1024h256v-1024h768v1024h256v-1024h768v1024h256v-1024h-154v-102h-102v-154h-768v254h-154v-100h-102z" />
<glyph unicode="x" d="M1024 1024h256v256h256v-258h-256v-256h-256v-254h256v-256h256v-256h-256v254h-256v258h-512v254h-256v256h-256v258h256v-256h256v-256h512v256zM0 256h256v256h256v-258h-256v-254h-256v256z" />
<glyph unicode="y" horiz-adv-x="2048" d="M1536 1024v-256h-51v-205h-205v-309h-256v-254h-51v-205h-205v-307h-256v256h154v102h102v408h-256v309h-205v205h-51v256h-256v256h256v-256h256v-410h102v-102h154v-256h256v256h154v102h102v410h256zM1792 1024h-256v256h256v-256z" />
<glyph unicode="z" horiz-adv-x="1536" d="M0 256h256v256h256v256h256v256h-768v256h1280v-256h-256v-258h-256v-256h-256v-254h768v-256h-1280v256z" />
<glyph unicode="{" horiz-adv-x="1024" d="M0 1024h256v768h154v102h102v154h256v-256h-256v-770h-256v-254h256v-768h256v-256h-256v154h-102v102h-154v766h-256v258z" />
<glyph unicode="|" horiz-adv-x="512" d="M0 2048h256v-2304h-256v2304z" />
<glyph unicode="}" horiz-adv-x="1024" d="M768 766h-256v-766h-154v-102h-102v-154h-256v256h256v768h256v254h-256v770h-256v256h256v-154h102v-102h154v-768h256v-258z" />
<glyph unicode="~" horiz-adv-x="1280" d="M768 1280h-256v254h-256v-203h-205v205h103v102h102v154h256v-256h256v205h205v-205h-103v-102h-102v-154z" />
<glyph unicode="&#xa1;" horiz-adv-x="512" d="M0 1792h256v-256h-256v256zM0 1280h256v-1280h-256v1280z" />
<glyph unicode="&#xa2;" d="M1024 0h-256v254h-512v156h-102v102h-154v768h154v102h102v154h512v256h256v-256h512v-258h-512v-766h512v-258h-512v-254zM256 512h512v766h-512v-766zM1024 256v254h-51v-203h-205v-51h256zM1024 1280v254h-51v-203h-205v-51h256z" />
<glyph unicode="&#xa3;" d="M512 256h1024v-256h-1536v256h256v510h-256v258h256v512h154v102h102v154h1024v-256h-1024v-512h870v-102h-102v-156h-768v-510zM512 768v254h-51v-203h-205v-51h256z" />
<glyph unicode="&#xa4;" horiz-adv-x="1536" d="M0 512h512v51h-205v205h-51v256h51v205h205v49h-512v258h256v-256h768v256h256v-258h-512v-49h205v-205h51v-256h-51v-205h-205v-51h512v-256h-256v254h-768v-254h-256v256zM512 1024v-256h256v256h-256z" />
<glyph unicode="&#xa5;" horiz-adv-x="2048" d="M1280 1024h512v-258h-768v-252h768v-258h-768v-256h-256v256h-768v258h768v252h-768v258h512v254h-256v256h-256v258h256v-256h256v-256h256v-256h256v256h256v256h256v256h256v-258h-256v-256h-256v-254zM1024 258v254h-51v-203h-205v-51h256zM1024 768v254h-51v-203 h-205v-51h256z" />
<glyph unicode="&#xa6;" horiz-adv-x="512" d="M0 768h256v-1024h-256v1024zM256 1024h-256v1024h256v-1024z" />
<glyph unicode="&#xa7;" d="M1280 1126h102v-102h154v-256h-51v-205h-205v-205h102v-102h154v-256h-154v-102h-102v-154h-1024v154h-102v102h-154v256h256v-256h1024v256h-512v154h-102v102h-410v154h-102v102h-154v256h51v205h205v205h-102v102h-154v256h154v102h102v154h1024v-154h102v-102h154 v-256h-256v256h-1024v-256h512v-154h102v-102h410v-154zM1178 614h102v410h-256v51h-205v205h-461v-102h-102v-410h256v-51h205v-205h461v102z" />
<glyph unicode="&#xa8;" horiz-adv-x="1024" d="M0 2304h256v-256h-256v256zM512 2304h256v-256h-256v256z" />
<glyph unicode="&#xa9;" horiz-adv-x="2304" d="M154 1536v102h102v154h154v102h102v154h1024v-154h102v-102h154v-154h102v-102h154v-1280h-154v-102h-102v-154h-154v-102h-102v-154h-1024v154h-102v102h-154v154h-102v102h-154v1280h154zM1382 256h410v1278h-410v-100h-102v-154h-512v-768h512v-154h102v-102zM768 410 h-102v102h-154v768h154v102h102v154h768v256h-1024v-256h-256v-1280h256v-256h1024v254h-768v156z" />
<glyph unicode="&#xaa;" horiz-adv-x="1024" d="M51 1280h-51v256h154v102h102v154h512v-768h-512v51h-205v205zM256 1280h256v256h-256v-256z" />
<glyph unicode="&#xab;" d="M256 766h-256v258h256v256h256v256h256v-258h-256v-256h-256v-254h256v-256h256v-256h-256v254h-256v256zM1024 766h-256v258h256v256h256v256h256v-258h-256v-256h-256v-254h256v-256h256v-256h-256v254h-256v256z" />
<glyph unicode="&#xac;" horiz-adv-x="1024" d="M0 1280h768v-768h-256v512h-512v256z" />
<glyph unicode="&#xad;" horiz-adv-x="1024" d="M0 768h768v-256h-768v256z" />
<glyph unicode="&#xae;" horiz-adv-x="2304" d="M1536 -256h-1024v154h-102v102h-154v154h-102v102h-154v1280h154v102h102v154h154v102h102v154h1024v-154h102v-102h154v-154h102v-102h154v-1280h-154v-102h-102v-154h-154v-102h-102v-154zM1536 256h256v1280h-256v256h-1024v-256h768v-154h102v-102h154v-256h-154 v-102h-102v-205h205v-205h51v-256zM1280 666h-102v102h-410v-514h-256v-254h1024v254h-256v412zM512 1534h-256v-1278h256v1278zM1280 1280h-512v-256h512v256z" />
<glyph unicode="&#xaf;" horiz-adv-x="1024" d="M0 2304h768v-256h-768v256z" />
<glyph unicode="&#xb0;" horiz-adv-x="1024" d="M512 1178v-154h-256v154h-102v102h-154v256h154v102h102v154h256v-154h102v-102h154v-256h-154v-102h-102zM256 1280h256v256h-256v-256z" />
<glyph unicode="&#xb1;" horiz-adv-x="1536" d="M0 512h1280v-256h-1280v256zM0 1280h512v256h256v-256h512v-258h-512v-254h-256v254h-512v258zM768 1024v254h-51v-203h-205v-51h256z" />
<glyph unicode="&#xb2;" horiz-adv-x="1024" d="M0 1792h154v102h102v154h256v256h-512v256h512v-154h102v-102h154v-256h-154v-102h-102v-154h-256v-256h512v-256h-768v512z" />
<glyph unicode="&#xb3;" horiz-adv-x="1024" d="M256 1946h-102v102h358v256h-512v256h512v-154h102v-102h154v-256h-154v-102h-102v-154h256v-256h-154v-102h-102v-154h-512v256h512v254h-256v156z" />
<glyph unicode="&#xb4;" horiz-adv-x="768" d="M256 2304v-205h-205v205h103v102h102v154h256v-256h-256z" />
<glyph unicode="&#xb5;" d="M307 256h-51v-512h-256v1536h256v-922h102v-102h820v102h102v922h256v-1280h-256v256h-51v-205h-205v-51h-512v51h-205v205z" />
<glyph unicode="&#xb6;" horiz-adv-x="1536" d="M154 1894h102v154h1024v-2304h-256v2048h-256v-2048h-256v1024h-256v154h-102v102h-154v768h154v102z" />
<glyph unicode="&#xb7;" horiz-adv-x="512" d="M0 1024h256v-256h-256v256z" />
<glyph unicode="&#xb8;" horiz-adv-x="768" d="M256 -256v-205h-205v205h103v102h102v154h256v-256h-256z" />
<glyph unicode="&#xb9;" horiz-adv-x="768" d="M0 2560h512v-1280h-256v1024h-256v256z" />
<glyph unicode="&#xba;" horiz-adv-x="1024" d="M512 1178v-154h-256v154h-102v102h-154v256h154v102h102v154h256v-154h102v-102h154v-256h-154v-102h-102zM256 1280h256v256h-256v-256z" />
<glyph unicode="&#xbb;" d="M1280 510h-256v-254h-256v256h256v256h256v254h-256v256h-256v258h256v-256h256v-256h256v-258h-256v-256zM512 510h-256v-254h-256v256h256v256h256v254h-256v256h-256v258h256v-256h256v-256h256v-258h-256v-256z" />
<glyph unicode="&#xbc;" horiz-adv-x="2560" d="M2048 0v256h-512v512h256v-256h256v256h-256v256h256v256h256v-1280h-256zM0 1792h512v-1280h-256v1024h-256v256zM1536 1485v307h256v-256h-154v-102h-102v-412h-256v-256h-256v-254h-51v-205h-205v-307h-256v256h154v102h102v410h256v256h256v256h51v205h205z" />
<glyph unicode="&#xbd;" horiz-adv-x="2816" d="M0 1792h512v-1280h-256v1024h-256v256zM1792 512h154v102h102v154h256v256h-512v256h512v-154h102v-102h154v-256h-154v-102h-102v-154h-256v-256h512v-256h-768v512zM1331 1485v-205h-51v-256h-256v-256h-256v-410h-102v-102h-154v-256h256v307h205v205h51v254h256v256 h256v412h102v102h154v256h-256v-307h-205z" />
<glyph unicode="&#xbe;" horiz-adv-x="2816" d="M2304 0v256h-512v512h256v-256h256v256h-256v256h256v256h256v-1280h-256zM256 1178h-102v102h358v256h-512v256h512v-154h102v-102h154v-256h-154v-102h-102v-154h256v-256h-154v-102h-102v-154h-512v256h512v254h-256v156zM1792 1485v307h256v-256h-154v-102h-102v-412 h-256v-256h-256v-254h-51v-205h-205v-307h-256v256h154v102h102v410h256v256h256v256h51v205h205z" />
<glyph unicode="&#xbf;" d="M1024 1024h-154v-102h-102v-154h-512v-512h1280v-256h-1280v154h-102v102h-154v512h154v102h102v154h512v256h256v-256zM1024 1536h-256v256h256v-256z" />
<glyph unicode="&#xc0;" d="M1536 1536v-1536h-256v768h-1024v-768h-256v1536h154v102h102v154h1024v-154h102v-102h154zM256 1024h1024v512h-1024v-512zM512 2304v256h256v-154h102v-102h103v-205h-205v205h-256z" />
<glyph unicode="&#xc1;" d="M1536 1536v-1536h-256v768h-1024v-768h-256v1536h154v102h102v154h1024v-154h102v-102h154zM256 1024h1024v512h-1024v-512zM768 2304v-205h-205v205h103v102h102v154h256v-256h-256z" />
<glyph unicode="&#xc2;" d="M1536 1536v-1536h-256v768h-1024v-768h-256v1536h154v102h102v154h1024v-154h102v-102h154zM256 1024h1024v512h-1024v-512zM1024 2406h102v-102h103v-205h-205v205h-512v-205h-205v205h103v102h102v154h512v-154z" />
<glyph unicode="&#xc3;" d="M1536 1536v-1536h-256v768h-1024v-768h-256v1536h154v102h102v154h1024v-154h102v-102h154zM256 1024h1024v512h-1024v-512zM1024 2048h-256v254h-256v-203h-205v205h103v102h102v154h256v-256h256v205h205v-205h-103v-102h-102v-154z" />
<glyph unicode="&#xc4;" d="M1536 1536v-1536h-256v768h-1024v-768h-256v1536h154v102h102v154h1024v-154h102v-102h154zM256 1024h1024v512h-1024v-512zM256 2304h256v-256h-256v256zM1024 2304h256v-256h-256v256z" />
<glyph unicode="&#xc5;" d="M1536 1536v-1536h-256v768h-1024v-768h-256v1536h154v102h102v154h1024v-154h102v-102h154zM256 1024h1024v512h-1024v-512zM1024 2202v-154h-512v154h-102v102h-154v256h154v102h102v154h512v-154h102v-102h154v-256h-154v-102h-102zM512 2304h512v256h-512v-256z" />
<glyph unicode="&#xc6;" horiz-adv-x="3072" d="M2560 922v-156h-1024v-510h1280v-256h-1536v766h-1024v-766h-256v1536h154v102h102v154h2560v-256h-1280v-512h1126v-102h-102zM1280 1536h-1024v-512h1024v512zM1536 768v254h-51v-203h-205v-51h256z" />
<glyph unicode="&#xc7;" d="M1024 0v-256h-256v-205h-205v205h103v102h102v154h-512v154h-102v102h-154v1280h154v102h102v154h1280v-256h-1280v-1280h1280v-256h-512z" />
<glyph unicode="&#xc8;" d="M1280 922v-154h-1024v-512h1280v-256h-1536v1792h1536v-256h-1280v-512h1126v-102h-102zM512 2304v256h256v-154h102v-102h103v-205h-205v205h-256z" />
<glyph unicode="&#xc9;" d="M1280 922v-154h-1024v-512h1280v-256h-1536v1792h1536v-256h-1280v-512h1126v-102h-102zM768 2304v-205h-205v205h103v102h102v154h256v-256h-256z" />
<glyph unicode="&#xca;" d="M1280 922v-154h-1024v-512h1280v-256h-1536v1792h1536v-256h-1280v-512h1126v-102h-102zM1024 2406h102v-102h103v-205h-205v205h-512v-205h-205v205h103v102h102v154h512v-154z" />
<glyph unicode="&#xcb;" d="M1280 922v-154h-1024v-512h1280v-256h-1536v1792h1536v-256h-1280v-512h1126v-102h-102zM256 2304h256v-256h-256v256zM1024 2304h256v-256h-256v256z" />
<glyph unicode="&#xcc;" horiz-adv-x="512" d="M0 1792h256v-1792h-256v1792zM-256 2304v256h256v-154h102v-102h103v-205h-205v205h-256z" />
<glyph unicode="&#xcd;" horiz-adv-x="512" d="M0 1792h256v-1792h-256v1792zM256 2304v-205h-205v205h103v102h102v154h256v-256h-256z" />
<glyph unicode="&#xce;" horiz-adv-x="512" d="M0 1792h256v-1792h-256v1792zM256 2406h102v-102h103v-205h-205v205h-256v-205h-205v205h103v102h102v154h256v-154z" />
<glyph unicode="&#xcf;" horiz-adv-x="512" d="M0 1792h256v-1792h-256v1792zM-256 2304h256v-256h-256v256zM256 2304h256v-256h-256v256z" />
<glyph unicode="&#xd0;" horiz-adv-x="2048" d="M0 1024h256v768h1280v-154h102v-102h154v-1280h-154v-102h-102v-154h-1280v766h-256v258zM512 256h1024v1280h-1024v-512h512v-258h-512v-510zM512 768v254h-51v-203h-205v-51h256z" />
<glyph unicode="&#xd1;" horiz-adv-x="2048" d="M819 2304h-307v-205h-205v205h103v102h102v154h256v-51h205v-205h307v205h205v-205h-103v-102h-102v-154h-256v51h-205v205zM1280 510h-256v256h-256v256h-256v256h-256v-1278h-256v1792h256v-256h256v-256h256v-256h256v-256h256v-256h256v1280h256v-1792h-256v254h-256 v256z" />
<glyph unicode="&#xd2;" d="M256 0v154h-102v102h-154v1280h154v102h102v154h1024v-154h102v-102h154v-1280h-154v-102h-102v-154h-1024zM256 1536v-1280h1024v1280h-1024zM512 2304v256h256v-154h102v-102h103v-205h-205v205h-256z" />
<glyph unicode="&#xd3;" d="M256 0v154h-102v102h-154v1280h154v102h102v154h1024v-154h102v-102h154v-1280h-154v-102h-102v-154h-1024zM256 1536v-1280h1024v1280h-1024zM768 2304v-205h-205v205h103v102h102v154h256v-256h-256z" />
<glyph unicode="&#xd4;" d="M256 0v154h-102v102h-154v1280h154v102h102v154h1024v-154h102v-102h154v-1280h-154v-102h-102v-154h-1024zM256 1536v-1280h1024v1280h-1024zM1024 2406h102v-102h103v-205h-205v205h-512v-205h-205v205h103v102h102v154h512v-154z" />
<glyph unicode="&#xd5;" d="M256 0v154h-102v102h-154v1280h154v102h102v154h1024v-154h102v-102h154v-1280h-154v-102h-102v-154h-1024zM256 1536v-1280h1024v1280h-1024zM1024 2048h-256v254h-256v-203h-205v205h103v102h102v154h256v-256h256v205h205v-205h-103v-102h-102v-154z" />
<glyph unicode="&#xd6;" d="M256 2304h256v-256h-256v256zM1024 2304h256v-256h-256v256zM256 0v154h-102v102h-154v1280h154v102h102v154h1024v-154h102v-102h154v-1280h-154v-102h-102v-154h-1024zM256 1536v-1280h1024v1280h-1024z" />
<glyph unicode="&#xd7;" horiz-adv-x="1536" d="M768 1280h256v256h256v-258h-256v-256h-256v-254h256v-256h256v-256h-256v254h-256v258h-256v254h-256v256h-256v258h256v-256h256v-256h256v256zM0 512h256v256h256v-258h-256v-254h-256v256z" />
<glyph unicode="&#xd8;" d="M254 358v308h-100v102h-154v768h154v102h102v154h768v-154h102v-102h154v256h256v-256h-154v-102h-100v-308h100v-102h154v-768h-154v-102h-102v-154h-768v154h-102v102h-154v-256h-256v256h154v102h100zM1280 1280h-51v-205h-205v-307h-410v-102h-102v-410h768v1024z M256 512h51v205h205v307h410v102h102v410h-768v-1024z" />
<glyph unicode="&#xd9;" d="M1280 256v1536h256v-1536h-154v-102h-102v-154h-1024v154h-102v102h-154v1536h256v-1536h1024zM512 2304v256h256v-154h102v-102h103v-205h-205v205h-256z" />
<glyph unicode="&#xda;" d="M1280 256v1536h256v-1536h-154v-102h-102v-154h-1024v154h-102v102h-154v1536h256v-1536h1024zM768 2304v-205h-205v205h103v102h102v154h256v-256h-256z" />
<glyph unicode="&#xdb;" d="M1280 256v1536h256v-1536h-154v-102h-102v-154h-1024v154h-102v102h-154v1536h256v-1536h1024zM1024 2406h102v-102h103v-205h-205v205h-512v-205h-205v205h103v102h102v154h512v-154z" />
<glyph unicode="&#xdc;" d="M256 2304h256v-256h-256v256zM1024 2304h256v-256h-256v256zM1280 256v1536h256v-1536h-154v-102h-102v-154h-1024v154h-102v102h-154v1536h256v-1536h1024z" />
<glyph unicode="&#xdd;" horiz-adv-x="2048" d="M1024 2304v-205h-205v205h103v102h102v154h256v-256h-256zM1280 1278h256v256h256v258h-256v-256h-256v-256h-256v-256h-256v256h-256v256h-256v256h-256v-258h256v-256h256v-256h256v-1022h256v1022h256v256z" />
<glyph unicode="&#xde;" d="M0 -256v2304h256v-512h51v205h205v51h768v-154h102v-102h154v-1280h-154v-102h-102v-154h-768v51h-205v205h-51v-512h-256zM1280 1536h-922v-102h-102v-1076h102v-102h922v1280z" />
<glyph unicode="&#xdf;" d="M0 -256v1792h51v205h205v51h1024v-154h102v-102h154v-512h-154v-102h-102v-154h256v-512h-154v-102h-102v-154h-768v154h-102v102h870v510h-768v156h-102v102h870v512h-1024v-1792h-256z" />
<glyph unicode="&#xe0;" d="M256 154h-102v102h-154v256h154v102h102v154h1024v256h-1024v154h-102v102h1126v-154h102v-102h154v-1024h-1280v154zM1280 512h-1024v-256h1024v256zM512 1792v256h256v-154h102v-102h103v-205h-205v205h-256z" />
<glyph unicode="&#xe1;" d="M768 1792v-205h-205v205h103v102h102v154h256v-256h-256zM256 0h1280v1024h-154v102h-102v154h-1126v-102h102v-154h1024v-256h-1024v-154h-102v-102h-154v-256h154v-102h102v-154zM1280 256h-1024v256h1024v-256z" />
<glyph unicode="&#xe2;" d="M1024 1894h102v-102h103v-205h-205v205h-512v-205h-205v205h103v102h102v154h512v-154zM256 0h1280v1024h-154v102h-102v154h-1126v-102h102v-154h1024v-256h-1024v-154h-102v-102h-154v-256h154v-102h102v-154zM1280 256h-1024v256h1024v-256z" />
<glyph unicode="&#xe3;" d="M256 0h1280v1024h-154v102h-102v154h-1126v-102h102v-154h1024v-256h-1024v-154h-102v-102h-154v-256h154v-102h102v-154zM1280 256h-1024v256h1024v-256zM1024 1536h-256v254h-256v-203h-205v205h103v102h102v154h256v-256h256v205h205v-205h-103v-102h-102v-154z" />
<glyph unicode="&#xe4;" d="M256 1792h256v-256h-256v256zM1024 1792h256v-256h-256v256zM256 0h1280v1024h-154v102h-102v154h-1126v-102h102v-154h1024v-256h-1024v-154h-102v-102h-154v-256h154v-102h102v-154zM1280 256h-1024v256h1024v-256z" />
<glyph unicode="&#xe5;" d="M1024 1690v-154h-512v154h-102v102h-154v256h154v102h102v154h512v-154h102v-102h154v-256h-154v-102h-102zM512 1792h512v256h-512v-256zM256 0h1280v1024h-154v102h-102v154h-1126v-102h102v-154h1024v-256h-1024v-154h-102v-102h-154v-256h154v-102h102v-154z M1280 256h-1024v256h1024v-256z" />
<glyph unicode="&#xe6;" horiz-adv-x="3072" d="M256 1024v154h-102v102h1126v-154h102v-102h154v256h1024v-154h102v-102h154v-514h-1280v-254h1126v-102h-102v-154h-1024v254h-154v-100h-102v-154h-1024v154h-102v102h-154v256h154v102h102v154h1024v256h-1024zM2560 1022h-1024v-254h1024v254zM1280 510h-1024v-254 h1024v254zM1536 766h-51v-203h-205v-51h256v254z" />
<glyph unicode="&#xe7;" d="M256 256h1280v-256h-512v-256h-256v-205h-205v205h103v102h102v154h-512v154h-102v102h-154v768h154v102h102v154h1280v-256h-1280v-768z" />
<glyph unicode="&#xe8;" d="M512 1792v256h256v-154h102v-102h103v-205h-205v205h-256zM154 256v-102h102v-154h1024v154h102v102h-1126v256h1280v512h-154v102h-102v154h-1024v-154h-102v-102h-154v-768h154zM256 1024h1024v-256h-1024v256z" />
<glyph unicode="&#xe9;" d="M768 1792v-205h-205v205h103v102h102v154h256v-256h-256zM154 256v-102h102v-154h1024v154h102v102h-1126v256h1280v512h-154v102h-102v154h-1024v-154h-102v-102h-154v-768h154zM256 1024h1024v-256h-1024v256z" />
<glyph unicode="&#xea;" d="M1024 1894h102v-102h103v-205h-205v205h-512v-205h-205v205h103v102h102v154h512v-154zM154 256v-102h102v-154h1024v154h102v102h-1126v256h1280v512h-154v102h-102v154h-1024v-154h-102v-102h-154v-768h154zM256 1024h1024v-256h-1024v256z" />
<glyph unicode="&#xeb;" d="M256 1792h256v-256h-256v256zM1024 1792h256v-256h-256v256zM154 256v-102h102v-154h1024v154h102v102h-1126v256h1280v512h-154v102h-102v154h-1024v-154h-102v-102h-154v-768h154zM256 1024h1024v-256h-1024v256z" />
<glyph unicode="&#xec;" horiz-adv-x="512" d="M0 1280h256v-1280h-256v1280zM-256 1792v256h256v-154h102v-102h103v-205h-205v205h-256z" />
<glyph unicode="&#xed;" horiz-adv-x="512" d="M0 1280h256v-1280h-256v1280zM256 1792v-205h-205v205h103v102h102v154h256v-256h-256z" />
<glyph unicode="&#xee;" horiz-adv-x="512" d="M0 1280h256v-1280h-256v1280zM256 1894h102v-102h103v-205h-205v205h-256v-205h-205v205h103v102h102v154h256v-154z" />
<glyph unicode="&#xef;" horiz-adv-x="512" d="M0 1280h256v-1280h-256v1280zM-256 1792h256v-256h-256v256zM256 1792h256v-256h-256v256z" />
<glyph unicode="&#xf0;" d="M563 1536h717v205h205v-205h51v-1536h-256v256h-51v-205h-205v-51h-768v154h-102v102h-154v512h154v102h102v154h768v-51h205v-205h51v512h-512v51h-205v205zM1178 358h102v308h-102v102h-922v-512h922v102z" />
<glyph unicode="&#xf1;" d="M1280 1024v-1024h256v1024h-154v102h-102v154h-768v-51h-205v-205h-51v256h-256v-1280h256v922h102v102h922zM1024 1536h-256v254h-256v-203h-205v205h103v102h102v154h256v-256h256v205h205v-205h-103v-102h-102v-154z" />
<glyph unicode="&#xf2;" d="M256 0v154h-102v102h-154v768h154v102h102v154h1024v-154h102v-102h154v-768h-154v-102h-102v-154h-1024zM256 1024v-768h1024v768h-1024zM512 1792v256h256v-154h102v-102h103v-205h-205v205h-256z" />
<glyph unicode="&#xf3;" d="M256 0v154h-102v102h-154v768h154v102h102v154h1024v-154h102v-102h154v-768h-154v-102h-102v-154h-1024zM256 1024v-768h1024v768h-1024zM768 1792v-205h-205v205h103v102h102v154h256v-256h-256z" />
<glyph unicode="&#xf4;" d="M256 0v154h-102v102h-154v768h154v102h102v154h1024v-154h102v-102h154v-768h-154v-102h-102v-154h-1024zM256 1024v-768h1024v768h-1024zM1024 1894h102v-102h103v-205h-205v205h-512v-205h-205v205h103v102h102v154h512v-154z" />
<glyph unicode="&#xf5;" d="M256 0v154h-102v102h-154v768h154v102h102v154h1024v-154h102v-102h154v-768h-154v-102h-102v-154h-1024zM256 1024v-768h1024v768h-1024zM1024 1536h-256v254h-256v-203h-205v205h103v102h102v154h256v-256h256v205h205v-205h-103v-102h-102v-154z" />
<glyph unicode="&#xf6;" d="M256 1792h256v-256h-256v256zM1024 1792h256v-256h-256v256zM256 0v154h-102v102h-154v768h154v102h102v154h1024v-154h102v-102h154v-768h-154v-102h-102v-154h-1024zM256 1024v-768h1024v768h-1024z" />
<glyph unicode="&#xf7;" horiz-adv-x="1536" d="M0 1024h1280v-256h-1280v256zM768 1280h-256v256h256v-256zM512 256v256h256v-256h-256z" />
<glyph unicode="&#xf8;" d="M154 512h-154v512h154v102h102v154h768v-154h102v-102h154v256h256v-258h-256v-152h102v-102h154v-512h-154v-102h-102v-154h-768v154h-102v100h-154v-254h-256v256h256v154h-102v102zM256 512h256v256h512v256h-768v-512zM1024 766v-256h-512v-254h768v510h-256z" />
<glyph unicode="&#xf9;" d="M512 1792v256h256v-154h102v-102h103v-205h-205v205h-256zM1229 51v205h51v-256h256v1280h-256v-922h-102v-102h-922v1024h-256v-1024h154v-102h102v-154h768v51h205z" />
<glyph unicode="&#xfa;" d="M768 1792v-205h-205v205h103v102h102v154h256v-256h-256zM1229 51v205h51v-256h256v1280h-256v-922h-102v-102h-922v1024h-256v-1024h154v-102h102v-154h768v51h205z" />
<glyph unicode="&#xfb;" d="M1024 1894h102v-102h103v-205h-205v205h-512v-205h-205v205h103v102h102v154h512v-154zM1229 51v205h51v-256h256v1280h-256v-922h-102v-102h-922v1024h-256v-1024h154v-102h102v-154h768v51h205z" />
<glyph unicode="&#xfc;" d="M256 1792h256v-256h-256v256zM1024 1792h256v-256h-256v256zM1229 51v205h51v-256h256v1280h-256v-922h-102v-102h-922v1024h-256v-1024h154v-102h102v-154h768v51h205z" />
<glyph unicode="&#xfd;" horiz-adv-x="2048" d="M1024 1792v-205h-205v205h103v102h102v154h256v-256h-256zM1280 1024v-410h-102v-102h-154v-256h-256v256h-154v102h-102v410h-256v256h-256v-256h256v-256h51v-205h205v-309h256v-408h-102v-102h-154v-256h256v307h205v205h51v254h256v309h205v205h51v256h-256z M1792 1280h-256v-256h256v256z" />
<glyph unicode="&#xfe;" d="M0 -256v1792h256v-512h51v205h205v51h768v-154h102v-102h154v-768h-154v-102h-102v-154h-768v51h-205v205h-51v-512h-256zM1280 1024h-922v-102h-102v-564h102v-102h922v768z" />
<glyph unicode="&#xff;" horiz-adv-x="2048" d="M1024 1792h256v-256h-256v256zM512 1792h256v-256h-256v256zM1280 1024v-410h-102v-102h-154v-256h-256v256h-154v102h-102v410h-256v256h-256v-256h256v-256h51v-205h205v-309h256v-408h-102v-102h-154v-256h256v307h205v205h51v254h256v309h205v205h51v256h-256z M1792 1280h-256v-256h256v256z" />
<glyph unicode="&#x152;" horiz-adv-x="3072" d="M2560 922v-154h-1024v-512h1280v-256h-2560v154h-102v102h-154v1280h154v102h102v154h2560v-256h-1280v-512h1126v-102h-102zM256 1536v-1280h1024v1280h-1024z" />
<glyph unicode="&#x153;" horiz-adv-x="3072" d="M1382 1024h154v256h1024v-154h102v-102h154v-512h-1280v-256h1126v-102h-102v-154h-1024v254h-154v-100h-102v-154h-1024v154h-102v102h-154v768h154v102h102v154h1024v-154h102v-102zM256 1024v-768h1024v768h-1024zM2560 768v254h-1024v-254h1024z" />
<glyph unicode="&#x178;" horiz-adv-x="2048" d="M1024 2304h256v-256h-256v256zM512 2304h256v-256h-256v256zM1280 1278h256v256h256v258h-256v-256h-256v-256h-256v-256h-256v256h-256v256h-256v256h-256v-258h256v-256h256v-256h256v-1022h256v1022h256v256z" />
<glyph unicode="&#x2c6;" horiz-adv-x="1024" d="M512 2406h102v-102h103v-205h-205v205h-256v-205h-205v205h103v102h102v154h256v-154z" />
<glyph unicode="&#x2dc;" horiz-adv-x="1280" d="M768 2048h-256v254h-256v-203h-205v205h103v102h102v154h256v-256h256v205h205v-205h-103v-102h-102v-154z" />
<glyph unicode="&#x2000;" horiz-adv-x="1406" />
<glyph unicode="&#x2001;" horiz-adv-x="2816" />
<glyph unicode="&#x2002;" horiz-adv-x="1406" />
<glyph unicode="&#x2003;" horiz-adv-x="2816" />
<glyph unicode="&#x2004;" horiz-adv-x="937" />
<glyph unicode="&#x2005;" horiz-adv-x="702" />
<glyph unicode="&#x2006;" horiz-adv-x="468" />
<glyph unicode="&#x2007;" horiz-adv-x="468" />
<glyph unicode="&#x2008;" horiz-adv-x="350" />
<glyph unicode="&#x2009;" horiz-adv-x="563" />
<glyph unicode="&#x200a;" horiz-adv-x="155" />
<glyph unicode="&#x2010;" horiz-adv-x="1024" d="M0 768h768v-256h-768v256z" />
<glyph unicode="&#x2011;" horiz-adv-x="1024" d="M0 768h768v-256h-768v256z" />
<glyph unicode="&#x2012;" horiz-adv-x="1024" d="M0 768h768v-256h-768v256z" />
<glyph unicode="&#x2013;" horiz-adv-x="1536" d="M0 1024h1280v-256h-1280v256z" />
<glyph unicode="&#x2014;" horiz-adv-x="2048" d="M0 1024h1792v-256h-1792v256z" />
<glyph unicode="&#x2018;" horiz-adv-x="768" d="M256 1536v205h205v-205h-103v-102h-102v-154h-256v256h256z" />
<glyph unicode="&#x2019;" horiz-adv-x="768" d="M256 1536v-205h-205v205h103v102h102v154h256v-256h-256z" />
<glyph unicode="&#x201a;" horiz-adv-x="768" d="M256 0v-205h-205v205h103v102h102v154h256v-256h-256z" />
<glyph unicode="&#x201c;" horiz-adv-x="1280" d="M256 1536v205h205v-205h307v205h205v-205h-103v-102h-102v-154h-256v254h-154v-100h-102v-154h-256v256h256z" />
<glyph unicode="&#x201d;" horiz-adv-x="1280" d="M256 1331h-205v205h103v102h102v154h256v-256h154v102h102v154h256v-256h-256v-205h-205v203h-307v-203z" />
<glyph unicode="&#x201e;" horiz-adv-x="1280" d="M256 -205h-205v205h103v102h102v154h256v-256h154v102h102v154h256v-256h-256v-205h-205v203h-307v-203z" />
<glyph unicode="&#x2022;" horiz-adv-x="1536" d="M0 1280h256v256h768v-256h256v-768h-256v-256h-768v256h-256v768z" />
<glyph unicode="&#x2026;" horiz-adv-x="1536" d="M0 256h256v-256h-256v256zM1024 256h256v-256h-256v256zM512 256h256v-256h-256v256z" />
<glyph unicode="&#x202f;" horiz-adv-x="563" />
<glyph unicode="&#x2039;" horiz-adv-x="1024" d="M256 766h-256v258h256v256h256v256h256v-258h-256v-256h-256v-254h256v-256h256v-256h-256v254h-256v256z" />
<glyph unicode="&#x203a;" horiz-adv-x="1024" d="M512 510h-256v-254h-256v256h256v256h256v254h-256v256h-256v258h256v-256h256v-256h256v-258h-256v-256z" />
<glyph unicode="&#x205f;" horiz-adv-x="702" />
<glyph unicode="&#x20ac;" d="M256 1280h1126v-102h-102v-154h-1024v-256h1126v-102h-102v-154h-1024v-256h1280v-256h-1280v154h-102v102h-154v1280h154v102h102v154h1280v-256h-1280v-256z" />
<glyph unicode="&#x2122;" d="M512 1024h-256v563h-205v205h973v-154h102v-102h154v256h256v-768h-256v307h-205v205h-51v-512h-256v766h-51v-203h-205v-563z" />
<glyph unicode="&#xe000;" horiz-adv-x="1280" d="M0 1280h1280v-1280h-1280v1280z" />
<glyph unicode="&#xfb01;" horiz-adv-x="2048" d="M0 1280h256v256h154v102h102v154h768v-256h-768v-256h1280v-1280h-256v1022h-1024v-1022h-256v1022h-256v258zM1536 1536v256h256v-256h-256zM512 1024v254h-51v-203h-205v-51h256z" />
<glyph unicode="&#xfb02;" horiz-adv-x="2048" d="M0 1280h256v256h154v102h102v154h1280v-1792h-256v1536h-1024v-256h768v-258h-768v-1022h-256v1022h-256v258zM512 1024v254h-51v-203h-205v-51h256z" />
<glyph unicode="&#xfb03;" horiz-adv-x="3584" d="M3072 1280h256v-1280h-256v1280zM3072 1792h256v-256h-256v256zM1536 1280h256v256h154v102h102v154h768v-256h-768v-256h768v-258h-768v-1022h-256v1022h-256v258zM2048 1024v254h-51v-203h-205v-51h256zM0 1280h256v256h154v102h102v154h768v-256h-768v-256h768v-258 h-768v-1022h-256v1022h-256v258zM512 1024v254h-51v-203h-205v-51h256z" />
<glyph unicode="&#xfb04;" horiz-adv-x="3584" d="M3277 1741v-205h51v-1536h-256v1741h205zM1536 1280h256v256h154v102h102v154h768v-256h-768v-256h768v-258h-768v-1022h-256v1022h-256v258zM2048 1024v254h-51v-203h-205v-51h256zM0 1280h256v256h154v102h102v154h768v-256h-768v-256h768v-258h-768v-1022h-256v1022 h-256v258zM512 1024v254h-51v-203h-205v-51h256z" />
</font>
</defs>
</svg>
