<?xml version="1.0" standalone="no"?>
<!DOCTYPE svg PUBLIC "-//W3C//DTD SVG 1.1//EN" "http://www.w3.org/Graphics/SVG/1.1/DTD/svg11.dtd" >
<svg xmlns="http://www.w3.org/2000/svg">
<metadata>
This is a custom SVG webfont generated by Font Squirrel.
Copyright   : Copyrightc 2001 KaayaVapour Trail All Right Reserved Mailtokaayav trailcom  Site URLhttpwwwv trailcom
</metadata>
<defs>
<font id="webfont53HmssFB" horiz-adv-x="2048" >
<font-face units-per-em="2048" ascent="2048" descent="0" />
<missing-glyph horiz-adv-x="1024" />
<glyph unicode=" "  horiz-adv-x="1024" />
<glyph unicode="&#x09;" horiz-adv-x="1024" />
<glyph unicode="&#xa0;" horiz-adv-x="1024" />
<glyph unicode="!" horiz-adv-x="1024" d="M768 768h-768v1280h768v-1280zM768 0h-768v512h768v-512z" />
<glyph unicode="&#x22;" horiz-adv-x="1024" d="M768 1280h-256v768h256v-768zM256 1280h-256v768h256v-768z" />
<glyph unicode="#" d="M1792 512h-256v-512h-512v512h-256v-512h-512v512h-256v512h256v256h-256v512h256v256h512v-256h256v256h512v-256h256v-512h-256v-256h256v-512zM1024 1024v256h-256v-256h256z" />
<glyph unicode="$" d="M1792 256h-768v-256h-256v256h-768v256h768v256h-768v1024h768v256h256v-256h768v-512h-768v-256h768v-768z" />
<glyph unicode="%" d="M256 1792h-256v256h256v-256zM1792 256h-256v256h256v-256zM1536 1536h-256v-512h-256v-512h-256v-512h-512v512h256v512h256v512h256v512h512v-512z" />
<glyph unicode="&#x26;" d="M1792 0h-512v256h-256v-256h-1024v2048h1024v-512h768v-512h-512v-256h512v-768zM512 1280v256h-256v-256h256zM512 512v256h-256v-256h256z" />
<glyph unicode="'" horiz-adv-x="512" d="M256 1280h-256v768h256v-768z" />
<glyph unicode="(" horiz-adv-x="1280" d="M1024 0h-512v256h-256v256h-256v768h256v256h256v256h512v-512h-512v-768h512v-512z" />
<glyph unicode=")" horiz-adv-x="1280" d="M1024 512h-256v-256h-256v-256h-512v512h512v768h-512v512h512v-256h256v-256h256v-768z" />
<glyph unicode="*" d="M1792 512h-512v256h-256v-512h-256v512h-256v-256h-512v512h512v256h-512v512h512v-256h256v512h256v-512h256v256h512v-512h-512v-256h512v-512z" />
<glyph unicode="+" d="M1792 512h-512v-512h-768v512h-512v1024h512v512h768v-512h512v-1024z" />
<glyph unicode="," horiz-adv-x="512" d="M256 0h-256v512h256v-512z" />
<glyph unicode="-" d="M1792 768h-1792v512h1792v-512z" />
<glyph unicode="." horiz-adv-x="512" d="M256 0h-256v256h256v-256z" />
<glyph unicode="/" horiz-adv-x="1536" d="M1280 1536h-256v-512h-256v-512h-256v-512h-512v512h256v512h256v512h256v512h512v-512z" />
<glyph unicode="0" d="M1792 0h-1792v2048h1792v-2048zM1024 768v768h-256v-768h256z" />
<glyph unicode="1" horiz-adv-x="1536" d="M1280 0h-768v1280h-512v768h1280v-2048z" />
<glyph unicode="2" d="M1792 0h-1792v1280h768v256h-768v512h1792v-1280h-768v-256h768v-512z" />
<glyph unicode="3" d="M1792 0h-1792v512h768v256h-768v512h768v256h-768v512h1792v-2048z" />
<glyph unicode="4" d="M1792 0h-768v512h-1024v1536h768v-768h256v768h768v-2048z" />
<glyph unicode="5" d="M1792 0h-1792v512h768v256h-768v1280h1792v-512h-768v-256h768v-1280z" />
<glyph unicode="6" d="M1792 0h-1792v2048h1792v-512h-1024v-256h1024v-1280zM1280 512v256h-512v-256h512z" />
<glyph unicode="7" d="M1792 0h-768v1280h-1024v768h1792v-2048z" />
<glyph unicode="8" d="M1792 0h-1792v2048h1792v-2048zM1280 1280v256h-768v-256h768zM1280 512v256h-768v-256h768z" />
<glyph unicode="9" d="M1792 0h-1024v768h-768v1280h1792v-2048zM1280 1280v256h-512v-256h512z" />
<glyph unicode=":" horiz-adv-x="768" d="M512 768h-512v512h512v-512zM512 0h-512v512h512v-512z" />
<glyph unicode=";" horiz-adv-x="768" d="M512 1024h-512v512h512v-512zM512 0h-512v768h512v-768z" />
<glyph unicode="&#x3c;" horiz-adv-x="1536" d="M1280 0h-512v256h-256v256h-256v256h-256v256h256v256h256v256h256v256h512v-256h-256v-256h-256v-256h-256v-256h256v-256h256v-256h256v-256z" />
<glyph unicode="=" d="M1792 1024h-1792v512h1792v-512zM1792 256h-1792v512h1792v-512z" />
<glyph unicode="&#x3e;" horiz-adv-x="1536" d="M1280 768h-256v-256h-256v-256h-256v-256h-512v256h256v256h256v256h256v256h-256v256h-256v256h-256v256h512v-256h256v-256h256v-256h256v-256z" />
<glyph unicode="?" d="M1792 768h-1280v512h512v256h-1024v512h1792v-1280zM1280 0h-768v512h768v-512z" />
<glyph unicode="@" d="M1792 0h-1792v2048h1792v-1280h-512v768h-768v-1024h1280v-512zM1024 768h-256v512h256v-512z" />
<glyph unicode="A" d="M1792 0h-768v512h-256v-512h-768v2048h1792v-2048zM1024 1024v512h-256v-512h256z" />
<glyph unicode="B" d="M1792 0h-1792v2048h1792v-2048zM1536 1280v256h-768v-256h768zM1536 512v256h-768v-256h768z" />
<glyph unicode="C" d="M1792 0h-1792v2048h1792v-768h-768v-256h768v-1024z" />
<glyph unicode="D" d="M1792 0h-1792v2048h1792v-2048zM1280 768v768h-256v-768h256z" />
<glyph unicode="E" d="M1792 0h-1792v2048h1792v-512h-768v-256h768v-512h-768v-256h768v-512z" />
<glyph unicode="F" d="M1792 512h-768v-512h-1024v2048h1792v-768h-768v-256h768v-512z" />
<glyph unicode="G" d="M1792 0h-1792v2048h1792v-512h-1280v-1024h768v256h-512v512h1024v-1280z" />
<glyph unicode="H" d="M1792 0h-768v768h-256v-768h-768v2048h768v-512h256v512h768v-2048z" />
<glyph unicode="I" horiz-adv-x="1024" d="M768 0h-768v2048h768v-2048z" />
<glyph unicode="J" d="M1792 0h-1792v768h768v1280h1024v-2048z" />
<glyph unicode="K" d="M1792 0h-1024v768h-256v-768h-512v2048h512v-512h256v512h1024v-768h-512v-256h512v-1024z" />
<glyph unicode="L" d="M1792 0h-1792v2048h1024v-1280h768v-768z" />
<glyph unicode="M" horiz-adv-x="2304" d="M2048 0h-512v768h-256v-768h-512v768h-256v-768h-512v2048h2048v-2048z" />
<glyph unicode="N" d="M1792 0h-1024v768h-256v-768h-512v2048h1024v-768h256v768h512v-2048z" />
<glyph unicode="O" d="M1792 0h-1792v2048h1792v-2048zM768 512v768h-256v-768h256z" />
<glyph unicode="P" d="M1792 512h-768v-512h-1024v2048h1792v-1536zM1280 1024v512h-256v-512h256z" />
<glyph unicode="Q" d="M1792 0h-512v768h-256v-768h-1024v2048h1792v-2048z" />
<glyph unicode="R" d="M1792 0h-768v512h-256v-512h-768v2048h1792v-1024h-256v-256h256v-768zM1024 1024v512h-256v-512h256z" />
<glyph unicode="S" d="M1792 0h-1792v768h768v256h-768v1024h1792v-512h-512v-256h512v-1280z" />
<glyph unicode="T" d="M1792 768h-512v-768h-768v768h-512v1280h1792v-1280z" />
<glyph unicode="U" d="M1792 0h-1792v2048h768v-768h256v768h768v-2048z" />
<glyph unicode="V" d="M1792 1536h-256v-768h-256v-768h-768v768h-256v768h-256v512h768v-512h256v512h768v-512z" />
<glyph unicode="W" horiz-adv-x="2304" d="M2048 0h-2048v2048h512v-768h256v768h512v-768h256v768h512v-2048z" />
<glyph unicode="X" d="M1792 0h-768v512h-256v-512h-768v768h256v256h-256v1024h768v-512h256v512h768v-1024h-256v-256h256v-768z" />
<glyph unicode="Y" d="M1792 768h-512v-768h-768v768h-512v1280h768v-512h256v512h768v-1280z" />
<glyph unicode="Z" d="M1792 0h-1792v1280h512v256h-512v512h1792v-1024h-768v-256h768v-768z" />
<glyph unicode="[" horiz-adv-x="1280" d="M1024 0h-1024v1792h1024v-512h-512v-768h512v-512z" />
<glyph unicode="\" horiz-adv-x="1536" d="M1280 0h-512v512h-256v512h-256v512h-256v512h512v-512h256v-512h256v-512h256v-512z" />
<glyph unicode="]" horiz-adv-x="1280" d="M1024 0h-1024v512h512v768h-512v512h1024v-1792z" />
<glyph unicode="^" horiz-adv-x="1536" d="M1280 1536h-512v256h-256v-256h-512v256h256v256h768v-256h256v-256z" />
<glyph unicode="_" d="M1792 0h-1792v512h1792v-512z" />
<glyph unicode="`" horiz-adv-x="512" d="M256 1280h-256v768h256v-768z" />
<glyph unicode="a" d="M1792 0h-256v512h-256v-512h-1280v1536h1792v-1536zM768 512v512h-256v-512h256z" />
<glyph unicode="b" d="M1792 0h-1792v2048h1024v-768h768v-1280zM1280 512v256h-512v-256h512z" />
<glyph unicode="c" d="M1792 0h-1792v1536h1792v-512h-768v-256h768v-768z" />
<glyph unicode="d" d="M1792 0h-1792v1280h768v768h1024v-2048zM1024 512v256h-512v-256h512z" />
<glyph unicode="e" d="M1792 0h-1792v1792h1792v-1024h-768v-256h768v-512zM1536 1024v256h-512v-256h512z" />
<glyph unicode="f" d="M1792 512h-512v-512h-768v512h-512v768h512v768h1280v-512h-512v-256h512v-768z" />
<glyph unicode="g" d="M1792 0h-1792v512h512v256h-512v1280h1792v-2048zM768 1024v512h-256v-512h256z" />
<glyph unicode="h" d="M1792 0h-768v512h-256v-512h-768v2048h768v-768h1024v-1280z" />
<glyph unicode="i" horiz-adv-x="1024" d="M768 1536h-768v512h768v-512zM768 0h-768v1280h768v-1280z" />
<glyph unicode="j" horiz-adv-x="1536" d="M1280 1536h-768v512h768v-512zM1280 0h-1280v512h512v768h768v-1280z" />
<glyph unicode="k" d="M1792 0h-512v512h-256v-512h-1024v2048h1024v-512h768v-512h-256v-256h256v-768z" />
<glyph unicode="l" horiz-adv-x="1280" d="M1024 0h-1024v2048h768v-1280h256v-768z" />
<glyph unicode="m" horiz-adv-x="2304" d="M2048 0h-512v768h-256v-768h-512v768h-256v-768h-512v1536h2048v-1536z" />
<glyph unicode="n" d="M1792 0h-768v768h-256v-768h-768v1536h1792v-1536z" />
<glyph unicode="o" d="M1792 0h-1792v1536h1792v-1536zM768 512v512h-256v-512h256z" />
<glyph unicode="p" d="M1792 512h-1024v-512h-768v1792h1792v-1280zM1280 1024v256h-512v-256h512z" />
<glyph unicode="q" d="M1792 0h-1024v512h-768v1280h1792v-1792zM1024 1024v256h-512v-256h512z" />
<glyph unicode="r" d="M1792 512h-1024v-512h-768v1536h1792v-1024z" />
<glyph unicode="s" d="M1792 0h-1792v512h512v256h-512v768h1792v-512h-512v-256h512v-768z" />
<glyph unicode="t" horiz-adv-x="1792" d="M1536 0h-1536v1536h768v-256h768v-512h-768v-256h768v-512z" />
<glyph unicode="u" d="M1792 0h-1792v1536h768v-768h256v768h768v-1536z" />
<glyph unicode="v" d="M1792 1024h-256v-512h-256v-512h-768v512h-256v512h-256v512h768v-512h256v512h768v-512z" />
<glyph unicode="w" horiz-adv-x="2304" d="M2048 0h-2048v1536h512v-768h256v768h512v-768h256v768h512v-1536z" />
<glyph unicode="x" d="M1792 0h-768v512h-256v-512h-768v512h256v256h-256v768h768v-768h256v768h768v-768h-256v-256h256v-512z" />
<glyph unicode="y" d="M1792 0h-1792v512h768v256h-768v768h768v-512h256v512h768v-1536z" />
<glyph unicode="z" d="M1792 0h-1792v768h512v256h-512v512h1792v-768h-512v-256h512v-512z" />
<glyph unicode="{" horiz-adv-x="1280" d="M1024 0h-768v768h-256v256h256v768h768v-512h-512v-768h512v-512z" />
<glyph unicode="|" horiz-adv-x="768" d="M512 0h-512v2048h512v-2048z" />
<glyph unicode="}" horiz-adv-x="1280" d="M1024 768h-256v-768h-768v512h512v768h-512v512h768v-768h256v-256z" />
<glyph unicode="~" d="M1280 1536h-768v256h-256v-256h-256v512h768v-256h256v256h256v-512z" />
<glyph unicode="&#xaa;" d="M1792 0h-256v512h-256v-512h-1280v1536h1792v-1536zM768 512v512h-256v-512h256z" />
<glyph unicode="&#xad;" d="M1792 768h-1792v512h1792v-512z" />
<glyph unicode="&#xb2;" d="M1792 0h-1792v1280h768v256h-768v512h1792v-1280h-768v-256h768v-512z" />
<glyph unicode="&#xb3;" d="M1792 0h-1792v512h768v256h-768v512h768v256h-768v512h1792v-2048z" />
<glyph unicode="&#xb9;" horiz-adv-x="1536" d="M1280 0h-768v1280h-512v768h1280v-2048z" />
<glyph unicode="&#xba;" d="M1792 0h-1792v1536h1792v-1536zM768 512v512h-256v-512h256z" />
<glyph unicode="&#xc0;" d="M1024 2171h-256v768h256v-768zM1792 0h-768v512h-256v-512h-768v2048h1792v-2048zM1024 1024v512h-256v-512h256z" />
<glyph unicode="&#xc2;" d="M1536 2171h-512v256h-256v-256h-512v256h256v256h768v-256h256v-256zM1792 0h-768v512h-256v-512h-768v2048h1792v-2048zM1024 1024v512h-256v-512h256z" />
<glyph unicode="&#xc3;" d="M1536 2171h-768v256h-256v-256h-256v512h768v-256h256v256h256v-512zM1792 0h-768v512h-256v-512h-768v2048h1792v-2048zM1024 1024v512h-256v-512h256z" />
<glyph unicode="&#xc8;" d="M1024 2171h-256v768h256v-768zM1792 0h-1792v2048h1792v-512h-768v-256h768v-512h-768v-256h768v-512z" />
<glyph unicode="&#xca;" d="M1536 2171h-512v256h-256v-256h-512v256h256v256h768v-256h256v-256zM1792 0h-1792v2048h1792v-512h-768v-256h768v-512h-768v-256h768v-512z" />
<glyph unicode="&#xcc;" horiz-adv-x="1024" d="M512 2171h-256v768h256v-768zM768 0h-768v2048h768v-2048z" />
<glyph unicode="&#xce;" horiz-adv-x="1024" d="M1024 2171h-512v256h-256v-256h-512v256h256v256h768v-256h256v-256zM768 0h-768v2048h768v-2048z" />
<glyph unicode="&#xd1;" d="M1536 2171h-768v256h-256v-256h-256v512h768v-256h256v256h256v-512zM1792 0h-1024v768h-256v-768h-512v2048h1024v-768h256v768h512v-2048z" />
<glyph unicode="&#xd2;" d="M1024 2171h-256v768h256v-768zM1792 0h-1792v2048h1792v-2048zM768 512v768h-256v-768h256z" />
<glyph unicode="&#xd4;" d="M1536 2171h-512v256h-256v-256h-512v256h256v256h768v-256h256v-256zM1792 0h-1792v2048h1792v-2048zM768 512v768h-256v-768h256z" />
<glyph unicode="&#xd5;" d="M1536 2171h-768v256h-256v-256h-256v512h768v-256h256v256h256v-512zM1792 0h-1792v2048h1792v-2048zM768 512v768h-256v-768h256z" />
<glyph unicode="&#xd9;" d="M1024 2171h-256v768h256v-768zM1792 0h-1792v2048h768v-768h256v768h768v-2048z" />
<glyph unicode="&#xdb;" d="M1536 2171h-512v256h-256v-256h-512v256h256v256h768v-256h256v-256zM1792 0h-1792v2048h768v-768h256v768h768v-2048z" />
<glyph unicode="&#xe0;" d="M1024 1659h-256v768h256v-768zM1792 0h-256v512h-256v-512h-1280v1536h1792v-1536zM768 512v512h-256v-512h256z" />
<glyph unicode="&#xe2;" d="M1536 1659h-512v256h-256v-256h-512v256h256v256h768v-256h256v-256zM1792 0h-256v512h-256v-512h-1280v1536h1792v-1536zM768 512v512h-256v-512h256z" />
<glyph unicode="&#xe3;" d="M1536 1659h-768v256h-256v-256h-256v512h768v-256h256v256h256v-512zM1792 0h-256v512h-256v-512h-1280v1536h1792v-1536zM768 512v512h-256v-512h256z" />
<glyph unicode="&#xe8;" d="M1024 1915h-256v768h256v-768zM1792 0h-1792v1792h1792v-1024h-768v-256h768v-512zM1536 1024v256h-512v-256h512z" />
<glyph unicode="&#xea;" d="M1536 1915h-512v256h-256v-256h-512v256h256v256h768v-256h256v-256zM1792 0h-1792v1792h1792v-1024h-768v-256h768v-512zM1536 1024v256h-512v-256h512z" />
<glyph unicode="&#xec;" horiz-adv-x="1024" d="M512 2171h-256v768h256v-768zM768 1536h-768v512h768v-512zM768 0h-768v1280h768v-1280z" />
<glyph unicode="&#xee;" horiz-adv-x="1024" d="M1024 2171h-512v256h-256v-256h-512v256h256v256h768v-256h256v-256zM768 1536h-768v512h768v-512zM768 0h-768v1280h768v-1280z" />
<glyph unicode="&#xf1;" d="M1536 1659h-768v256h-256v-256h-256v512h768v-256h256v256h256v-512zM1792 0h-768v768h-256v-768h-768v1536h1792v-1536z" />
<glyph unicode="&#xf2;" d="M1024 1659h-256v768h256v-768zM1792 0h-1792v1536h1792v-1536zM768 512v512h-256v-512h256z" />
<glyph unicode="&#xf4;" d="M1536 1659h-512v256h-256v-256h-512v256h256v256h768v-256h256v-256zM1792 0h-1792v1536h1792v-1536zM768 512v512h-256v-512h256z" />
<glyph unicode="&#xf5;" d="M1536 1659h-768v256h-256v-256h-256v512h768v-256h256v256h256v-512zM1792 0h-1792v1536h1792v-1536zM768 512v512h-256v-512h256z" />
<glyph unicode="&#xf9;" d="M1024 1659h-256v768h256v-768zM1792 0h-1792v1536h768v-768h256v768h768v-1536z" />
<glyph unicode="&#xfb;" d="M1536 1659h-512v256h-256v-256h-512v256h256v256h768v-256h256v-256zM1792 0h-1792v1536h768v-768h256v768h768v-1536z" />
<glyph unicode="&#x152;" horiz-adv-x="4096" d="M3840 0h-1792v2048h1792v-512h-768v-256h768v-512h-768v-256h768v-512zM1792 0h-1792v2048h1792v-2048zM768 512v768h-256v-768h256z" />
<glyph unicode="&#x153;" horiz-adv-x="4096" d="M3840 0h-1792v1792h1792v-1024h-768v-256h768v-512zM3584 1024v256h-512v-256h512zM1792 0h-1792v1536h1792v-1536zM768 512v512h-256v-512h256z" />
<glyph unicode="&#x2c6;" horiz-adv-x="1536" d="M1280 1536h-512v256h-256v-256h-512v256h256v256h768v-256h256v-256z" />
<glyph unicode="&#x2dc;" horiz-adv-x="1024" d="M641 123h-768v256h-256v-256h-256v512h768v-256h256v256h256v-512z" />
<glyph unicode="&#x2000;" horiz-adv-x="1468" />
<glyph unicode="&#x2001;" horiz-adv-x="2938" />
<glyph unicode="&#x2002;" horiz-adv-x="1468" />
<glyph unicode="&#x2003;" horiz-adv-x="2938" />
<glyph unicode="&#x2004;" horiz-adv-x="978" />
<glyph unicode="&#x2005;" horiz-adv-x="733" />
<glyph unicode="&#x2006;" horiz-adv-x="489" />
<glyph unicode="&#x2007;" horiz-adv-x="489" />
<glyph unicode="&#x2008;" horiz-adv-x="366" />
<glyph unicode="&#x2009;" horiz-adv-x="587" />
<glyph unicode="&#x200a;" horiz-adv-x="161" />
<glyph unicode="&#x2010;" d="M1792 768h-1792v512h1792v-512z" />
<glyph unicode="&#x2011;" d="M1792 768h-1792v512h1792v-512z" />
<glyph unicode="&#x2012;" d="M1792 768h-1792v512h1792v-512z" />
<glyph unicode="&#x2013;" horiz-adv-x="1024" d="M205 512v205h614v-205h-614z" />
<glyph unicode="&#x2014;" d="M205 512v205h1638v-205h-1638z" />
<glyph unicode="&#x2018;" horiz-adv-x="512" d="M256 1280h-256v768h256v-768z" />
<glyph unicode="&#x2019;" horiz-adv-x="512" d="M256 1280h-256v768h256v-768z" />
<glyph unicode="&#x201c;" horiz-adv-x="1024" d="M768 1280h-256v768h256v-768zM256 1280h-256v768h256v-768z" />
<glyph unicode="&#x201d;" horiz-adv-x="1024" d="M768 1280h-256v768h256v-768zM256 1280h-256v768h256v-768z" />
<glyph unicode="&#x2026;" horiz-adv-x="1536" d="M1280 0h-256v256h256v-256zM768 0h-256v256h256v-256zM256 0h-256v256h256v-256z" />
<glyph unicode="&#x202f;" horiz-adv-x="587" />
<glyph unicode="&#x2039;" horiz-adv-x="1536" d="M1280 0h-512v256h-256v256h-256v256h-256v256h256v256h256v256h256v256h512v-256h-256v-256h-256v-256h-256v-256h256v-256h256v-256h256v-256z" />
<glyph unicode="&#x203a;" horiz-adv-x="1536" d="M1280 768h-256v-256h-256v-256h-256v-256h-512v256h256v256h256v256h256v256h-256v256h-256v256h-256v256h512v-256h256v-256h256v-256h256v-256z" />
<glyph unicode="&#x205f;" horiz-adv-x="733" />
<glyph unicode="&#x2122;" horiz-adv-x="4352" d="M4096 0h-512v768h-256v-768h-512v768h-256v-768h-512v2048h2048v-2048zM1792 768h-512v-768h-768v768h-512v1280h1792v-1280z" />
<glyph unicode="&#xe000;" horiz-adv-x="1535" d="M0 1535h1535v-1535h-1535v1535z" />
<glyph unicode="&#xfb01;" horiz-adv-x="3072" d="M2816 1536h-768v512h768v-512zM2816 0h-768v1280h768v-1280zM1792 512h-512v-512h-768v512h-512v768h512v768h1280v-512h-512v-256h512v-768z" />
<glyph unicode="&#xfb02;" horiz-adv-x="3328" d="M3072 0h-1024v2048h768v-1280h256v-768zM1792 512h-512v-512h-768v512h-512v768h512v768h1280v-512h-512v-256h512v-768z" />
<glyph unicode="&#xfb03;" horiz-adv-x="5120" d="M4864 1536h-768v512h768v-512zM4864 0h-768v1280h768v-1280zM3840 512h-512v-512h-768v512h-512v768h512v768h1280v-512h-512v-256h512v-768zM1792 512h-512v-512h-768v512h-512v768h512v768h1280v-512h-512v-256h512v-768z" />
<glyph unicode="&#xfb04;" horiz-adv-x="5376" d="M5120 0h-1024v2048h768v-1280h256v-768zM3840 512h-512v-512h-768v512h-512v768h512v768h1280v-512h-512v-256h512v-768zM1792 512h-512v-512h-768v512h-512v768h512v768h1280v-512h-512v-256h512v-768z" />
</font>
</defs>
</svg>
